<svg width="104" height="43" viewBox="0 0 104 43" fill="none" xmlns="http://www.w3.org/2000/svg">
<path d="M14.7618 17.92H2.44975V20.176H7.36975V34H9.81775V20.176H14.7618V17.92ZM17.7316 34V27.088C17.7316 25.36 18.6916 24.28 20.2756 24.28C20.9236 24.28 21.5956 24.448 22.1716 24.784V22.432C21.5716 22.144 20.8036 22 20.0596 22C16.9876 22 15.3556 24.136 15.3556 26.992V34H17.7316ZM28.3503 34.288C30.2703 34.288 31.8303 33.376 32.7183 31.936V34H34.9743V28.096C34.9743 24.592 32.2623 21.952 28.7103 21.952C25.1343 21.952 22.4462 24.736 22.4462 28.096C22.4462 31.504 24.9423 34.288 28.3503 34.288ZM28.7103 32.032C26.5263 32.032 24.8223 30.256 24.8223 28.12C24.8223 25.96 26.5263 24.184 28.7103 24.184C30.9183 24.184 32.5983 25.96 32.5983 28.12C32.5983 30.256 30.9183 32.032 28.7103 32.032ZM39.7514 32.464C40.2074 33.688 41.1194 34.312 42.2234 34.312C43.3754 34.312 44.2154 33.688 44.6714 32.464L48.4874 22.24H45.9674L42.5114 31.816C42.4874 31.936 42.3914 32.056 42.2234 32.056C42.0794 32.056 41.9834 31.936 41.9594 31.816L38.5034 22.24H35.9594L39.7514 32.464ZM54.7071 34.288C56.6271 34.288 58.1871 33.376 59.0751 31.936V34H61.3311V28.096C61.3311 24.592 58.6191 21.952 55.0671 21.952C51.4911 21.952 48.8031 24.736 48.8031 28.096C48.8031 31.504 51.2991 34.288 54.7071 34.288ZM55.0671 32.032C52.8831 32.032 51.1791 30.256 51.1791 28.12C51.1791 25.96 52.8831 24.184 55.0671 24.184C57.2751 24.184 58.9551 25.96 58.9551 28.12C58.9551 30.256 57.2751 32.032 55.0671 32.032Z" fill="#12CE31"/>
<path d="M69.8466 24.232C72.1986 24.232 73.3986 26.128 73.3986 28.336V34H75.7746V28.048C75.7746 24.64 73.6866 21.952 69.8466 21.952C66.0546 21.952 64.0146 24.64 64.0146 28.072V34H66.3906V28.312C66.3906 26.128 67.5426 24.232 69.8466 24.232ZM83.9547 34.264C86.2587 34.264 88.1547 33.184 89.1867 31.168L87.3627 30.232C86.6667 31.528 85.3707 32.152 83.9307 32.152C81.8187 32.152 80.2827 30.736 80.0187 28.72H89.4267V27.76C89.4267 24.472 87.2187 21.904 83.6667 21.904C80.1387 21.904 77.7147 24.664 77.7147 28.048C77.7147 31.672 80.3787 34.264 83.9547 34.264ZM80.1147 27.184C80.3547 25.432 81.6507 24.04 83.6427 24.04C85.5867 24.04 86.9547 25.312 87.0507 27.184H80.1147ZM93.685 34L96.085 30.448C96.349 30.04 96.541 29.608 96.661 29.152H97.837C97.957 29.608 98.149 30.04 98.413 30.448L100.813 34H103.501L100.525 29.536C100.165 29.008 99.997 28.552 99.997 28.12C99.997 27.712 100.141 27.304 100.477 26.8L103.501 22.24H100.789L98.413 25.816C98.173 26.176 98.005 26.584 97.885 26.992H96.613C96.517 26.584 96.325 26.176 96.085 25.816L93.685 22.24H90.997L94.021 26.8C94.357 27.304 94.501 27.712 94.501 28.12C94.501 28.552 94.333 29.008 93.973 29.536L90.997 34H93.685Z" fill="white"/>
<path d="M47.603 19.6C47.723 18.856 48.275 18.184 49.187 18.184C50.747 18.184 52.091 19.408 54.059 19.408C55.931 19.408 57.203 17.8 57.323 15.928L54.851 15.28C54.731 16.048 54.179 16.696 53.267 16.696C51.827 16.696 50.339 15.496 48.395 15.496C46.523 15.496 45.275 17.08 45.131 18.952L47.603 19.6Z" fill="#12CE31"/>
</svg>
