<svg width="162" height="146" viewBox="0 0 162 146" fill="none" xmlns="http://www.w3.org/2000/svg">
<path d="M62.775 0C64.3862 0 65.9314 0.640042 67.0707 1.77933C68.21 2.91861 68.85 4.46381 68.85 6.075V16.2H85.05V6.075C85.05 4.46381 85.69 2.91861 86.8293 1.77933C87.9686 0.640042 89.5138 0 91.125 0C92.7362 0 94.2814 0.640042 95.4207 1.77933C96.56 2.91861 97.2 4.46381 97.2 6.075V16.2H119.475C120.688 16.2003 121.874 16.5638 122.878 17.2438C123.883 17.9237 124.661 18.889 125.113 20.0151L131.69 36.45H139.725C145.633 36.45 151.298 38.7968 155.476 42.9742C159.653 47.1516 162 52.8173 162 58.725V103.275C162 109.183 159.653 114.848 155.476 119.026C151.298 123.203 145.633 125.55 139.725 125.55H131.69L125.113 141.985C124.661 143.111 123.883 144.076 122.878 144.756C121.874 145.436 120.688 145.8 119.475 145.8H58.725C57.8925 145.8 57.0689 145.629 56.3054 145.297C55.5418 144.966 54.8545 144.481 54.2862 143.872L30.294 118.163C26.4438 114.039 24.3017 108.609 24.3 102.967V76.95H12.15V107.325C12.15 108.936 11.51 110.481 10.3707 111.621C9.23139 112.76 7.68619 113.4 6.075 113.4C4.46381 113.4 2.91861 112.76 1.77933 111.621C0.640042 110.481 3.39533e-08 108.936 0 107.325V38.475C3.39533e-08 36.8638 0.640042 35.3186 1.77933 34.1793C2.91861 33.04 4.46381 32.4 6.075 32.4C7.68619 32.4 9.23139 33.04 10.3707 34.1793C11.51 35.3186 12.15 36.8638 12.15 38.475V64.8H24.3V38.475C24.3 32.5673 26.6468 26.9016 30.8242 22.7242C35.0016 18.5468 40.6673 16.2 46.575 16.2H56.7V6.075C56.7 4.46381 57.34 2.91861 58.4793 1.77933C59.6186 0.640042 61.1638 0 62.775 0ZM68.85 54.675C68.85 53.0638 68.21 51.5186 67.0707 50.3793C65.9314 49.24 64.3862 48.6 62.775 48.6C61.1638 48.6 59.6186 49.24 58.4793 50.3793C57.34 51.5186 56.7 53.0638 56.7 54.675V74.925C56.7 80.8327 59.0468 86.4984 63.2242 90.6758C67.4016 94.8532 73.0673 97.2 78.975 97.2H131.625C133.236 97.2 134.781 96.56 135.921 95.4207C137.06 94.2814 137.7 92.7362 137.7 91.125C137.7 89.5138 137.06 87.9686 135.921 86.8293C134.781 85.69 133.236 85.05 131.625 85.05H97.2V54.675C97.2 53.0638 96.56 51.5186 95.4207 50.3793C94.2814 49.24 92.7362 48.6 91.125 48.6C89.5138 48.6 87.9686 49.24 86.8293 50.3793C85.69 51.5186 85.05 53.0638 85.05 54.675V85.05H78.975C73.386 85.05 68.85 80.514 68.85 74.925V54.675Z" fill="#353535"/>
</svg>
