<svg width="140" height="108" viewBox="0 0 140 108" fill="none" xmlns="http://www.w3.org/2000/svg">
<path d="M54.6234 0.158252C44.1674 0.685449 34.3556 1.76913 29.8745 2.8821C20.5021 5.28378 16.1966 10.2629 14.6443 20.5139C13.795 26.0495 14 40.4595 15.0837 51.2963C16.4602 65.0327 19.272 74.0537 23.3431 77.7733C27.6778 81.7273 34.3264 83.7482 45.3975 84.5097C62.6485 85.652 77.3515 85.652 93.8703 84.4804C102.276 83.8947 107.05 82.8988 111.326 80.8779C115.69 78.7984 117.858 76.5139 119.82 71.9156C122.661 65.2963 124.331 54.9867 125.092 39.2587C125.912 22.3591 124.389 13.6018 119.791 8.56411C115.222 3.55574 108.837 1.82771 89.7699 0.451139C84.2929 0.0410972 60.8619 -0.163924 54.6234 0.158252ZM85.9623 5.13733C92.5816 5.4888 93.7239 5.66453 93.7239 6.33817C93.7239 6.89465 89.4184 22.857 86.9582 31.4972C84.4393 40.1666 82.6234 44.3256 80.1925 46.7566C77.5565 49.3926 74.6862 50.1248 68.0962 49.8612C59.0753 49.5097 56.8787 46.7859 51.9874 30.0327C50.2301 24.0285 45.6318 6.98252 45.5732 6.33817C45.5439 5.72311 47.1548 5.45951 52.2803 5.16662C58.3724 4.84444 80.2803 4.81516 85.9623 5.13733ZM35.3515 7.24612C35.5272 7.48043 35.7322 11.3758 35.8201 16.5599C35.9079 21.4804 36.2008 28.1875 36.4351 31.4972C37.2259 41.9532 39.2176 62.4846 40.3013 71.5641C40.9163 76.5432 41.0042 77.8612 40.7113 78.2127C39.8033 79.2963 35.3515 78.1834 31.3389 75.8403C26.7113 73.175 25.4226 70.7733 23.6067 61.2252C21.8201 51.9407 21.2929 44.5014 21.4393 30.9114C21.5565 21.3633 21.6151 20.3089 22.2008 18.1708C23.8996 11.9616 26.5063 9.35491 32.8912 7.48043C35.1464 6.80679 35.0293 6.83608 35.3515 7.24612ZM107.255 7.77332C112.996 9.6185 115.192 11.7859 116.833 17.2921C117.77 20.3967 118.033 23.8528 118.033 32.5223C118.033 44.5599 117.243 53.9909 115.515 62.6311C114.197 69.2503 112.615 72.7064 110.126 74.5223C107.138 76.6604 102.364 78.652 100.138 78.652C98.2343 78.652 98.205 78.5348 99.0837 70.9491C99.9623 63.4219 100.372 59.4386 101.456 47.7524C102.979 31.8193 103.682 20.3089 103.682 12.1959C103.682 9.00344 103.799 7.48043 104.033 7.24612C104.473 6.80679 104.092 6.74821 107.255 7.77332ZM75.1255 61.4009C78.4351 62.016 80.2218 63.4511 81.6569 66.6436C82.682 68.8696 85.8159 78.4177 85.8159 79.2378C85.8159 79.6478 85.5523 79.8528 84.8787 79.97C83.2092 80.2629 53.9498 79.9993 53.6276 79.6771C53.4519 79.4721 53.8619 77.7147 54.887 74.5516C57.0251 67.7859 57.9331 65.6185 59.251 64.1248C60.6276 62.5725 61.682 61.9574 63.8494 61.4888C65.8996 61.0202 72.8703 60.9909 75.1255 61.4009Z" fill="#353535"/>
<path d="M37.0795 91.7147C32.1883 92.7691 29.5816 95.3758 29.5816 99.154C29.5816 102.991 31.7197 105.393 36.318 106.652C39.3055 107.472 46.0126 107.413 48.9121 106.505C51.8703 105.627 53.7448 104.221 54.6527 102.288C56.4686 98.3632 54.5649 94.0578 50.2887 92.4762C46.9205 91.2168 41.0628 90.8653 37.0795 91.7147ZM46.2176 94.9365C47.4184 95.8444 48.0335 97.2795 48.0335 99.3005C48.0335 101.644 47.3598 102.932 45.6904 103.782C44.5481 104.367 44.0502 104.455 42 104.367C38.6611 104.192 37.4017 103.254 36.8745 100.531C36.4059 97.8946 37.4017 95.4929 39.3933 94.585C40.7406 93.9406 45.1632 94.1749 46.2176 94.9365Z" fill="#353535"/>
<path d="M0 92.8276C0 93.7941 0.0292887 93.8234 1.43515 93.9992C2.3431 94.1163 2.92887 94.3506 3.04603 94.6435C3.30962 95.3464 3.25105 103.635 2.95816 104.104C2.81172 104.309 2.10879 104.572 1.34728 104.631C0.0292887 104.777 0 104.836 0 105.773V106.769H6.29707H12.5941V105.744C12.5941 104.807 12.5356 104.719 11.6862 104.719C10.046 104.719 9.66527 104.309 9.66527 102.434V100.765L14.41 100.823L19.1841 100.882L19.272 101.966C19.4477 103.957 19.2134 104.338 17.5732 104.572C16.1381 104.777 16.1088 104.807 16.1088 105.773V106.769L22.4644 106.71L28.8201 106.623V105.744C28.8201 104.953 28.7029 104.865 27.3849 104.572L25.9205 104.28L25.8326 99.4762C25.8034 96.8109 25.8619 94.5557 26.0084 94.4092C26.1548 94.2628 26.8285 94.0577 27.5314 93.9406C28.7029 93.7356 28.8201 93.6477 28.8201 92.8569V91.9782L22.4644 91.8904L16.1088 91.8318V92.8276C16.1088 93.7941 16.1381 93.8234 17.5439 93.9992C19.1548 94.2042 19.3305 94.4385 19.3305 96.4008V97.6895H14.4979H9.63598L9.72385 95.9908L9.81172 94.3213L11.2176 94.0577C12.5356 93.7941 12.5941 93.7356 12.5941 92.7983V91.8318H6.29707H0V92.8276Z" fill="#353535"/>
<path d="M56 92.769C56.0879 93.6477 56.205 93.7356 57.5523 94.0285L59.0167 94.3213L59.1046 99.1247C59.1339 101.79 59.0753 104.045 58.9289 104.192C58.7824 104.338 58.1088 104.543 57.3766 104.66C56.205 104.865 56.0879 104.953 56 105.832L55.9121 106.769H61.0377H66.1925V105.744C66.1925 104.777 66.1339 104.719 65.1967 104.719C64.6402 104.719 63.9372 104.485 63.5858 104.192C62.9707 103.723 62.9414 103.489 63.0293 99.7398L63.1172 95.7858L66.749 100.326C68.7406 102.815 70.7908 105.305 71.2594 105.803L72.1674 106.769H76.5021H80.8368V100.648C80.8368 96.928 80.954 94.4385 81.1297 94.3213C81.2762 94.2335 81.9791 94.0577 82.6527 93.9406C83.795 93.7356 83.9121 93.6477 84 92.769L84.0879 91.8318H78.9623H73.8075V92.8276C73.8075 93.7649 73.8661 93.8234 75.0084 93.9699C76.9707 94.2335 77.0586 94.4092 76.9707 98.8904L76.8829 102.815L72.6653 97.5431C70.3222 94.6435 68.3013 92.1833 68.1255 92.0661C67.9498 91.949 65.1381 91.8318 61.8577 91.8318H55.9121L56 92.769Z" fill="#353535"/>
<path d="M85.2301 92.8569C85.2301 93.7941 85.2887 93.882 86.1381 93.882C88.1297 93.882 88.159 93.9699 88.159 99.3004C88.159 104.631 88.1297 104.719 86.1381 104.719C85.2887 104.719 85.2301 104.807 85.2301 105.744V106.769H94.2511C101.456 106.769 103.623 106.681 105 106.3C108.603 105.363 110.418 103.664 111.063 100.531C111.707 97.5431 110.536 94.9657 107.9 93.4134C105.527 92.0075 104.033 91.8318 94.2511 91.8318H85.2301V92.8569ZM102.862 95.8736C103.799 96.7816 103.828 96.8987 103.828 99.2711C103.828 101.321 103.741 101.849 103.243 102.376C102.218 103.518 100.987 103.84 97.5314 103.84H94.3096V99.2711V94.7021L98.1172 94.8193L101.925 94.9071L102.862 95.8736Z" fill="#353535"/>
<path d="M115.398 92.8276C115.398 93.8234 115.398 93.8527 117.038 94.0577C117.946 94.1456 118.736 94.4092 118.824 94.6142C119 95.1121 113.025 104.28 112.351 104.514C112.059 104.631 111.444 104.719 110.975 104.719C110.184 104.719 110.126 104.807 110.126 105.744V106.769H115.105H120.084V105.803C120.084 104.895 119.996 104.807 118.854 104.543C117.389 104.221 117.243 103.899 118.063 102.844L118.678 102.083L123.364 102.141L128.08 102.229L128.665 103.049C129.427 104.016 129.134 104.397 127.435 104.631C126.293 104.777 126.234 104.836 126.234 105.773V106.769H133.117H140V105.773C140 104.807 139.971 104.777 138.536 104.572L137.042 104.367L133.967 99.9448C132.268 97.4845 130.305 94.6728 129.603 93.6477L128.285 91.8318H121.841H115.398V92.8276ZM124.828 97.2795L126.205 99.4469H123.276H120.318L120.845 98.6268C121.109 98.1875 121.753 97.2209 122.251 96.4594C122.749 95.6979 123.218 95.0829 123.305 95.0829C123.393 95.0829 124.067 96.0787 124.828 97.2795Z" fill="#353535"/>
</svg>
