<svg width="29" height="37" viewBox="0 0 29 37" fill="none" xmlns="http://www.w3.org/2000/svg">
<path d="M14.5 7.92888C13.1964 7.92888 11.9222 8.3164 10.8383 9.04243C9.75442 9.76846 8.90965 10.8004 8.4108 12.0077C7.91194 13.2151 7.78142 14.5436 8.03573 15.8253C8.29005 17.107 8.91777 18.2844 9.83952 19.2084C10.7613 20.1325 11.9357 20.7618 13.2142 21.0167C14.4927 21.2717 15.8179 21.1408 17.0222 20.6407C18.2266 20.1406 19.2559 19.2937 19.9801 18.2072C20.7044 17.1206 21.0909 15.8431 21.0909 14.5363C21.0866 12.7852 20.3908 11.1071 19.1557 9.86896C17.9206 8.63078 16.2467 7.93324 14.5 7.92888ZM14.5 18.5007C13.7179 18.5007 12.9533 18.2682 12.303 17.8326C11.6527 17.397 11.1458 16.7778 10.8465 16.0534C10.5472 15.329 10.4689 14.5319 10.6214 13.7629C10.774 12.9938 11.1507 12.2874 11.7037 11.733C12.2568 11.1786 12.9614 10.801 13.7285 10.648C14.4956 10.495 15.2907 10.5736 16.0133 10.8736C16.7359 11.1737 17.3536 11.6818 17.7881 12.3338C18.2226 12.9857 18.4545 13.7522 18.4545 14.5363C18.4502 15.5864 18.0322 16.5922 17.2915 17.3348C16.5508 18.0773 15.5475 18.4964 14.5 18.5007ZM14.5 0C10.6557 0.00437201 6.9701 1.53727 4.25177 4.26241C1.53344 6.98754 0.00436109 10.6824 0 14.5363C0 19.7231 2.3892 25.2237 6.92045 30.4271C8.9573 32.784 11.2447 34.911 13.742 36.7702C13.9666 36.92 14.2303 37 14.5 37C14.7697 37 15.0334 36.92 15.258 36.7702C17.7626 34.9137 20.0557 32.7866 22.096 30.4271C26.6108 25.2237 29 19.7231 29 14.5363C28.9956 10.6824 27.4666 6.98754 24.7482 4.26241C22.0299 1.53727 18.3443 0.00437201 14.5 0ZM14.5 34.0281C11.7813 31.8807 2.63636 23.9849 2.63636 14.5363C2.63636 11.382 3.88628 8.35686 6.11114 6.12643C8.33601 3.896 11.3536 2.64296 14.5 2.64296C17.6464 2.64296 20.664 3.896 22.8889 6.12643C25.1137 8.35686 26.3636 11.382 26.3636 14.5363C26.3636 23.9849 17.2188 31.8807 14.5 34.0281Z" fill="#353535"/>
</svg>
