<svg width="140" height="143" viewBox="0 0 140 143" fill="none" xmlns="http://www.w3.org/2000/svg">
<path d="M66.1947 0.0185171C60.5181 0.203517 57.1686 0.446938 52.9039 0.982465C41.4144 2.42352 32.106 5.3251 24.1412 9.9501C21.8141 11.3035 18.8736 13.4359 16.8289 15.2469C15.6118 16.3277 13.1094 18.8398 12.8562 19.2196C12.7004 19.4533 12.7102 19.4727 13.0315 19.7162C13.2165 19.8525 13.9662 20.5438 14.6965 21.2448C18.6886 25.0519 22.4276 27.8367 23.8589 28.0704C24.6281 28.1872 24.8033 28.0801 25.5239 27.0383C29.107 21.8485 34.2773 17.7006 40.5868 14.9548C46.8476 12.2188 54.6662 10.6317 64.1012 10.174C67.2268 10.028 75.9899 10.1156 78.5313 10.3201C90.5465 11.3035 98.6768 13.7475 105.775 18.4893C108.725 20.4659 112.62 24.2925 114.343 26.9117C114.509 27.1551 114.674 27.3109 114.743 27.2817C114.82 27.2525 115.609 26.678 116.505 25.9867C117.41 25.3051 118.774 24.273 119.543 23.6888C120.312 23.1046 121.597 22.1212 122.415 21.5077C123.223 20.8846 124.44 19.9596 125.132 19.4533C125.813 18.9469 126.368 18.4796 126.368 18.4114C126.368 18.314 124.148 16.0843 123.301 15.3443C118.384 11.0211 112.386 7.60352 105.288 5.08168C97.6641 2.37483 87.8007 0.622201 77.5381 0.154833C75.2694 0.0477276 67.9181 -0.039904 66.1947 0.0185171ZM79.242 1.26483C92.3673 2.16062 102.581 4.51694 111.179 8.64536C115.969 10.9433 119.854 13.5722 123.477 16.9411C124.567 17.9538 124.801 18.2167 124.694 18.314C124.538 18.4601 119.854 21.3812 119.786 21.3812C119.757 21.3812 119.222 20.9527 118.598 20.4269C117.44 19.463 115.687 18.0901 114.889 17.5059C111.89 15.3735 109.738 14.059 106.749 12.5109C100.059 9.07378 93.1268 7.02904 84.4999 5.95799C80.5565 5.46141 75.7368 5.21799 70.0894 5.21799C62.7478 5.21799 57.4023 5.59773 51.9789 6.49352C39.5255 8.54799 29.2823 13.4359 20.3341 21.6148C19.8278 22.0725 19.3799 22.4522 19.341 22.4522C19.2631 22.4522 18.8736 22.2185 16.8776 20.9917C16.0791 20.4951 15.1541 19.9401 14.8328 19.7454C14.5115 19.5604 14.2291 19.3948 14.2097 19.3754C14.0733 19.2683 17.0139 16.4056 18.6302 15.0814C26.2639 8.82062 35.8449 4.86747 48.8631 2.59878C52.8065 1.90746 58.8044 1.31352 63.6631 1.12852C66.7691 1.00194 76.691 1.09931 79.242 1.26483Z" fill="#353535"/>
<path d="M125.521 20.4278C121.636 24.4783 117.498 27.487 111.802 30.4081C108.647 32.0244 107.187 32.667 99.6408 35.812C89.2224 40.1547 83.9645 43.3873 78.9013 48.5576C75.5713 51.9557 72.9229 55.7433 70.5179 60.5436C70.1771 61.2349 69.8753 61.7899 69.8558 61.7899C69.8266 61.7899 69.5637 61.3226 69.2521 60.7383C68.1032 58.606 66.6037 56.2594 65.1432 54.2926C60.8492 48.5478 55.9613 44.4778 49.0871 40.9336C46.1271 39.4049 44.0532 38.4994 37.6171 35.9386C35.3679 35.0428 32.8266 34.0107 31.9697 33.6504C23.7518 30.1647 18.4647 26.7568 13.5087 21.7423L11.98 20.2039L10.87 21.6936C8.96158 24.2447 7.8029 26.1531 6.38132 29.0741C3.33368 35.3447 1.60052 42.4623 1.05526 51.0307C0.928682 53.0365 0.928682 58.6741 1.05526 60.6702C1.90237 73.8636 5.69974 84.1555 12.72 92.2663C14.015 93.7657 16.605 96.2778 18.0947 97.4852C23.8882 102.169 30.5384 105.489 38.9024 107.884C46.0979 109.939 53.975 111.117 63.4684 111.545C66.2824 111.672 73.7992 111.672 76.5645 111.545C86.165 111.107 94.0616 109.919 101.423 107.797C115.658 103.697 125.852 96.2778 132.162 85.4115C132.902 84.136 134.411 81.0202 134.986 79.5597C136.086 76.7749 137.235 72.8218 137.848 69.6768C138.695 65.3828 139.211 58.8689 139.075 54.2439C138.715 41.7223 136.135 32.2873 130.799 24.011C130.176 23.0373 128.131 20.311 128.033 20.311C127.995 20.311 127.8 20.457 127.615 20.6226L127.264 20.9439L127.157 22.6089C126.992 25.0041 126.661 27.7889 126.018 31.9854L125.775 33.5726L126.407 35.1012C128.988 41.3426 130.361 49.0249 130.361 57.1649C130.361 60.7383 130.146 63.3381 129.572 66.8434C128.735 71.9455 126.846 77.4468 124.596 81.3415C124.343 81.7894 124.129 82.1789 124.129 82.2081C124.129 82.3347 122.016 85.4212 121.335 86.2878C119.007 89.2478 116.437 91.7794 113.467 94.0189C105.61 99.9389 94.7432 103.882 81.8711 105.499C73.5461 106.55 68.2298 106.677 60.3526 106.044C36.6726 104.116 21.2982 95.5963 13.7716 80.2412C13.3237 79.326 12.8174 78.2355 12.6421 77.807C12.3792 77.1547 12.2624 76.9794 11.9703 76.8139C11.3666 76.4634 9.78921 75.0807 9.07842 74.2823C6.70263 71.6144 5.14474 68.8686 2.73974 63.1044C2.04842 61.4589 2.01921 61.0889 2.00947 55.9478C2.00947 51.4202 2.16526 48.9957 2.71053 45.1399C3.88868 36.8636 6.8 29.0936 10.7824 23.6215L11.5224 22.5991L11.6392 23.4268C12.3889 28.5776 12.9439 31.1578 13.5671 32.3847C14.1221 33.4752 17.8221 36.0165 21.9408 38.1391C25.4461 39.9404 27.1597 40.661 36.9842 44.4778C43.1087 46.8536 47.6363 48.9373 51.3948 51.1086C52.9526 52.0044 55.679 53.8349 57.0908 54.9352C62.1442 58.8689 66.1363 63.5815 69.1158 69.1412C69.3982 69.6768 69.6903 70.1928 69.7584 70.2902C69.8558 70.446 69.9629 70.3097 70.5861 69.1218C74.88 60.9915 80.1574 55.052 87.2069 50.4368C91.2574 47.7883 96.2913 45.3833 103.195 42.8031C111.51 39.697 113.944 38.7039 117.08 37.107C119.864 35.6854 121.899 34.4197 123.798 32.9104L124.684 32.2094L124.791 31.3428C124.85 30.8754 124.957 29.9991 125.015 29.4149C125.083 28.821 125.356 26.4257 125.638 24.0791C125.911 21.7423 126.125 19.8241 126.125 19.8241C126.115 19.8241 125.843 20.0968 125.521 20.4278Z" fill="#353535"/>
<path d="M123.389 35.3731C120.711 37.2328 119.231 38.1091 115.999 39.7352C111.861 41.8189 107.8 43.5326 99.3487 46.7652C90.5174 50.1536 85.6782 53.0649 80.8974 57.8847C77.3726 61.4386 74.4224 65.7033 71.0729 72.081C70.4789 73.2202 69.9921 74.1939 69.9921 74.2523C69.9921 74.5541 69.7487 74.2426 69.3203 73.3955C68.2882 71.3507 66.7303 68.6439 65.4645 66.7062C63.6437 63.941 62.0566 61.9547 59.9145 59.7541C56.896 56.6578 54.2476 54.6228 50.3042 52.3347C49.0287 51.5947 45.6987 49.9297 44.4816 49.4233C43.4689 48.9949 39.4671 47.4078 37.7631 46.7554C34.9005 45.6649 34.4526 45.4897 32.2131 44.6036C24.8131 41.6631 19.8084 39.1315 16.2252 36.522C15.8942 36.2786 15.6118 36.0936 15.6021 36.1131C15.5826 36.1228 15.7968 36.746 16.0597 37.4957C16.3324 38.2454 16.7413 39.3847 16.975 40.0273C17.1989 40.6699 17.5495 41.6144 17.7345 42.1207C17.9195 42.627 18.3284 43.737 18.6302 44.5744C18.9905 45.5481 19.2437 46.1128 19.3508 46.142C19.4384 46.1712 22.8366 47.3202 26.9066 48.6931C30.9766 50.066 35.845 51.7115 37.7145 52.3444C46.76 55.392 46.8184 55.4115 49.4863 56.7455C51.9497 57.982 54.4326 59.5302 56.3216 61.0102C61.4237 65.0218 65.4255 70.2991 69.2132 78.0302L69.8461 79.3252L70.9366 77.1539C76.4379 66.2291 82.2703 59.8905 90.7024 55.6744C92.7179 54.6618 93.6916 54.2528 96.8658 53.1233C98.5503 52.5197 100.478 51.8283 101.15 51.5947C101.822 51.3512 103.029 50.9228 103.828 50.6404C104.636 50.3483 106.096 49.8226 107.089 49.472C108.083 49.1118 109.553 48.586 110.351 48.3036C112.659 47.4857 116.963 45.9473 118.238 45.4799C118.881 45.256 119.572 45.0126 119.767 44.9444C119.962 44.886 120.166 44.7886 120.215 44.7204C120.302 44.6133 120.702 43.5812 122.532 38.6154C122.883 37.6807 123.321 36.522 123.506 36.0449C123.681 35.5678 123.817 35.1589 123.808 35.1394C123.788 35.1199 123.593 35.227 123.389 35.3731Z" fill="#353535"/>
<path d="M12.5642 36.8339C11.2594 41.1473 10.3734 45.8989 9.89627 51.1762C9.72101 53.1528 9.75022 58.8391 9.94496 60.806C10.7921 68.9849 13.0413 75.4697 16.975 81.0197C17.5884 81.8765 17.715 82.0031 18.1921 82.2076C20.4023 83.152 22.0673 84.2913 24.7158 86.667C26.6729 88.4294 26.965 88.6728 27.8121 89.2473C28.1529 89.4713 28.6592 89.8997 28.9318 90.1918C29.4868 90.7663 31.181 92.2268 32.2521 93.0349C34.9005 95.0407 38.6979 97.1147 42.1934 98.4486C44.6568 99.3931 48.7365 100.552 51.1026 100.98C55.8931 101.847 57.1589 102.003 62.3973 102.412C64.5979 102.587 75.3863 102.587 77.5868 102.412C80.9363 102.149 82.6597 101.983 84.3052 101.749C94.0908 100.377 101.734 97.5431 107.654 93.1031C110.702 90.8149 113.526 87.8647 115.541 84.856C116.008 84.1549 116.349 83.746 116.602 83.5902C117.255 83.2007 118.793 81.9349 119.66 81.0684C120.994 79.7441 122.162 78.2544 123.194 76.5699C126.164 71.721 128.004 65.207 128.423 58.0699C128.549 56.0155 128.491 51.556 128.316 49.7157C127.887 45.1978 126.962 41.0207 125.492 36.9799C125.385 36.6976 125.2 36.5515 125.2 36.756C125.2 36.8047 124.567 38.1289 123.798 39.6965C123.029 41.2739 122.133 43.1239 121.812 43.8055L121.218 45.0518L121.403 46.3857C121.831 49.4431 121.938 51.332 121.938 55.8012C121.938 60.1634 121.88 61.3026 121.49 64.5157C120.215 75.1581 116.554 83.376 110.439 89.3447C108.55 91.1947 107.012 92.4118 104.85 93.7944C98.6476 97.7573 90.4589 100.25 80.7513 101.117C76.7494 101.477 74.9676 101.555 70.0408 101.555C62.5726 101.555 58.0158 101.194 52.4658 100.192C41.765 98.2442 33.5276 94.0378 27.9484 87.6505C24.745 83.9991 22.5834 80.1823 20.8502 75.1289C18.3965 67.982 17.4229 57.7778 18.3479 48.9757L18.5036 47.5152L15.6702 41.8483C14.1026 38.7326 12.8173 36.1815 12.7979 36.1815C12.7784 36.1815 12.6713 36.4736 12.5642 36.8339Z" fill="#353535"/>
<path d="M0.0328618 118.575C0.00365132 118.643 -0.00608553 124.115 0.00365132 130.726L0.0328618 142.751H4.12234H8.21181L8.23128 134.28L8.2605 125.809L11.2789 125.78L14.2973 125.76V134.28V142.8H18.2894H22.2816V134.27V125.751L24.5016 125.78C26.5658 125.809 26.741 125.819 27.1208 126.023C27.6076 126.286 28.0944 126.861 28.221 127.318C28.2794 127.523 28.3184 130.619 28.3184 135.234V142.8L32.4858 142.78L36.6434 142.751L36.6921 140.667L36.7408 138.594L37.2179 139.334C38.0358 140.609 39.3502 141.69 40.7718 142.274C42.0766 142.8 42.096 142.8 54.3839 142.8H65.7274L66.0292 142.586C66.2045 142.459 67.11 141.748 68.0447 141.008C69.7876 139.616 70.255 139.246 73.2052 136.909C75.4934 135.108 76.8955 133.988 77.6355 133.404C77.9666 133.131 79.1545 132.196 80.2742 131.31C81.3842 130.424 83.0102 129.149 83.8671 128.467C84.7239 127.786 85.7463 126.968 86.1358 126.666C86.535 126.354 87.1874 125.829 87.5963 125.497C88.0053 125.166 88.3753 124.923 88.4142 124.942C88.4629 124.972 88.4921 129.003 88.4921 133.9V142.8H98.0634C107.041 142.8 107.683 142.79 108.511 142.615C109.533 142.401 110.079 142.177 111.033 141.583C112.357 140.755 113.642 139.158 114.11 137.766C114.295 137.201 114.489 137.026 114.489 137.425C114.489 137.513 114.713 138.048 114.996 138.613C115.434 139.509 115.609 139.752 116.427 140.56C117.216 141.349 117.508 141.563 118.287 141.953C120.001 142.8 119.124 142.741 130.195 142.78L140 142.81V134.241C140 125.108 139.99 124.923 139.513 123.647C138.666 121.379 136.933 119.743 134.499 118.925L133.817 118.701L124.84 118.672L115.853 118.643V121.914V125.176H122.844C129.27 125.176 129.854 125.186 130.068 125.342C130.458 125.605 130.546 125.78 130.555 126.228C130.555 126.754 130.438 126.977 130.068 127.172C129.825 127.299 129.134 127.318 125.541 127.318C121.062 127.318 120.409 127.367 119.231 127.766C117.878 128.224 116.32 129.382 115.541 130.512C115.385 130.746 115.239 130.921 115.22 130.901C115.2 130.882 115.132 130.035 115.074 129.022C115.015 128 114.898 126.715 114.821 126.15C114.645 125.001 114.129 123.316 113.74 122.645C112.639 120.756 110.828 119.441 108.492 118.847C107.761 118.662 107.343 118.652 96.0381 118.652H84.3442L82.2995 120.279C81.17 121.184 79.0279 122.888 77.5284 124.086C76.0387 125.274 73.546 127.26 71.9881 128.496C70.44 129.733 67.9474 131.719 66.4576 132.907C64.9581 134.085 63.41 135.332 63.001 135.663L62.2513 136.266L62.1929 130.746C62.1442 125.517 62.1345 125.186 61.9397 124.485C61.2387 121.982 59.6321 120.113 57.3342 119.13C55.9613 118.545 56.0976 118.555 46.5652 118.555H37.8605V121.866V125.176H45.5039H53.1376L53.4881 125.478C53.79 125.751 53.8289 125.829 53.8289 126.267C53.8289 126.666 53.7802 126.792 53.5563 127.026L53.2739 127.299L47.9771 127.338C41.9597 127.386 41.9695 127.386 40.246 128.234C38.9608 128.866 38.0066 129.733 37.1205 131.077L36.7018 131.719L36.6726 128.419C36.6239 124.67 36.585 124.368 35.8644 122.888C34.881 120.853 33.0602 119.363 30.7818 118.721L30.0223 118.516L15.0471 118.477C2.88576 118.458 0.0718092 118.477 0.0328618 118.575ZM104.11 125.809C105.454 126.043 105.824 126.296 106.252 127.221C106.651 128.107 106.827 129.382 106.768 131.018C106.671 133.501 106.135 134.806 105.016 135.312C104.519 135.546 104.47 135.546 100.595 135.575L96.671 135.604V130.639V125.663H99.9718C102.484 125.663 103.467 125.702 104.11 125.809ZM54.0237 134.67V136.276H49.8855C45.28 136.276 45.4066 136.296 44.9002 135.624C44.6763 135.332 44.6276 135.176 44.6276 134.718C44.6276 134.046 44.9295 133.55 45.5039 133.258C45.8739 133.073 46.0979 133.063 49.9634 133.063H54.0237V134.67ZM131.899 134.689L131.87 136.325L128.364 136.354C124.382 136.383 123.788 136.354 123.331 136.052C122.591 135.556 122.386 134.514 122.892 133.764C123.35 133.063 123.301 133.063 127.858 133.063H131.918L131.899 134.689Z" fill="#353535"/>
<path d="M63.6631 122.06V125.565H68.0544H72.4555L73.6141 124.611C74.2568 124.095 75.0747 123.423 75.4349 123.131C77.947 121.086 79.8652 119.509 80.391 119.071L81.0044 118.555H72.3386H63.6631V122.06Z" fill="#353535"/>
<path d="M77.9666 136.159C77.5673 136.461 76.5839 137.22 75.7952 137.834C74.3834 138.934 73.916 139.284 72.7573 140.17C71.9589 140.784 71.0729 141.475 70.1576 142.186L69.3884 142.799H78.0639H86.7395V139.197V135.594H82.7279H78.7066L77.9666 136.159Z" fill="#353535"/>
</svg>
