<svg width="140" height="139" viewBox="0 0 140 139" fill="none" xmlns="http://www.w3.org/2000/svg">
<path d="M66.459 0.0380431C59.7177 0.410838 53.7032 1.54165 47.5397 3.60445C41.5501 5.61133 36.2689 8.18983 31.0124 11.6879C26.7999 14.4901 23.395 17.2985 19.8286 20.9208C16.4859 24.3194 13.8887 27.5317 11.273 31.5082C2.475 44.8791 -1.33994 60.7663 0.418411 76.7717C1.92202 90.4967 7.62578 103.557 16.7158 114.082C19.4682 117.263 22.637 120.327 25.8741 122.924C40.0217 134.282 57.8288 139.687 76.0461 138.159C89.156 137.059 101.651 132.306 112.22 124.409C116.855 120.942 121.167 116.773 124.833 112.218C131.071 104.47 135.563 95.4363 137.967 85.8119C140.788 74.51 140.67 62.475 137.632 51.2663C136.917 48.6256 135.973 45.8235 134.966 43.3444C126.485 22.5549 108.262 7.01552 86.2793 1.85231C82.4768 0.957604 79.0906 0.441904 74.9091 0.125029C73.4241 0.0131901 67.9564 -0.0427292 66.459 0.0380431ZM74.7227 1.77154C79.7554 2.14433 83.9369 2.83401 88.3856 4.02074C98.5877 6.74835 107.926 11.7811 115.823 18.8083C117.022 19.8707 119.408 22.2256 120.539 23.462C128.722 32.3904 134.295 43.2885 136.731 55.1123C137.042 56.6345 137.116 57.1502 137.054 57.3304C137.01 57.4423 136.979 57.4174 136.83 57.0881C136.743 56.8768 136.389 55.8889 136.054 54.8886C132.99 45.7676 130.014 39.6351 125.963 34.0929C123.261 30.3898 118.799 25.27 115.854 22.4803C111.132 18.013 105.919 14.3347 99.9919 11.284C89.0256 5.64861 77.0526 3.16952 65.2785 4.10772C56.4868 4.80982 48.2915 7.09008 40.5809 10.9734C30.7391 15.9315 22.345 23.1638 15.995 32.1605C8.42108 42.8908 4.18985 55.6777 3.89783 68.6944C3.72386 76.6598 4.76147 84.7557 6.87398 91.8388C7.90538 95.2934 9.28472 98.4746 12.7828 105.477C14.4728 108.857 14.8207 109.64 14.6468 109.64C14.2926 109.64 11.186 104.222 8.74416 99.3382C7.54501 96.9399 7.11629 95.983 6.33342 93.8892C3.68037 86.8185 2.25132 80.6798 1.70455 74.0068C1.59893 72.702 1.59893 67.371 1.70455 65.9295C1.97794 62.2202 2.34452 59.4802 2.99691 56.3114C7.00445 36.7832 19.4558 19.8707 36.9772 10.1656C45.9988 5.16397 55.8344 2.34937 66.4901 1.72183C67.6893 1.64727 73.5483 1.68455 74.7227 1.77154ZM70.1186 6.47497C70.1746 6.59923 70.2305 14.0613 70.3547 37.3113C70.4417 54.1803 70.5225 67.9861 70.5349 67.9986C70.5411 68.011 72.0385 67.1473 73.8652 66.0787C75.6857 65.01 77.9038 63.7114 78.7923 63.1957C79.9356 62.5247 80.414 62.214 80.4264 62.127C80.4388 62.0587 78.3201 49.6446 75.7168 34.5278C73.1196 19.4172 70.9947 6.99688 70.9947 6.93475C70.9947 6.83534 71.032 6.8167 71.1687 6.84155C71.2619 6.85398 71.79 6.88504 72.343 6.90368C72.896 6.92232 73.859 6.97824 74.4865 7.02795C85.5399 7.94751 96.0465 11.6195 105.261 17.7769C114.674 24.0709 122.167 32.5955 127.063 42.5677C132.326 53.2794 134.289 65.2461 132.717 76.9581C131.735 84.3021 129.418 91.7829 126.1 98.3006C125.361 99.7545 124.969 100.475 124.919 100.475C124.907 100.475 116.867 93.7898 107.063 85.6256C97.2581 77.4551 87.4474 69.2847 85.2603 67.4704L81.2901 64.1588L80.8738 64.3949C78.9539 65.4698 77.0961 66.5571 77.1334 66.5882C77.1582 66.613 87.7705 74.3112 100.713 83.6994C113.661 93.0877 124.348 100.873 124.466 100.991C124.833 101.37 124.702 101.519 124.168 101.345C123.869 101.246 121.353 99.8166 111.319 94.0134C110.654 93.6282 107.087 91.5716 103.397 89.4467C99.7061 87.3218 95.8042 85.0664 94.7293 84.445C91.6972 82.6929 90.2496 81.8603 84.6017 78.6046C79.19 75.4917 78.1213 74.8704 76.8973 74.1621C76.5059 73.9322 75.4123 73.3047 74.4741 72.7641C73.5359 72.2236 72.3678 71.5463 71.877 71.2605C71.3861 70.9747 70.9636 70.7448 70.9264 70.7448C70.8891 70.7448 70.8767 72.8263 70.8829 76.4113L70.9015 82.084L72.1752 82.5686C77.2577 84.5134 123.118 102.029 123.515 102.184L123.695 102.246L123.553 102.482C123.478 102.606 122.993 103.352 122.471 104.141C114.929 115.517 103.658 124.117 90.5292 128.503C85.2603 130.262 80.2587 131.243 74.1635 131.709C72.7593 131.821 66.9126 131.815 65.4649 131.709C59.4318 131.256 54.2873 130.243 49.0619 128.478C36.07 124.092 25.0291 115.604 17.4676 104.203C16.4672 102.693 16.2063 102.271 16.256 102.227C16.2746 102.215 17.1134 101.886 18.12 101.5C20.22 100.705 22.3822 99.8787 30.1426 96.915C36.536 94.4732 42.2833 92.2799 49.2173 89.6331C51.92 88.6017 55.6231 87.1913 57.4498 86.4892C59.2765 85.7933 62.6317 84.5134 64.9057 83.6435L69.0375 82.0654L69.0562 76.3678L69.0686 70.6703L68.8698 70.7945C67.8757 71.391 14.1124 102.42 13.9136 102.507C13.7707 102.569 13.547 102.625 13.4165 102.637C13.1183 102.656 13.081 102.519 13.3047 102.258C13.4911 102.035 13.0313 102.37 21.9411 95.9706C23.7181 94.6969 25.6069 93.3424 26.135 92.9572C26.6632 92.5782 28.0052 91.6089 29.1174 90.8136C30.2296 90.0183 31.5716 89.0491 32.0998 88.67C32.6279 88.291 34.5167 86.9303 36.2937 85.6566C38.0707 84.3829 39.9595 83.0284 40.4877 82.6432C41.662 81.7982 44.1535 80.0088 49.4347 76.2125C62.9485 66.5074 62.8678 66.5633 62.7808 66.4887C62.6876 66.408 58.767 64.1588 58.7173 64.1588C58.6925 64.1588 58.3818 64.4073 58.0152 64.7055C57.6549 65.01 54.921 67.284 51.9449 69.7569C48.9687 72.2298 43.9919 76.3678 40.8915 78.9463C37.7849 81.5248 33.9016 84.7557 32.2613 86.1226C30.6148 87.4895 27.0484 90.4532 24.3332 92.7149C21.618 94.9703 18.4182 97.6358 17.219 98.6299L15.0444 100.438L14.9388 100.301C14.7586 100.071 12.9381 96.3869 12.4473 95.2561C9.53325 88.5768 7.67549 81.6491 7.00445 74.9698C6.76835 72.6647 6.72486 71.7203 6.72486 69.1915C6.72486 64.718 7.07901 61.0956 7.93644 56.8023C9.51461 48.8804 12.6461 41.3189 17.1258 34.5837C20.7047 29.2093 25.2093 24.307 30.2047 20.3429C39.2077 13.2101 49.8013 8.77387 61.2399 7.34482C63.4208 7.07144 66.2291 6.87262 67.9067 6.87262C68.7579 6.87262 68.7579 6.87262 68.7269 7.00931C68.5902 7.59957 59.8171 62.4501 59.8543 62.4812C59.9848 62.5992 63.924 64.8484 63.9551 64.8174C63.9737 64.805 65.2537 51.7199 66.8008 35.7456C68.9816 13.2412 69.6402 6.66137 69.7148 6.50604C69.839 6.26993 70.0192 6.25751 70.1186 6.47497ZM128.784 41.5488C129.455 42.7044 131.344 46.5939 132.226 48.6567C132.866 50.1479 134.507 54.5096 135.041 56.1561C136.103 59.387 136.669 62.1084 136.992 65.5568C137.104 66.7373 137.104 72.1242 136.992 73.6029C136.321 82.5376 134.183 90.4843 130.369 98.2385C127.032 105.017 122.838 110.87 117.501 116.195C104.173 129.485 86.1053 136.5 67.1425 135.735C51.1682 135.095 36.915 129.497 25.8244 119.519C24.619 118.438 22.2393 116.039 21.2204 114.89C18.7848 112.144 16.6474 109.23 14.8083 106.148C14.0876 104.943 13.2736 103.47 13.2736 103.377C13.2736 103.315 14.684 102.768 14.7275 102.811C14.7399 102.824 15.1003 103.352 15.5228 103.986C17.3992 106.788 19.3067 109.13 23.5814 113.865C25.5199 116.008 25.8741 116.375 26.7564 117.183C30.2606 120.389 34.8087 123.421 40.0527 126.049C48.5524 130.305 57.5244 132.728 66.6703 133.25C68.0993 133.331 71.9391 133.331 73.4179 133.25C82.4147 132.753 90.7342 130.616 98.6126 126.763C101.471 125.365 103.453 124.228 106.112 122.464C113.555 117.524 120.154 110.777 124.845 103.327C125.112 102.898 125.199 102.805 125.404 102.743C125.97 102.563 126.212 102.19 126.1 101.681C126.044 101.432 126.057 101.395 126.498 100.575C129.66 94.7404 131.903 88.8005 133.314 82.5189C134.37 77.8031 134.83 73.721 134.83 69.0362C134.823 65.097 134.575 61.9903 133.96 58.4426C133.071 53.2732 131.35 47.9795 128.722 42.3441C128.411 41.6792 128.157 41.0517 128.157 40.9523V40.7721L128.349 40.9585C128.455 41.0579 128.647 41.3251 128.784 41.5488ZM7.02309 84.9545C7.10387 85.1223 7.42696 86.0481 7.74383 87.0235C9.47111 92.3669 11.0617 96.1943 13.2985 100.426L13.8266 101.426L13.2363 101.886C12.9133 102.134 12.6274 102.345 12.6026 102.358C12.5777 102.364 12.497 102.24 12.4224 102.078C12.3478 101.91 12.0372 101.208 11.7203 100.506C9.64508 95.8712 7.81839 90.3538 6.93611 86.0667C6.82427 85.5137 6.76835 84.6625 6.84291 84.6625C6.85534 84.6625 6.93611 84.793 7.02309 84.9545Z" fill="#353535"/>
<path d="M69.547 22.5111C69.5346 22.5421 69.5035 22.6353 69.4787 22.7285C69.4352 22.9087 66.5088 66.3393 66.5336 66.3704C66.546 66.3766 67.1798 66.7494 67.9502 67.1967C69.1494 67.8988 69.3544 67.9982 69.3917 67.905C69.4476 67.7497 69.7831 22.8528 69.7334 22.6353C69.6899 22.4738 69.6029 22.4179 69.547 22.5111Z" fill="#353535"/>
<path d="M73.0326 68.8994C72.256 69.353 71.616 69.732 71.616 69.7506C71.616 69.8252 110.673 92.6402 110.834 92.6651C111.052 92.6962 111.052 92.6216 110.84 92.4166C110.741 92.3296 109.001 91.1491 106.969 89.7884C104.938 88.4277 102.055 86.4953 100.57 85.5012C94.1142 81.1768 91.4611 79.3936 85.223 75.2183C81.5821 72.7827 77.7112 70.1856 76.6239 69.4524C75.5304 68.7192 74.5984 68.1103 74.5425 68.0979C74.4865 68.0917 73.8093 68.4521 73.0326 68.8994Z" fill="#353535"/>
<path d="M60.805 72.1488C58.1582 74.3173 55.9028 76.1812 55.7909 76.2869C55.6791 76.3987 55.5859 76.523 55.5859 76.5727C55.5859 76.7653 56.0519 76.5789 57.251 75.9141C57.9221 75.5413 60.687 74.0128 63.3835 72.5154C66.0863 71.018 68.3168 69.7754 68.3417 69.7505C68.379 69.7132 65.7197 68.1848 65.6389 68.2034C65.6265 68.2034 63.4518 69.9804 60.805 72.1488Z" fill="#353535"/>
</svg>
