<svg width="140" height="113" viewBox="0 0 140 113" fill="none" xmlns="http://www.w3.org/2000/svg">
<path d="M65.9006 0.148741C61.3961 0.463826 56.7982 1.37407 52.3986 2.8328C49.5745 3.76639 48.0575 4.39656 45.3034 5.75026C40.9856 7.87417 37.6713 10.0331 33.9253 13.1489C32.2682 14.526 28.4755 18.2953 27.1685 19.8707C21.3919 26.826 17.4475 34.6447 15.452 43.152L15.3003 43.7939L9.81544 43.8522C3.43205 43.9223 3.95719 43.8056 2.82521 45.3343C0.0361253 49.1037 -0.103913 49.3371 0.0361253 49.8272C0.246182 50.5507 0.36288 50.5857 4.51734 50.8425C6.60624 50.9825 9.59372 51.1692 11.1691 51.2742C12.7446 51.3793 14.0633 51.496 14.0983 51.531C14.1333 51.5777 14.1216 52.0795 14.0749 52.663C13.8532 55.4054 14.0516 60.9252 14.495 63.8076C15.2536 68.814 16.5606 73.5636 18.2877 77.6364C19.3847 80.2271 21.2052 83.693 22.7573 86.1554C25.9081 91.15 30.6694 96.3781 35.4424 100.101C44.2764 106.974 54.4642 110.965 65.3872 111.829C73.8361 112.506 82.4018 111.28 89.9405 108.351C92.2861 107.441 92.4845 107.348 94.1883 106.531C95.6704 105.819 98.9379 104.022 99.7431 103.485C99.9065 103.368 100.537 102.948 101.144 102.54C104.259 100.474 106.512 98.6071 109.557 95.5612C113.502 91.6052 116.058 88.2909 118.672 83.7047C121.239 79.2001 123.235 74.1821 124.413 69.2341L124.658 68.1838L130.201 68.1255C136.643 68.0555 136.153 68.1605 137.18 66.7251C137.518 66.2466 138.102 65.4414 138.464 64.9396C138.825 64.4261 139.327 63.7493 139.561 63.4225C140.109 62.6523 140.144 62.1739 139.666 61.6954C139.386 61.4153 139.222 61.357 138.755 61.357C138.452 61.357 136.62 61.2519 134.694 61.1236C132.769 60.9952 129.991 60.8085 128.521 60.7151C127.039 60.6101 125.825 60.5167 125.814 60.5051C125.802 60.4934 125.837 59.9333 125.884 59.2564C126.199 55.5221 125.872 50.189 125.055 45.7778C124.507 42.802 123.363 38.5658 122.639 36.8503C122.569 36.687 122.359 36.1268 122.161 35.6133C121.297 33.2794 119.535 29.6967 118.088 27.2811C115.684 23.29 112.988 19.8591 109.546 16.4281C104.901 11.7719 100.583 8.67938 94.6668 5.75026C91.9244 4.39656 90.4073 3.77806 87.5715 2.8328C83.0436 1.32739 78.6324 0.475496 73.7778 0.148741C70.7786 -0.0496462 68.8764 -0.0496462 65.9006 0.148741ZM73.7778 8.08422C76.9986 8.32929 80.5579 8.9828 83.2887 9.82303C87.3381 11.0717 90.0222 12.2153 93.4648 14.1642C103.979 20.1275 111.915 29.8134 115.742 41.3316C116.443 43.4205 117.085 46.1045 117.551 48.8586C117.971 51.3793 118.181 56.1522 117.995 58.883L117.913 59.9566H116.991C116.478 59.9566 114.575 59.8516 112.778 59.7349C110.97 59.6065 107.725 59.3964 105.578 59.2564C103.431 59.128 100.093 58.918 98.1677 58.7896C96.2422 58.6612 92.9396 58.4512 90.8157 58.3228C88.7035 58.1828 85.4709 57.9727 83.6388 57.8444C81.8066 57.7277 79.9511 57.6226 79.496 57.611C79.0525 57.611 78.4807 57.576 78.224 57.5293L77.7805 57.4476L78.8658 56.7007C79.4726 56.2806 80.3829 55.6504 80.8964 55.3003C82.4018 54.2617 84.4673 52.8497 86.9647 51.1459C89.462 49.4421 90.2556 48.8936 93.4064 46.7347C95.472 45.311 95.6354 45.1359 95.472 44.4941C95.2969 43.8056 97.9343 43.8522 59.1321 43.8522C25.313 43.8522 23.5392 43.8406 23.5392 43.6422C23.5392 43.3738 24.5778 40.2113 25.1029 38.8576C30.7511 24.457 43.1445 13.359 57.9068 9.47293C63.0415 8.1309 68.3746 7.66411 73.7778 8.08422ZM27.0401 52.2428C28.8723 52.3712 32.1515 52.5813 34.3338 52.7213C36.516 52.8497 39.9003 53.0597 41.8608 53.1881C43.8213 53.3165 47.2056 53.5265 49.3878 53.6549C51.5701 53.7949 54.8493 54.005 56.6815 54.1334C58.5136 54.2501 60.4041 54.3551 60.8826 54.3668C61.3611 54.3668 61.8512 54.4134 61.9679 54.4601C62.1313 54.5185 60.1241 55.9538 53.5073 60.5284C48.7343 63.8193 44.7666 66.6084 44.6966 66.7018C44.4632 66.9935 44.5215 67.5537 44.8016 67.8571L45.0467 68.1255H80.7447C113.712 68.1255 116.431 68.1371 116.431 68.3122C116.431 68.674 115.474 71.5564 114.762 73.3769C111.075 82.7128 104.481 90.7883 96.0438 96.2964C88.0967 101.478 79.426 104.069 69.9851 104.069C63.555 104.069 58.3269 103.053 52.0719 100.591C49.3878 99.5406 45.4551 97.4051 42.9111 95.6313C35.6058 90.5199 30.1793 84.1015 26.3283 76.0259C26.0248 75.4074 25.7564 74.8006 25.7214 74.6839C25.6747 74.5789 25.4647 74.0421 25.243 73.4936C24.4261 71.5214 23.3174 67.8337 22.8506 65.5581C22.0454 61.6254 21.6953 56.5957 21.9871 52.978L22.0571 52.0211H22.8856C23.3408 52.0211 25.2079 52.1261 27.0401 52.2428Z" fill="#353535"/>
</svg>
