<svg width="168" height="70" viewBox="0 0 168 70" fill="none" xmlns="http://www.w3.org/2000/svg">
<path d="M65.2375 0.911486C38.9924 3.41577 15.8525 11.8303 6.13577 22.3484C-0.47561 29.4606 -1.5775 34.7698 2.0287 41.7818C7.43801 52.4001 23.5657 61.1151 47.1063 66.0238C90.9821 75.1393 145.275 66.2237 162.705 46.8906C185.845 21.3467 129.448 -5.29923 65.2375 0.911486ZM113.22 5.41925C144.574 10.2275 164.308 21.547 164.308 34.5694C164.308 36.9736 163.707 40.1791 162.906 41.6817C154.491 57.8094 110.415 69.4294 70.1459 66.0238C33.2825 63.0186 8.74025 52.7006 4.03215 38.376C0.72646 28.3587 11.4449 17.6403 31.6797 10.9287C47.1063 5.71976 75.1546 1.91319 75.1546 4.91836C75.1546 5.41925 72.9508 13.7336 70.1459 23.3501C64.8368 41.7818 64.336 44.8872 66.4396 44.8872C68.5432 44.8872 75.0544 39.7784 79.9629 34.4693C88.0768 25.6541 90.1804 16.7388 86.1738 7.92353C85.0716 5.51939 84.1701 3.41577 84.1701 3.11525C84.1701 2.31393 102.802 3.81651 113.22 5.41925Z" fill="#2B2A29"/>
<path d="M59.728 9.42643C31.7799 13.7339 15.0511 23.3504 15.0511 35.0706C15.0511 49.9963 45.7039 61.9168 84.1701 61.9168C122.636 61.9168 153.289 49.9963 153.289 35.0706C153.289 28.359 148.681 23.0499 138.163 17.8409C132.153 14.7356 118.529 10.5283 117.227 11.3298C116.827 11.6303 116.226 13.5335 115.925 15.537C114.422 24.6527 102.301 36.7735 86.1738 45.2882C75.4551 50.8978 66.3394 52.9013 62.633 50.4971C61.2306 49.5956 60.1287 47.8926 60.1287 46.7908C60.1287 45.6889 62.4327 36.9739 65.1374 27.3573C70.3463 9.42643 70.6468 7.72355 69.4447 7.92384C68.9439 8.02406 64.6365 8.6251 59.728 9.42643ZM106.208 46.8909C106.208 48.4937 105.507 48.8944 102.502 48.8944L98.6948 48.9946L101.5 50.998C103.003 52.0999 104.205 53.7027 104.205 54.4039C104.205 57.5092 99.8969 58.3106 84.1701 58.4107C65.7384 58.4107 57.1235 57.409 57.1235 55.3054C57.1235 54.1033 58.2255 53.903 63.4344 54.504C77.8592 56.3071 91.1819 54.9048 91.1819 51.5991C91.1819 50.998 90.481 49.796 89.5794 48.7942C86.8747 45.789 88.7778 44.8875 97.7933 44.8875C105.507 44.8875 106.208 45.0878 106.208 46.8909Z" fill="#2B2A29"/>
</svg>
