<svg width="35" height="29" viewBox="0 0 35 29" fill="none" xmlns="http://www.w3.org/2000/svg">
<path d="M30.7059 5.11765H3.41176C1.53018 5.11765 0 6.64782 0 8.52941V25.5882C0 27.4698 1.53018 29 3.41176 29H30.7059C32.5875 29 34.1176 27.4698 34.1176 25.5882V8.52941C34.1176 6.64782 32.5875 5.11765 30.7059 5.11765ZM11.9412 18.7647H3.41176V15.3529H11.9412V18.7647ZM30.7059 18.7647H27.2941V22.1765H23.8824V18.7647H20.4706V15.3529H23.8824V11.9412H27.2941V15.3529H30.7059V18.7647ZM3.41176 0H10.2353V3.41176H3.41176V0ZM23.8824 0H30.7059V3.41176H23.8824V0Z" fill="#FBFBFB"/>
</svg>
