<svg width="27" height="29" viewBox="0 0 27 29" fill="none" xmlns="http://www.w3.org/2000/svg">
<path d="M10.1121 26.797C7.27107 26.4359 4.87547 25.1839 2.92528 23.0411C0.975093 20.8983 0 18.3703 0 15.457C0 13.868 0.294695 12.3936 0.884085 11.0337C1.47347 9.67389 2.31037 8.47585 3.39477 7.4396L10.5455 0.433375C10.6899 0.288917 10.8464 0.180573 11.0149 0.108344C11.1835 0.0361146 11.3641 0 11.5567 0C11.7493 0 11.9298 0.0361146 12.0984 0.108344C12.2669 0.180573 12.4234 0.288917 12.5679 0.433375L19.7186 7.4396C20.5853 8.28227 21.3018 9.24533 21.8681 10.3288C22.4344 11.4122 22.8133 12.5799 23.005 13.8319H13.0012C12.2067 13.8319 11.5263 14.115 10.96 14.6813C10.3938 15.2476 10.1111 15.9275 10.1121 16.721V26.797ZM19.3213 19.6463C18.8879 19.4537 18.4483 19.2852 18.0024 19.1407C17.5565 18.9963 17.0933 18.924 16.6127 18.924C16.2275 18.924 15.8543 18.9664 15.4931 19.0512C15.132 19.1359 14.7829 19.25 14.4458 19.3935C14.181 19.5139 13.9041 19.5259 13.6152 19.4296C13.3263 19.3333 13.1216 19.1528 13.0012 18.8879C12.8809 18.599 12.8809 18.3101 13.0012 18.0212C13.1216 17.7323 13.3263 17.5276 13.6152 17.4072C14.0967 17.2146 14.5903 17.0581 15.0959 16.9377C15.6015 16.8174 16.1071 16.7572 16.6127 16.7572C17.1665 16.7572 17.714 16.8236 18.2552 16.9565C18.7964 17.0894 19.3203 17.2517 19.8269 17.4433C20.2603 17.6359 20.6999 17.8045 21.1458 17.9489C21.5917 18.0934 22.0549 18.1656 22.5355 18.1656C22.9207 18.1656 23.2939 18.1237 23.655 18.0399C24.0162 17.9562 24.3653 17.8416 24.7024 17.6961C24.9672 17.5758 25.2441 17.5575 25.533 17.6412C25.8219 17.725 26.0266 17.8998 26.1469 18.1656C26.2673 18.4545 26.2673 18.7497 26.1469 19.0512C26.0266 19.3526 25.8219 19.563 25.533 19.6824C25.0515 19.875 24.5579 20.0315 24.0523 20.1519C23.5467 20.2723 23.0411 20.3325 22.5355 20.3325C21.9817 20.3325 21.4342 20.2661 20.893 20.1332C20.3518 20.0002 19.8279 19.838 19.3213 19.6463ZM19.3213 23.9801C18.8879 23.7875 18.4483 23.6189 18.0024 23.4745C17.5565 23.33 17.0933 23.2578 16.6127 23.2578C16.2275 23.2578 15.8543 23.3002 15.4931 23.3849C15.132 23.4697 14.7829 23.5838 14.4458 23.7273C14.181 23.8477 13.9041 23.8597 13.6152 23.7634C13.3263 23.6671 13.1216 23.4865 13.0012 23.2217C12.8809 22.9328 12.8809 22.6438 13.0012 22.3549C13.1216 22.066 13.3263 21.8614 13.6152 21.741C14.0967 21.5484 14.5903 21.3919 15.0959 21.2715C15.6015 21.1511 16.1071 21.0909 16.6127 21.0909C17.1665 21.0909 17.714 21.1574 18.2552 21.2903C18.7964 21.4232 19.3203 21.5854 19.8269 21.7771C20.2603 21.9697 20.6999 22.1382 21.1458 22.2827C21.5917 22.4271 22.0549 22.4994 22.5355 22.4994C22.9207 22.4994 23.2939 22.457 23.655 22.3723C24.0162 22.2875 24.3653 22.1734 24.7024 22.0299C24.9672 21.9095 25.2441 21.8917 25.533 21.9764C25.8219 22.0612 26.0266 22.2355 26.1469 22.4994C26.2673 22.7883 26.2673 23.0835 26.1469 23.3849C26.0266 23.6863 25.8219 23.8968 25.533 24.0162C25.0515 24.2088 24.5579 24.3653 24.0523 24.4857C23.5467 24.6061 23.0411 24.6663 22.5355 24.6663C21.9817 24.6663 21.4342 24.5998 20.893 24.4669C20.3518 24.334 19.8279 24.1717 19.3213 23.9801ZM19.3213 28.3138C18.8879 28.1212 18.4483 27.9527 18.0024 27.8082C17.5565 27.6638 17.0933 27.5915 16.6127 27.5915C16.2275 27.5915 15.8543 27.6339 15.4931 27.7187C15.132 27.8034 14.7829 27.9175 14.4458 28.061C14.181 28.1814 13.9041 28.1934 13.6152 28.0971C13.3263 28.0008 13.1216 27.8203 13.0012 27.5554C12.8809 27.2665 12.8809 26.9776 13.0012 26.6887C13.1216 26.3997 13.3263 26.1951 13.6152 26.0747C14.0967 25.8821 14.5903 25.7256 15.0959 25.6052C15.6015 25.4848 16.1071 25.4247 16.6127 25.4247C17.1665 25.4247 17.714 25.4911 18.2552 25.624C18.7964 25.7569 19.3203 25.9192 19.8269 26.1108C20.2603 26.3034 20.6999 26.472 21.1458 26.6164C21.5917 26.7609 22.0549 26.8331 22.5355 26.8331C22.9207 26.8331 23.2939 26.7907 23.655 26.706C24.0162 26.6213 24.3653 26.5071 24.7024 26.3636C24.9672 26.2433 25.2441 26.2254 25.533 26.3102C25.8219 26.3949 26.0266 26.5692 26.1469 26.8331C26.2673 27.122 26.2673 27.4172 26.1469 27.7187C26.0266 28.0201 25.8219 28.2305 25.533 28.3499C25.0515 28.5425 24.5579 28.699 24.0523 28.8194C23.5467 28.9398 23.0411 29 22.5355 29C21.9817 29 21.4342 28.9335 20.893 28.8006C20.3518 28.6677 19.8279 28.5055 19.3213 28.3138Z" fill="#FBFBFB"/>
</svg>
