<svg width="27" height="29" viewBox="0 0 27 29" fill="none" xmlns="http://www.w3.org/2000/svg">
<path d="M8.7 29V25.375C6.13833 24.4808 4.04792 22.9163 2.42875 20.6814C0.809584 18.4464 0 15.9026 0 13.05C0 11.2375 0.344617 9.54003 1.03385 7.9576C1.72308 6.37517 2.65302 4.99767 3.82365 3.8251C4.99622 2.65253 6.37372 1.72212 7.95615 1.03385C9.53858 0.345583 11.2245 0.000966667 13.0138 0C14.8021 0 16.4937 0.344617 18.0887 1.03385C19.6838 1.72308 21.0733 2.6535 22.2575 3.8251C23.4417 4.9967 24.3784 6.3742 25.0676 7.9576C25.7568 9.541 26.101 11.2385 26.1 13.05C26.1 15.9017 25.2841 18.4334 23.6524 20.6451C22.0207 22.8568 19.9365 24.4214 17.4 25.3387V29H14.5V26.0275C14.2583 26.0758 14.0167 26.1 13.775 26.1H13.0138C12.7721 26.1 12.5362 26.0942 12.3062 26.0826C12.0761 26.071 11.8407 26.0526 11.6 26.0275V29H8.7ZM7.25 10.2225H18.85V7.3225H7.25V10.2225ZM11.9625 21.8225L16.3125 17.4725L14.5 15.66L16.3125 13.8475L14.1375 11.6725L9.7875 16.0225L11.6 17.835L9.7875 19.6475L11.9625 21.8225Z" fill="#FBFBFB"/>
</svg>
