<svg width="29" height="29" viewBox="0 0 29 29" fill="none" xmlns="http://www.w3.org/2000/svg">
<path d="M2.89839 13.05C3.26797 13.0504 3.62344 13.1919 3.89218 13.4456C4.16092 13.6993 4.32263 14.0461 4.34429 14.415C4.36595 14.784 4.24592 15.1473 4.00871 15.4307C3.7715 15.7141 3.43503 15.8962 3.06804 15.9399L2.89839 15.95H1.44839C1.07882 15.9496 0.723347 15.8081 0.45461 15.5544C0.185872 15.3007 0.0241529 14.9539 0.00249405 14.585C-0.0191648 14.216 0.100872 13.8528 0.338078 13.5693C0.575284 13.2859 0.911755 13.1038 1.27874 13.0602L1.44839 13.05H2.89839ZM14.4984 0C14.8535 4.68503e-05 15.1963 0.130436 15.4617 0.366437C15.7271 0.602438 15.8967 0.927636 15.9382 1.28035L15.9484 1.45V2.9C15.948 3.26958 15.8065 3.62505 15.5528 3.89378C15.2991 4.16252 14.9523 4.32424 14.5834 4.3459C14.2144 4.36756 13.8511 4.24752 13.5677 4.01032C13.2843 3.77311 13.1022 3.43664 13.0585 3.06965L13.0484 2.9V1.45C13.0484 1.06544 13.2012 0.696623 13.4731 0.424695C13.745 0.152767 14.1138 0 14.4984 0ZM27.5484 13.05C27.918 13.0504 28.2734 13.1919 28.5422 13.4456C28.8109 13.6993 28.9726 14.0461 28.9943 14.415C29.016 14.784 28.8959 15.1473 28.6587 15.4307C28.4215 15.7141 28.085 15.8962 27.718 15.9399L27.5484 15.95H26.0984C25.7288 15.9496 25.3733 15.8081 25.1046 15.5544C24.8359 15.3007 24.6742 14.9539 24.6525 14.585C24.6308 14.216 24.7509 13.8528 24.9881 13.5693C25.2253 13.2859 25.5618 13.1038 25.9287 13.0602L26.0984 13.05H27.5484ZM4.19324 4.19485C4.44292 3.94519 4.77512 3.79522 5.12751 3.77306C5.47989 3.7509 5.82826 3.85809 6.10724 4.0745L6.24354 4.19485L7.25854 5.20985C7.5186 5.47079 7.66958 5.82093 7.68083 6.18916C7.69207 6.55738 7.56273 6.91608 7.31908 7.1924C7.07543 7.46872 6.73574 7.64194 6.36901 7.67688C6.00227 7.71181 5.63598 7.60585 5.34454 7.3805L5.20824 7.26015L4.19324 6.24515C3.92141 5.97324 3.7687 5.60449 3.7687 5.22C3.7687 4.83551 3.92141 4.46677 4.19324 4.19485ZM22.7532 4.19485C23.0142 3.9348 23.3643 3.78381 23.7325 3.77257C24.1008 3.76133 24.4595 3.89066 24.7358 4.13431C25.0121 4.37796 25.1853 4.71765 25.2203 5.08439C25.2552 5.45113 25.1492 5.81741 24.9239 6.10885L24.8035 6.24515L23.7885 7.26015C23.5276 7.5202 23.1775 7.67119 22.8092 7.68243C22.441 7.69368 22.0823 7.56434 21.806 7.32069C21.5297 7.07704 21.3565 6.73735 21.3215 6.37061C21.2866 6.00387 21.3925 5.63759 21.6179 5.34615L21.7382 5.20985L22.7532 4.19485ZM17.3984 23.2C17.783 23.2 18.1518 23.3528 18.4237 23.6247C18.6956 23.8966 18.8484 24.2654 18.8484 24.65C18.8484 25.8037 18.3901 26.9101 17.5743 27.7259C16.7585 28.5417 15.6521 29 14.4984 29C13.3447 29 12.2383 28.5417 11.4225 27.7259C10.6067 26.9101 10.1484 25.8037 10.1484 24.65C10.1484 24.2948 10.2788 23.9521 10.5148 23.6867C10.7508 23.4213 11.076 23.2517 11.4287 23.2102L11.5984 23.2H17.3984ZM14.4984 5.8C16.3244 5.8 18.1041 6.37453 19.5854 7.44219C21.0667 8.50986 22.1745 10.0165 22.7519 11.7488C23.3294 13.4811 23.3471 15.3511 22.8027 17.0941C22.2582 18.837 21.1792 20.3644 19.7184 21.46C19.5185 21.6101 19.2833 21.706 19.0354 21.7384L18.8484 21.75H10.1484C9.83466 21.75 9.52938 21.6482 9.27839 21.46C7.81761 20.3644 6.73857 18.837 6.19413 17.0941C5.64968 15.3511 5.66742 13.4811 6.24485 11.7488C6.82227 10.0165 7.9301 8.50986 9.41142 7.44219C10.8927 6.37453 12.6724 5.8 14.4984 5.8Z" fill="#FBFBFB"/>
</svg>
