<svg width="20" height="29" viewBox="0 0 20 29" fill="none" xmlns="http://www.w3.org/2000/svg">
<path d="M6.44444 29C4.67222 29 3.15509 28.369 1.89306 27.1069C0.631019 25.8449 0 24.3278 0 22.5556C0 20.7833 0.631019 19.2662 1.89306 18.0042C3.15509 16.7421 4.67222 16.1111 6.44444 16.1111C7.06204 16.1111 7.63291 16.1852 8.15705 16.3334C8.6812 16.4817 9.18441 16.7029 9.66667 16.9972V3.22222C9.66667 2.33611 9.98244 1.57728 10.614 0.945725C11.2456 0.314169 12.0039 -0.00107134 12.8889 2.73533e-06H16.1111C16.9972 2.73533e-06 17.7561 0.315781 18.3876 0.947336C19.0192 1.57889 19.3344 2.33719 19.3333 3.22222C19.3333 4.10834 19.0176 4.86717 18.386 5.49872C17.7544 6.13028 16.9961 6.44552 16.1111 6.44445H12.8889V22.5556C12.8889 24.3278 12.2579 25.8449 10.9958 27.1069C9.7338 28.369 8.21667 29 6.44444 29Z" fill="#FBFBFB"/>
</svg>
