<svg width="31" height="29" viewBox="0 0 31 29" fill="none" xmlns="http://www.w3.org/2000/svg">
<path d="M15.4039 21.4675C15.8307 21.4675 16.1888 21.3294 16.478 21.0532C16.7673 20.7771 16.9114 20.4255 16.9104 19.9987V16.9481H19.9234C20.3502 16.9481 20.7083 16.8039 20.9975 16.5157C21.2868 16.2274 21.4309 15.8694 21.4299 15.4416C21.4299 15.0147 21.2918 14.6567 21.0156 14.3674C20.7394 14.0782 20.3879 13.9341 19.961 13.9351H16.9104V10.9221C16.9104 10.4952 16.7658 10.1372 16.4765 9.84795C16.1873 9.5587 15.8297 9.41458 15.4039 9.41558C14.9771 9.41558 14.619 9.55368 14.3298 9.82987C14.0405 10.1061 13.8964 10.4576 13.8974 10.8844V13.9351H10.8844C10.4576 13.9351 10.0995 14.0797 9.81028 14.3689C9.52104 14.6582 9.37692 15.0157 9.37792 15.4416C9.37792 15.8684 9.51602 16.2264 9.79221 16.5157C10.0684 16.8049 10.4199 16.9491 10.8468 16.9481H13.8974V19.961C13.8974 20.3879 14.042 20.7459 14.3313 21.0352C14.6205 21.3244 14.9781 21.4685 15.4039 21.4675ZM15.4039 29C13.5208 29 11.7567 28.642 10.1116 27.9259C8.46649 27.2098 7.03532 26.2436 5.81808 25.0274C4.60083 23.8091 3.63467 22.378 2.91958 20.7339C2.2045 19.0898 1.84646 17.3257 1.84545 15.4416C1.84545 13.5584 2.2035 11.7943 2.91958 10.1492C3.63567 8.50416 4.60183 7.07299 5.81808 5.85574C7.03633 4.63849 8.4675 3.67233 10.1116 2.95725C11.7557 2.24216 13.5198 1.88412 15.4039 1.88312C17.287 1.88312 19.0511 2.24116 20.6962 2.95725C22.3413 3.67333 23.7725 4.64 24.9897 5.85725C26.207 7.07449 27.1736 8.50566 27.8897 10.1508C28.6058 11.7958 28.9633 13.5594 28.9623 15.4416C28.9623 17.3247 28.6043 19.0888 27.8882 20.7339C27.1721 22.379 26.206 23.8101 24.9897 25.0274C23.7715 26.2446 22.3403 27.2113 20.6962 27.9274C19.0521 28.6435 17.288 29.001 15.4039 29ZM2.48571 6.89221C2.20952 7.1684 1.87056 7.30649 1.46883 7.30649C1.0671 7.30649 0.715584 7.15584 0.414286 6.85455C0.138095 6.57836 0 6.22684 0 5.8C0 5.37316 0.138095 5.02165 0.414286 4.74545L4.74545 0.414286C5.02164 0.138095 5.36061 0 5.76234 0C6.16407 0 6.51558 0.150649 6.81688 0.451948C7.09307 0.728138 7.23117 1.07965 7.23117 1.50649C7.23117 1.93333 7.09307 2.28485 6.81688 2.56104L2.48571 6.89221ZM28.2844 6.85455L23.9532 2.52338C23.6771 2.24719 23.539 1.90823 23.539 1.50649C23.539 1.10476 23.6896 0.753247 23.9909 0.451948C24.2671 0.175757 24.6186 0.0376625 25.0455 0.0376625C25.4723 0.0376625 25.8238 0.175757 26.1 0.451948L30.4312 4.78312C30.7074 5.05931 30.8455 5.39827 30.8455 5.8C30.8455 6.20173 30.6948 6.55325 30.3935 6.85455C30.1173 7.13074 29.7658 7.26883 29.339 7.26883C28.9121 7.26883 28.5606 7.13074 28.2844 6.85455Z" fill="#FBFBFB"/>
</svg>
