<svg width="40" height="29" viewBox="0 0 40 29" fill="none" xmlns="http://www.w3.org/2000/svg">
<path d="M11.2143 8.14762L8.27286 5.22L10.22 3.27286L13.1476 6.21429L11.2143 8.14762ZM20.881 0V4.14286H18.119V0H20.881ZM30.7271 5.22L27.7857 8.14762L25.8524 6.21429L28.78 3.27286L30.7271 5.22ZM9.14286 13.119V15.881H5V13.119H9.14286ZM29.8571 13.119H34V15.881H29.8571V13.119ZM11.2143 26.2381H27.7857C28.5182 26.2381 29.2207 26.5291 29.7387 27.047C30.2566 27.565 30.5476 28.2675 30.5476 29H8.45238C8.45238 28.2675 8.74337 27.565 9.26132 27.047C9.77928 26.5291 10.4818 26.2381 11.2143 26.2381ZM19.5 5.52381C21.6975 5.52381 23.805 6.39677 25.3589 7.95064C26.9128 9.50451 27.7857 11.612 27.7857 13.8095V24.8571H11.2143V13.8095C11.2143 11.612 12.0872 9.50451 13.6411 7.95064C15.195 6.39677 17.3025 5.52381 19.5 5.52381Z" fill="#353535"/>
</svg>
