<svg width="40" height="29" viewBox="0 0 40 29" fill="none" xmlns="http://www.w3.org/2000/svg">
<mask id="mask0_144_95" style="mask-type:luminance" maskUnits="userSpaceOnUse" x="6" y="0" width="30" height="29">
<path d="M19.1111 27C25.2479 27 30.2222 22.0257 30.2222 15.8889C30.2222 9.75208 25.2479 4.77777 19.1111 4.77777C12.9743 4.77777 8 9.75208 8 15.8889C8 22.0257 12.9743 27 19.1111 27Z" stroke="white" stroke-width="4" stroke-linecap="round" stroke-linejoin="round"/>
<path d="M19.1113 18.6667C19.848 18.6667 20.5545 18.374 21.0755 17.8531C21.5964 17.3321 21.8891 16.6256 21.8891 15.8889C21.8891 15.1522 21.5964 14.4456 21.0755 13.9247C20.5545 13.4038 19.848 13.1111 19.1113 13.1111C18.3746 13.1111 17.668 13.4038 17.1471 13.9247C16.6262 14.4456 16.3335 15.1522 16.3335 15.8889C16.3335 16.6256 16.6262 17.3321 17.1471 17.8531C17.668 18.374 18.3746 18.6667 19.1113 18.6667ZM19.1113 2C20.9352 2 22.7412 2.35925 24.4263 3.05723C26.1114 3.75521 27.6425 4.77826 28.9322 6.06796C30.2219 7.35766 31.245 8.88876 31.9429 10.5738C32.6409 12.2589 33.0002 14.065 33.0002 15.8889H27.4488C27.4488 13.6776 26.5704 11.557 25.0068 9.99339C23.4432 8.4298 21.3225 7.55139 19.1113 7.55139V2Z" fill="white" stroke="white" stroke-width="4" stroke-linecap="round" stroke-linejoin="round"/>
</mask>
<g mask="url(#mask0_144_95)">
<path d="M4 -2H37V31H4V-2Z" fill="#353535"/>
</g>
</svg>
