<svg width="40" height="29" viewBox="0 0 40 29" fill="none" xmlns="http://www.w3.org/2000/svg">
<path d="M20.1075 19.575C18.7616 19.575 17.4707 19.0403 16.519 18.0886C15.5672 17.1368 15.0325 15.846 15.0325 14.5C15.0325 13.154 15.5672 11.8632 16.519 10.9114C17.4707 9.95969 18.7616 9.425 20.1075 9.425C21.4535 9.425 22.7443 9.95969 23.6961 10.9114C24.6478 11.8632 25.1825 13.154 25.1825 14.5C25.1825 15.846 24.6478 17.1368 23.6961 18.0886C22.7443 19.0403 21.4535 19.575 20.1075 19.575ZM30.881 15.9065C30.939 15.4425 30.9825 14.9785 30.9825 14.5C30.9825 14.0215 30.939 13.543 30.881 13.05L33.9405 10.6865C34.216 10.469 34.2885 10.0775 34.1145 9.7585L31.2145 4.7415C31.0405 4.4225 30.649 4.292 30.33 4.4225L26.7195 5.8725C25.9655 5.307 25.1825 4.814 24.269 4.4515L23.7325 0.609003C23.7031 0.438217 23.6141 0.283372 23.4814 0.171902C23.3487 0.0604329 23.1808 -0.000463673 23.0075 2.65853e-06H17.2075C16.845 2.65853e-06 16.5405 0.261003 16.4825 0.609003L15.946 4.4515C15.0325 4.814 14.2495 5.307 13.4955 5.8725L9.88503 4.4225C9.56603 4.292 9.17453 4.4225 9.00053 4.7415L6.10053 9.7585C5.91203 10.0775 5.99903 10.469 6.27453 10.6865L9.33403 13.05C9.27603 13.543 9.23253 14.0215 9.23253 14.5C9.23253 14.9785 9.27603 15.4425 9.33403 15.9065L6.27453 18.3135C5.99903 18.531 5.91203 18.9225 6.10053 19.2415L9.00053 24.2585C9.17453 24.5775 9.56603 24.6935 9.88503 24.5775L13.4955 23.113C14.2495 23.693 15.0325 24.186 15.946 24.5485L16.4825 28.391C16.5405 28.739 16.845 29 17.2075 29H23.0075C23.37 29 23.6745 28.739 23.7325 28.391L24.269 24.5485C25.1825 24.1715 25.9655 23.693 26.7195 23.113L30.33 24.5775C30.649 24.6935 31.0405 24.5775 31.2145 24.2585L34.1145 19.2415C34.2885 18.9225 34.216 18.531 33.9405 18.3135L30.881 15.9065Z" fill="#353535"/>
</svg>
