<svg width="134" height="145" viewBox="0 0 134 145" fill="none" xmlns="http://www.w3.org/2000/svg">
<path d="M8.642 130.5V87C8.642 71.6174 14.7527 56.8649 25.6298 45.9878C36.5069 35.1107 51.2594 29 66.642 29C82.0245 29 96.7771 35.1107 107.654 45.9878C118.531 56.8649 124.642 71.6174 124.642 87V130.5H131.892V145H1.392V130.5H8.642ZM23.142 87H37.642C37.642 79.3087 40.6973 71.9325 46.1359 66.4939C51.5745 61.0553 58.9507 58 66.642 58V43.5C55.1051 43.5 44.0407 48.083 35.8829 56.2409C27.725 64.3987 23.142 75.4631 23.142 87ZM59.392 0H73.892V21.75H59.392V0ZM123.032 20.358L133.284 30.6095L117.914 45.9868L107.655 35.7352L123.032 20.358ZM0 30.6095L10.2515 20.358L25.6287 35.728L15.3845 45.994L0 30.6095Z" fill="#353535"/>
</svg>
