<svg width="162" height="146" viewBox="0 0 162 146" fill="none" xmlns="http://www.w3.org/2000/svg">
<path fill-rule="evenodd" clip-rule="evenodd" d="M40.5 8.1C40.5 5.95175 39.6466 3.89148 38.1276 2.37243C36.6085 0.85339 34.5483 0 32.4 0C30.2517 0 28.1915 0.85339 26.6724 2.37243C25.1534 3.89148 24.3 5.95175 24.3 8.1V16.2H16.2C11.9035 16.2 7.78296 17.9068 4.74487 20.9449C1.70678 23.983 0 28.1035 0 32.4V129.6C0 133.897 1.70678 138.017 4.74487 141.055C7.78296 144.093 11.9035 145.8 16.2 145.8H145.8C150.097 145.8 154.217 144.093 157.255 141.055C160.293 138.017 162 133.897 162 129.6V32.4C162 28.1035 160.293 23.983 157.255 20.9449C154.217 17.9068 150.097 16.2 145.8 16.2H137.7V8.1C137.7 5.95175 136.847 3.89148 135.328 2.37243C133.809 0.85339 131.748 0 129.6 0C127.452 0 125.391 0.85339 123.872 2.37243C122.353 3.89148 121.5 5.95175 121.5 8.1V16.2H40.5V8.1ZM121.5 64.8C121.5 62.6517 120.647 60.5915 119.128 59.0724C117.609 57.5534 115.548 56.7 113.4 56.7C111.252 56.7 109.191 57.5534 107.672 59.0724C106.153 60.5915 105.3 62.6517 105.3 64.8V72.9H97.2C95.0518 72.9 92.9915 73.7534 91.4724 75.2724C89.9534 76.7915 89.1 78.8518 89.1 81C89.1 83.1483 89.9534 85.2085 91.4724 86.7276C92.9915 88.2466 95.0518 89.1 97.2 89.1H105.3V97.2C105.3 99.3483 106.153 101.409 107.672 102.928C109.191 104.447 111.252 105.3 113.4 105.3C115.548 105.3 117.609 104.447 119.128 102.928C120.647 101.409 121.5 99.3483 121.5 97.2V89.1H129.6C131.748 89.1 133.809 88.2466 135.328 86.7276C136.847 85.2085 137.7 83.1483 137.7 81C137.7 78.8518 136.847 76.7915 135.328 75.2724C133.809 73.7534 131.748 72.9 129.6 72.9H121.5V64.8ZM32.4 72.9C30.2517 72.9 28.1915 73.7534 26.6724 75.2724C25.1534 76.7915 24.3 78.8518 24.3 81C24.3 83.1483 25.1534 85.2085 26.6724 86.7276C28.1915 88.2466 30.2517 89.1 32.4 89.1H56.7C58.8483 89.1 60.9085 88.2466 62.4276 86.7276C63.9466 85.2085 64.8 83.1483 64.8 81C64.8 78.8518 63.9466 76.7915 62.4276 75.2724C60.9085 73.7534 58.8483 72.9 56.7 72.9H32.4Z" fill="#353535"/>
</svg>
