<svg width="140" height="140" viewBox="0 0 140 140" fill="none" xmlns="http://www.w3.org/2000/svg">
<path d="M66.8816 0.0313622C66.5506 0.068144 65.3 0.166229 64.123 0.264314C47.5589 1.6375 32.319 8.71187 20.5365 20.4943C9.53875 31.4921 2.59925 45.5918 0.61303 60.9543C0.281994 63.529 0 67.6854 0 69.9659C0 72.2463 0.281994 76.4027 0.61303 78.9774C2.59925 94.3767 9.51423 108.415 20.5365 119.437C31.6324 130.533 45.5972 137.375 61.3643 139.41C72.6196 140.869 84.8189 139.349 95.5346 135.143C110.063 129.43 122.263 119.057 130.281 105.571C137.38 93.6166 140.825 79.1245 139.832 65.3559C138.925 52.801 135.271 41.9504 128.381 31.3449C124.028 24.6384 117.346 17.7234 110.591 12.9418C100.243 5.6222 88.8281 1.42907 76.0158 0.264314C74.0418 0.0804046 68.1077 -0.0667226 66.8816 0.0313622ZM73.3797 2.28731C90.189 3.20686 105.613 10.0851 117.518 21.9656C128.136 32.571 134.83 46.1067 136.828 61.0156C137.552 66.4593 137.576 73.1168 136.877 78.6096C134.646 96.2158 125.5 112.314 111.449 123.373C105.65 127.934 98.6979 131.723 91.7584 134.089C76.3836 139.336 59.795 138.932 44.8125 132.961C42.6301 132.09 38.3634 130.031 36.4753 128.939C18.8323 118.775 6.74333 101.623 3.26132 81.7973C2.12108 75.336 1.93718 68.5191 2.70959 61.9352C4.16861 49.5152 9.01155 37.8185 16.7848 27.9733C30.4308 10.6613 51.5068 1.09803 73.3797 2.28731Z" fill="#353535"/>
<path d="M65.7782 5.36458C52.7819 6.14925 39.8715 11.1516 29.6094 19.3662C25.9557 22.2965 22.204 26.0605 19.3595 29.6406C14.1242 36.2123 10.1273 43.9242 7.84678 51.82C2.96706 68.6906 5.10041 86.9099 13.7074 101.966C16.6009 107.017 19.7764 111.198 23.8837 115.379C29.2538 120.823 34.9918 124.942 41.8332 128.253C50.6608 132.532 60.1137 134.689 70.0081 134.689C82.4648 134.689 94.2718 131.256 104.914 124.513C112.467 119.732 119.774 112.424 124.556 104.872C127.314 100.507 129.717 95.5536 131.274 90.9927C136.203 76.5374 135.86 60.4147 130.33 46.4253C126.873 37.6713 122.079 30.413 115.421 23.8413C102.229 10.8328 84.5124 4.2366 65.7782 5.36458ZM67.7276 14.0328C68.8678 16.9141 69.91 19.5133 70.0326 19.8198L70.2778 20.3716L72.5828 14.6091L74.8878 8.84659L77.4748 8.80981L80.0618 8.78528V17.2451V25.7049H78.4188H76.7882L76.7146 24.6873C76.6656 24.1356 76.6288 21.6099 76.6288 19.0842C76.6288 16.3869 76.5797 14.56 76.5184 14.6704C76.4204 14.8175 73.2571 22.9218 72.4357 25.0674L72.1904 25.7049L70.2778 25.6804L68.3651 25.6436L66.2073 20.065L64.0617 14.4865L64.0004 20.065L63.9391 25.6436L62.1981 25.6804L60.4448 25.7172V19.9179C60.4448 16.7302 60.4816 12.9171 60.5306 11.4458L60.6042 8.78528H63.1299H65.6555L67.7276 14.0328ZM110.468 23.3386C111.265 24.3072 111.682 24.8957 111.621 24.9938C111.572 25.0796 110.149 26.9923 108.482 29.2482C106.802 31.4919 105.441 33.3555 105.466 33.3801C105.49 33.3923 107.66 32.5096 110.284 31.3938C112.908 30.2904 115.127 29.3831 115.213 29.3831C115.372 29.3831 118.143 32.6567 118.106 32.8038C118.094 32.8529 116.696 34.8636 115.017 37.2789C113.325 39.682 111.964 41.6437 111.988 41.6437C112.013 41.6437 114.195 40.6261 116.856 39.3755C120.742 37.5364 121.699 37.1318 121.809 37.2544C122.606 38.1127 124.335 40.4544 124.249 40.5403C124.077 40.7119 108.752 48.1418 108.592 48.1296C108.433 48.1296 105.319 44.4146 105.319 44.2307C105.319 44.1694 106.655 42.1954 108.298 39.8414C109.941 37.4996 111.314 35.5134 111.363 35.4276C111.461 35.2682 111.535 35.2437 105.772 37.61C103.492 38.5418 101.591 39.3142 101.53 39.3142C101.469 39.3142 100.696 38.4805 99.8136 37.4628L98.2075 35.6115L98.4649 35.2927C98.6121 35.1088 101.04 31.9946 103.884 28.3655C106.716 24.7363 109.07 21.7938 109.119 21.806C109.168 21.8306 109.781 22.5172 110.468 23.3386ZM30.909 24.2704C31.5711 24.4789 32.8339 25.3126 33.3611 25.9134C34.1703 26.8452 34.6485 28.5126 34.3542 29.3463L34.2316 29.7141L35.0286 29.4199C36.5734 28.8559 37.8608 29.1379 39.4056 30.364C40.3619 31.1118 40.693 31.6636 40.9627 32.9142C41.1956 34.0544 40.6807 35.636 39.6753 36.8253C39.4546 37.0828 37.9466 38.9219 36.3159 40.9081C34.6853 42.8943 32.9197 45.0276 32.4048 45.6284C31.8776 46.2414 31.2523 46.9771 31.0071 47.2713L30.5657 47.8108L28.1871 45.7878C26.8752 44.6843 23.994 42.2445 21.7626 40.3686C19.5434 38.4927 17.7043 36.9111 17.6798 36.8498C17.6185 36.7027 26.1151 26.3793 26.8262 25.7294C27.5373 25.0796 28.3097 24.6137 29.1189 24.3317C29.8668 24.0743 30.2101 24.062 30.909 24.2704ZM74.3483 28.7088C82.3177 29.5548 89.7599 32.6199 96.0619 37.6713C97.8029 39.0567 100.929 42.1832 102.303 43.9119C107.158 50.0054 110.063 56.7856 111.167 64.571C111.437 66.496 111.473 72.8592 111.228 74.87C110.26 82.6187 107.194 89.8892 102.303 96.0195C100.917 97.7605 97.7906 100.875 96.0619 102.26C90.0787 107.017 83.5683 109.862 75.8932 111.063C74.3238 111.308 73.6495 111.333 70.1307 111.345C66.9797 111.345 65.8272 111.296 64.6502 111.125C56.7789 110.009 50.0601 107.115 43.9543 102.26C42.2255 100.875 39.0991 97.7482 37.7136 96.0195C32.086 88.9574 28.9841 80.7673 28.5795 71.9274C28.1258 61.6285 31.2523 52.0162 37.7136 43.9119C39.0991 42.1832 42.2133 39.0567 43.9543 37.6713C50.2072 32.6812 57.6861 29.567 65.4716 28.721C67.5805 28.4881 72.2395 28.4881 74.3483 28.7088Z" fill="#353535"/>
<path d="M28.0768 29.0892C27.9051 29.1995 26.6546 30.634 25.2936 32.2769L22.817 35.2563L23.5771 35.9061C23.994 36.2739 24.6561 36.8256 25.0362 37.1567L25.735 37.7329L28.2484 34.8026C29.6339 33.1842 30.8232 31.713 30.8967 31.5413C31.191 30.7566 30.8599 29.7635 30.1366 29.2486C29.6216 28.8808 28.5182 28.7949 28.0768 29.0892Z" fill="#353535"/>
<path d="M33.6186 33.2697C33.3979 33.3801 33.0914 33.6375 32.9443 33.846C32.7971 34.0544 31.6691 35.4644 30.4431 36.9724C29.2048 38.4927 28.1994 39.7556 28.2117 39.7924C28.2117 39.8291 28.6653 40.2337 29.217 40.6874C29.7688 41.141 30.4553 41.7173 30.7373 41.9502L31.2523 42.3916L33.7167 39.4368C35.0776 37.8184 36.3037 36.2858 36.4508 36.0406C36.8063 35.4276 36.8186 34.4345 36.463 33.9563C35.9971 33.331 35.4699 33.0613 34.7098 33.0613C34.3297 33.0613 33.8393 33.1594 33.6186 33.2697Z" fill="#353535"/>
<path d="M66.8816 31.4186C56.8769 32.3995 49.2754 35.8815 42.5933 42.5512C40.46 44.6846 39.5404 45.8126 37.9466 48.2034C34.7343 53.0586 32.5519 58.441 31.6323 63.7743C31.3626 65.3682 31.0561 69.4265 31.1787 69.7575C31.2523 69.9537 32.6868 69.966 50.6363 69.966H70.008V89.3377V108.709H70.4739C71.418 108.709 75.0226 108.317 76.7146 108.035C84.8434 106.662 91.5254 103.229 97.3615 97.4297C101.665 93.163 105.024 87.609 107.035 81.4174C108.114 78.0825 108.617 75.3238 108.715 72.1974L108.788 69.966H89.4166H70.0448L69.9713 56.1482C69.9222 48.5589 69.8854 39.8416 69.8854 36.7765V31.2224L69.2479 31.2347C68.8923 31.247 67.8257 31.3205 66.8816 31.4186Z" fill="#353535"/>
</svg>
