<svg width="140" height="122" viewBox="0 0 140 122" fill="none" xmlns="http://www.w3.org/2000/svg">
<path d="M58.2508 19.6645C51.9019 30.6833 46.7073 39.8132 46.6548 39.9706C46.6023 40.2067 69.3746 79.9795 69.8206 80.4517C69.9518 80.6091 93.17 40.4691 93.1438 40.1018C93.1438 39.682 70.6863 0.670142 70.0829 0.01426C69.8206 -0.274328 67.4594 3.6872 58.2508 19.6645Z" fill="#353535"/>
<path d="M22.4659 81.7373C19.8423 86.1973 0.139629 120.408 0.00845206 120.749C-0.14896 121.143 1.68751 121.169 23.0693 121.169C41.329 121.169 46.34 121.09 46.5499 120.854C46.681 120.67 51.6658 112.065 57.6212 101.755C63.5766 91.4444 68.7449 82.4981 69.086 81.8685L69.7419 80.7666H46.3925H23.043L22.4659 81.7373Z" fill="#353535"/>
<path d="M71.762 83.8361C72.7327 85.5414 77.7699 94.1991 82.9382 103.067C88.0804 111.934 92.5928 119.647 92.9339 120.172L93.5635 121.169H116.782C129.558 121.169 140 121.09 140 120.959C140 120.854 134.805 111.803 128.456 100.837L116.939 80.8978L93.4586 80.8191L69.978 80.7666L71.762 83.8361Z" fill="#353535"/>
</svg>
