<svg width="114" height="143" viewBox="0 0 114 143" fill="none" xmlns="http://www.w3.org/2000/svg">
<path d="M40.2987 0.238363C39.9337 0.457313 38.3038 3.10905 35.9196 7.41508C33.9248 10.9913 28.4023 20.7711 27.4536 22.3767C26.9427 23.2525 25.5803 25.661 24.4126 27.7288C19.693 36.0733 13.6353 46.7289 6.09371 59.9632C0.863222 69.1348 0.109059 70.5701 0.0117473 71.6406C-0.0369084 72.5164 0.0604029 73.1002 0.400993 73.7084C1.2768 75.3627 14.4138 98.3282 17.8441 104.24C18.6225 105.578 19.8389 107.646 20.5201 108.862C30.3486 125.843 39.5202 140.878 40.9555 142.289L41.5637 142.921L56.428 142.994C65.8429 143.018 71.6086 142.97 72.1681 142.8C72.7763 142.629 73.2142 142.313 73.5305 141.778C80.9505 128.933 106.422 84.51 108.1 81.4933C108.66 80.4959 109.73 78.6227 110.46 77.3576C113.501 72.1271 113.866 71.0324 113.161 69.3781C112.966 68.8915 111.701 66.6047 110.363 64.3422C105.084 55.3896 103.819 53.2487 101.41 49.1373C100.048 46.8018 98.0043 43.3473 96.9095 41.4741C95.1579 38.4817 91.5574 32.3998 87.1054 24.8095C86.3513 23.5444 85.3052 21.7198 84.7456 20.7954C84.1861 19.8466 82.7751 17.4381 81.583 15.4433C80.4153 13.4241 78.9799 11.0156 78.4204 10.0911C77.8608 9.14235 76.3282 6.5636 74.9902 4.32544C73.4575 1.72236 72.4114 0.214035 72.0951 0.141052C71.195 -0.102227 40.7366 -0.00491552 40.2987 0.238363ZM71.4383 2.35489C71.9735 3.13338 75.2578 8.70445 85.6701 26.3908C106.495 61.8365 111.093 69.743 111.166 70.3025L111.263 70.9107H96.8366H82.3858L80.3909 67.5048C79.2719 65.6316 76.7418 61.3499 74.7712 58.017C65.0157 41.547 59.323 31.7672 59.323 31.4753C59.323 31.305 59.5177 30.6968 59.7853 30.113C61.1963 26.8773 67.6188 12.0374 68.8352 9.16668C69.6137 7.34209 70.2706 5.6878 70.2706 5.49318C70.2706 5.10393 69.6867 4.812 69.2488 5.00662C69.0785 5.0796 60.4178 20.0656 49.9811 38.3358L31.0541 71.5189H16.6033C8.64813 71.5189 2.1526 71.4703 2.1526 71.3973C2.1526 70.9837 3.19869 68.9888 5.87476 64.2936C7.52905 61.3742 10.9106 55.4382 13.3921 51.0835C15.8735 46.7289 20.8607 37.9708 24.4856 31.6213C28.1104 25.2717 33.1463 16.392 35.7007 11.9157C38.2308 7.4394 40.5906 3.30367 40.9312 2.7198L41.5637 1.69803H56.2577H70.9761L71.4383 2.35489ZM61.3909 46.6315C63.9453 51.0106 66.4024 55.2436 66.889 56.0464C72.8007 66.0938 75.3794 70.4972 75.501 70.8378C75.5984 71.081 75.3794 71.7379 74.9902 72.4191C74.6252 73.0516 73.8468 74.4383 73.2872 75.46C72.7033 76.5061 71.7302 78.2091 71.1464 79.2309C70.5625 80.277 68.519 83.9261 66.6214 87.332C64.7238 90.7379 62.6803 94.3871 62.0964 95.4089C61.5125 96.455 60.5151 98.2066 59.8826 99.3013C59.25 100.42 58.3256 102.026 57.839 102.878L56.9146 104.41L55.6009 102.391C53.1924 98.6445 48.8134 91.2488 45.8211 85.8724C45.0426 84.4613 44.2641 83.099 44.1181 82.8314C43.9478 82.5638 42.7071 80.3743 41.3691 77.9658C40.031 75.5574 38.6444 73.0759 38.3038 72.4677L37.6712 71.373L39.0579 68.9402C39.8121 67.6265 43.4856 61.1553 47.2321 54.6111C50.9786 48.0426 54.5548 41.7903 55.163 40.6712C55.7712 39.5765 56.3794 38.6764 56.5253 38.6764C56.647 38.6764 58.8608 42.2769 61.3909 46.6315ZM81.9479 71.3973C81.9479 71.5433 79.5638 75.7276 62.1694 106.186C43.8748 138.226 44.3371 137.447 43.8748 137.447C43.0477 137.447 43.364 136.353 45.6021 131.219C52.7059 114.944 54.2142 111.441 54.2142 111.1C54.2142 110.979 53.2167 109.154 52.0003 107.062C47.2807 99.0337 42.2449 90.373 39.0093 84.7776C37.1604 81.5663 34.7276 77.3576 33.6085 75.4357C32.4894 73.5138 31.5893 71.8595 31.5893 71.7379C31.5893 71.6162 32.4408 71.5189 33.4869 71.5189H35.3601L37.7686 75.7033C42.5611 84.0234 52.7059 101.467 54.9683 105.213C57.0362 108.643 56.8416 108.741 60.8314 101.758C62.6559 98.5715 65.0887 94.2655 66.2565 92.1976C69.4921 86.4806 70.3435 84.9479 71.5356 82.8314C72.1438 81.761 73.7008 78.9632 75.0145 76.6278C76.3282 74.2923 77.5446 72.1271 77.7149 71.8109C78.0311 71.3243 78.2501 71.2757 80.0017 71.2757C81.0721 71.2757 81.9479 71.3243 81.9479 71.3973Z" fill="#353535"/>
</svg>
