<svg width="200" height="115" viewBox="0 0 200 115" fill="none" xmlns="http://www.w3.org/2000/svg">
<path d="M91.6069 0.0902987C90.7084 0.137586 89.6445 0.196695 89.2425 0.243982C88.8288 0.279447 88.0131 0.338556 87.422 0.374021C86.4881 0.444952 84.6793 0.622278 82.6342 0.846892C80.8964 1.04786 76.877 1.67442 74.6545 2.1C52.0513 6.41495 34.8388 16.6408 29.2116 29.1364C28.5259 30.6378 27.8757 32.6593 27.5329 34.3025C27.1783 36.0048 27.0955 39.6223 27.3556 41.3956C28.6796 50.1673 35.0752 58.0761 46.0458 64.4953C55.586 70.0752 67.9752 74 81.6884 75.7851C83.6627 76.0452 85.2586 76.1988 88.7815 76.5062C92.5408 76.8254 104.705 76.8254 107.696 76.5062C107.921 76.4826 108.559 76.4353 109.115 76.3998C110.38 76.3052 111.716 76.1634 114.789 75.7851C123.809 74.662 132.676 72.4513 140.336 69.4132C154.723 63.6914 164.535 55.4162 168.023 46.0652C168.957 43.5589 169.3 41.6556 169.359 38.7948C169.394 36.324 169.264 35.0591 168.744 33.0257C164.855 17.6811 143.895 4.99633 116.09 1.15426C112.354 0.6341 108.748 0.291269 104.918 0.0784769C102.79 -0.027919 93.8767 -0.027919 91.6069 0.0902987ZM103.263 4.74808C104.694 4.78354 106.053 4.84265 106.278 4.86629C106.502 4.88994 107.176 4.93722 107.755 4.98451C108.914 5.06726 112.236 5.37463 112.898 5.45738C113.123 5.48103 113.974 5.59924 114.789 5.69382C123.49 6.79324 132.948 9.28764 140.147 12.3968C144.001 14.0636 146.862 15.5886 149.983 17.6456C159.038 23.6274 163.838 30.7796 163.873 38.3219C163.885 41.3956 163.33 43.7481 161.899 46.7154C156.473 57.9224 140.159 66.9779 118.88 70.5953C115.369 71.1864 111.255 71.6948 108.228 71.9075C107.578 71.943 106.916 72.0021 106.751 72.0139C104.871 72.2386 96.442 72.3213 92.7536 72.1558C89.7982 72.0258 88.214 71.9075 84.7621 71.5411C62.5372 69.1413 43.977 60.6414 36.5175 49.4344C35.0161 47.2 33.8103 44.3155 33.2546 41.6911C32.9355 40.1306 32.9591 36.6077 33.3256 34.9527C34.0585 31.548 35.5835 28.4744 38.0306 25.4362C39.0473 24.1831 41.3998 21.8069 42.6766 20.7429C49.6987 14.8793 60.1846 10.1624 72.1719 7.4789C75.6948 6.68685 80.459 5.8475 82.9888 5.5756C83.3435 5.54013 83.8282 5.48103 84.0528 5.45738C84.7621 5.36281 85.3768 5.29188 86.1807 5.22095C86.6063 5.18548 87.1856 5.12637 87.4811 5.10273C89.5972 4.88994 92.1389 4.77172 95.8154 4.70079C98.1562 4.66532 100.201 4.64168 100.367 4.6535C100.532 4.66532 101.833 4.70079 103.263 4.74808Z" fill="#353535"/>
<path d="M78.1537 8.36574C78.0355 8.49578 77.87 8.85043 77.7873 9.1578C77.5035 10.269 75.8603 15.3288 75.1037 17.3976C74.0161 20.4003 73.1413 22.0908 72.1956 22.9774C71.7936 23.3557 71.1316 23.8404 70.7415 24.0414C69.7012 24.597 67.786 25.1999 66.0246 25.5428C64.3577 25.862 64.1213 25.8974 59.4044 26.5003C56.6381 26.8668 51.2237 27.6234 48.8239 27.9899C48.3983 28.0608 46.1286 28.3682 43.776 28.6874C41.4117 29.0065 39.3901 29.3257 39.2719 29.3848C38.3617 29.8695 38.7636 30.6143 40.0049 30.768C40.7969 30.8626 50.1598 32.1038 51.9567 32.3521C54.6521 32.7186 60.3265 33.5106 62.3007 33.7707C68.188 34.5746 70.5996 35.2603 71.8527 36.4779C72.8458 37.4473 73.827 39.2206 74.5717 41.3958C75.0682 42.8853 75.3401 43.8783 75.9431 46.5973C76.7233 50.0966 77.9055 54.8253 78.0946 55.1918C78.1892 55.3691 78.402 55.5582 78.5675 55.5937C79.1586 55.7474 79.2768 55.44 80.2225 51.728C82.3977 43.1336 83.1662 40.5209 83.9937 38.8895C85.0813 36.7262 86.7482 35.4376 89.3726 34.7283C91.4177 34.1727 110.652 31.8083 116.858 31.3473C117.378 31.3 118.395 31.229 119.104 31.1817C120.346 31.0872 123.975 31.1108 124.601 31.2172C124.767 31.2409 125.346 31.3 125.902 31.3473C126.457 31.3945 127.096 31.4418 127.32 31.4773C127.545 31.5009 128.644 31.631 129.744 31.761C132.215 32.0566 133.338 32.2812 133.905 32.5767C134.425 32.8368 135.016 33.4397 135.277 33.948C135.537 34.48 136.116 36.336 136.601 38.263C137.18 40.5209 137.452 40.9584 138.066 40.6273C138.409 40.45 138.433 40.3909 139.379 37.3172C139.84 35.7922 140.36 34.2791 140.537 33.9717C141.14 32.8604 142.547 32.2339 145.053 31.9383C147.394 31.6664 152.915 30.6379 153.269 30.4133C153.778 30.0823 153.588 29.4321 152.903 29.2312C152.761 29.1839 151.803 29.0302 150.775 28.8765C146.354 28.2145 142.854 27.5998 142.31 27.387C141.459 27.0678 140.821 26.5831 140.514 26.0393C140.36 25.7674 139.875 24.597 139.45 23.4267C138.421 20.6604 138.374 20.5658 138.078 20.4712C137.546 20.3057 137.322 20.6486 136.683 22.6228C136.34 23.6513 135.915 24.7744 135.738 25.1054C134.745 27.0087 133.468 27.6589 129.921 28.0372C129.046 28.1317 127.9 28.2618 127.38 28.3327C124.034 28.7701 123.585 28.8056 120.878 28.7938C117.674 28.7938 118.076 28.8292 106.869 27.4579C104.493 27.1623 100.958 26.7368 99.0073 26.5003C91.6897 25.6255 89.148 25.1408 87.0673 24.1951C85.2823 23.3912 83.8636 21.6298 82.7642 18.8516C82.4332 18.0123 80.2462 11.2384 79.6906 9.34694C79.5487 8.88589 79.3477 8.42485 79.2295 8.31845C78.934 8.04655 78.4374 8.07019 78.1537 8.36574Z" fill="#353535"/>
<path d="M117.035 34.1252C116.704 34.4562 116.456 35.0709 115.912 36.7969C115.428 38.3692 114.931 39.5159 114.47 40.1897C113.773 41.2064 111.716 41.762 107.046 42.2231C103.452 42.5777 101.312 42.9442 100.757 43.3107C100.379 43.5589 100.438 43.9254 100.934 44.2091C101.407 44.481 103.547 44.9303 105.616 45.1785C106.467 45.2849 107.401 45.3913 107.696 45.4268C111.231 45.8524 113.063 46.2543 113.914 46.7863C114.553 47.1764 114.837 47.8148 115.735 50.9121C116.208 52.508 116.693 53.9975 116.811 54.234C117.024 54.6477 117.366 54.8605 117.603 54.7069C117.839 54.5532 118.218 53.6193 118.513 52.4371C119.778 47.4483 120.215 46.7626 122.438 46.2543C123.502 46.0179 128.81 45.1549 130.571 44.9421C132.498 44.7056 135.525 44.8002 138.256 45.1785C141.944 45.6868 142.913 46.0533 143.563 47.1527C143.717 47.4365 144.095 48.4886 144.403 49.4935C144.71 50.4983 145.112 51.6568 145.301 52.0706C145.609 52.7563 145.668 52.8154 145.963 52.7799C146.401 52.7326 146.59 52.3307 147.11 50.2973C147.796 47.6611 148.422 46.5735 149.675 45.9469C150.302 45.6159 152.193 45.2022 154.451 44.883C157.537 44.4456 158.246 44.3273 158.601 44.1618C159.18 43.8781 159.097 43.2279 158.447 42.9797C158.305 42.9324 157.383 42.7432 156.414 42.5895C154.688 42.3058 149.983 41.2891 149.474 41.0882C149.084 40.9463 148.375 40.2843 148.044 39.7641C147.89 39.5159 147.571 38.7711 147.346 38.1091C146.602 35.9812 146.176 35.3783 145.644 35.662C145.337 35.8275 145.136 36.2176 144.332 38.2628C143.965 39.2085 143.504 40.1661 143.303 40.3907C142.594 41.2419 141.53 41.5729 137.31 42.294C135.064 42.6841 131.623 42.6959 128.975 42.3413C127.841 42.1876 126.375 41.9985 125.724 41.9275C124.058 41.7384 122.332 41.3719 121.61 41.0527C120.31 40.4734 119.435 39.1258 118.56 36.3122C118.005 34.5507 117.839 34.1843 117.508 34.0069C117.319 33.9124 117.225 33.936 117.035 34.1252Z" fill="#353535"/>
<path d="M96.1346 48.0989C95.8627 48.4535 95.4963 49.3284 94.9288 51.0543C94.2313 53.1586 93.6521 54.2462 93.0137 54.6482C92.0325 55.2747 89.9755 55.7239 86.6536 56.0431C82.5041 56.4451 80.2344 56.847 79.7733 57.2726C79.5014 57.4972 79.5132 57.6036 79.7851 57.8755C80.2344 58.3247 82.1731 58.7267 86.1216 59.1877C91.3232 59.8024 92.6827 60.1335 93.4393 60.9728C93.8649 61.4338 93.9831 61.753 95.449 66.5172C95.8982 67.9831 96.1228 68.4087 96.4538 68.4087C96.9385 68.4087 97.104 68.0422 97.837 65.3587C98.9719 61.1974 99.4093 60.559 101.49 60.098C102.968 59.767 107.685 59.034 110.297 58.7267C111.456 58.5966 114.825 58.5966 116.031 58.7267C118.147 58.9749 120.594 59.3296 121.764 59.5542C124.164 60.0389 124.424 60.3226 125.606 63.81C126.304 65.8434 126.363 65.9852 126.741 66.0798C127.143 66.1862 127.51 65.7015 127.852 64.6257C128.325 63.1716 128.964 61.5639 129.295 61.0437C129.673 60.429 130.418 59.9325 131.328 59.6606C132.049 59.4478 138.658 58.4311 140.265 58.2893C141.365 58.1947 142.18 58.0055 142.334 57.8282C142.405 57.7336 142.452 57.5208 142.429 57.3317C142.393 57.048 142.31 56.977 141.79 56.7997C141.459 56.6933 139.674 56.4096 137.83 56.1732C131.505 55.3811 130.311 55.1092 129.472 54.3053C128.928 53.797 128.727 53.3596 128.148 51.5036C127.521 49.5293 127.368 49.1983 126.989 49.021C126.741 48.9146 126.635 48.9264 126.387 49.1156C126.15 49.2929 125.949 49.7421 125.476 51.1607C125.145 52.1656 124.767 53.2059 124.625 53.4778C124.282 54.128 123.715 54.7782 123.266 55.0028C122.828 55.2392 120.783 55.6766 118.3 56.0668C114.967 56.5987 110.013 56.5515 105.982 55.9485C105.793 55.9131 105.096 55.8303 104.445 55.7594C102.778 55.5703 101.324 55.2392 100.544 54.8728C99.3856 54.3171 98.4399 52.804 97.6478 50.2032C97.435 49.5175 97.1631 48.7727 97.0449 48.5363C96.773 47.9807 96.3829 47.8033 96.1346 48.0989Z" fill="#353535"/>
<path d="M5.88724 89.2146C3.05002 89.6993 1.06396 91.5199 0.283722 94.3571C0 95.3619 -0.0591088 98.2464 0.177327 99.2631C0.721128 101.616 2.35253 103.247 4.75235 103.862C5.39073 104.027 6.26554 104.098 8.0388 104.157C9.37466 104.193 11.2307 104.252 12.1764 104.287C13.1222 104.311 14.8481 104.37 16.0185 104.406C22.5086 104.595 22.5086 104.595 22.9342 104.808C24.1046 105.41 24.2346 107.692 23.147 108.673L22.686 109.075L15.4156 109.052L8.13338 109.016L7.67233 108.496C7.3295 108.118 7.17581 107.81 7.06942 107.29L6.92756 106.593H3.46378H0V107.881C0 109.453 0.141861 110.21 0.591088 111.179C1.26493 112.61 2.62443 113.615 4.6696 114.182C5.61534 114.442 5.65081 114.454 15.0728 114.454C25.5232 114.454 25.3932 114.466 27.0364 113.686C28.0412 113.225 29.0461 112.22 29.5308 111.191C30.7484 108.638 30.5829 104.642 29.1643 102.431C28.3604 101.178 26.8354 100.102 25.204 99.6651C24.4711 99.4759 22.6269 99.3222 19.4468 99.2158C18.3474 99.1685 16.9288 99.1213 16.314 99.0858C13.6423 98.9558 12.602 98.9085 10.876 98.8494C8.02698 98.743 7.54229 98.6957 7.2231 98.4592C6.65566 98.0455 6.45469 97.6435 6.4074 96.8397C6.34829 95.9176 6.66748 95.1491 7.25857 94.7827C7.63686 94.5462 7.83783 94.5344 14.6945 94.5344C22.2959 94.5226 22.0712 94.5108 22.6623 95.1491C22.9579 95.4683 23.1707 95.9648 23.1707 96.3786V96.6623H26.7172H30.2637L30.2283 94.9718C30.1692 92.773 29.9327 91.9927 28.9988 90.9879C28.2777 90.2076 27.4029 89.7111 26.1143 89.3683C25.4404 89.191 24.4001 89.1673 15.9003 89.1437C10.6987 89.1319 6.19461 89.1673 5.88724 89.2146Z" fill="#353535"/>
<path d="M33.4557 99.2395C33.4557 107.964 33.4793 109.477 33.633 110.08C34.1414 112.019 35.4654 113.284 37.7706 114.052L38.5982 114.336L47.8664 114.371C55.6688 114.395 57.2647 114.371 57.974 114.23C60.5748 113.698 62.2417 112.385 62.9155 110.399C63.1756 109.607 63.1756 109.595 63.2229 99.3459L63.2584 89.0965H59.9483H56.6382L56.6027 97.8682C56.5672 106.534 56.5672 106.664 56.319 107.196C56.1771 107.491 55.8816 107.869 55.6688 108.023L55.2669 108.307L48.7058 108.342C44.048 108.366 42.0028 108.342 41.6482 108.236C41.3881 108.165 40.998 107.94 40.797 107.728C40.0641 106.971 40.0759 107.196 40.0759 97.7145V89.0965H36.7658H33.4557V99.2395Z" fill="#353535"/>
<path d="M66.9112 101.746V114.395L79.4186 114.371L91.9142 114.336L92.6235 114.052C93.5811 113.662 94.846 112.397 95.3662 111.321C95.9573 110.104 96.2528 108.933 96.2883 107.598C96.3947 104.358 95.5081 102.065 93.7466 101.036C93.6166 100.954 93.652 100.883 93.9239 100.67C95.5317 99.4405 96.2055 97.6436 96.0755 94.9482C95.9336 92.0282 94.716 90.2431 92.2925 89.4038C91.5596 89.1555 91.465 89.1555 79.2413 89.1201L66.9112 89.0846V101.746ZM88.3559 94.8063C89.4908 95.4447 89.6917 97.4781 88.7224 98.542L88.3322 98.9676L80.7545 99.0267L73.1767 99.0858V96.8042V94.5344H80.5417H87.8948L88.3559 94.8063ZM88.6632 104.11C89.5026 104.536 89.94 105.552 89.81 106.782C89.6917 107.976 88.9351 109.004 88.1313 109.075C88.0012 109.087 84.5847 109.099 80.5417 109.087L73.1767 109.075V106.474V103.874H80.6836C87.9421 103.874 88.214 103.885 88.6632 104.11Z" fill="#353535"/>
<path d="M109.257 89.7112C109.068 90.054 108.725 90.6806 108.5 91.1061C107.554 92.8439 103.381 100.552 103.027 101.214C102.566 102.053 98.9955 108.661 98.3572 109.844C98.1089 110.293 97.4823 111.463 96.9504 112.433C96.4184 113.402 95.9928 114.241 95.9928 114.3C95.9928 114.348 97.6833 114.395 99.7521 114.395H103.5L104.717 112.208L105.947 110.021H113.253H120.558L121.776 112.208L122.994 114.395H126.93H130.879L130.678 114.017C130.501 113.674 128.928 110.778 126.197 105.765C125.157 103.862 118.537 91.6381 117.804 90.2786L117.201 89.1555L113.406 89.1201L109.611 89.0964L109.257 89.7112ZM115.534 100.209C116.752 102.55 117.745 104.512 117.745 104.583C117.745 104.666 116.208 104.701 113.193 104.701C110.132 104.701 108.642 104.666 108.642 104.583C108.642 104.512 108.713 104.335 108.808 104.193C108.89 104.051 109.883 102.171 111.006 100.032C113.383 95.4802 113.123 95.9531 113.229 95.9531C113.276 95.9531 114.305 97.8682 115.534 100.209Z" fill="#353535"/>
<path d="M132.522 101.746V114.395H135.891H139.26V109.903V105.41H146.271C150.834 105.41 153.423 105.458 153.718 105.541C154.38 105.718 155.054 106.38 155.267 107.042C155.515 107.822 155.563 108.65 155.574 111.7V114.395H158.825H162.076V111.522C162.076 108.46 161.935 107.006 161.485 105.647C161.107 104.5 160.551 103.543 159.901 102.904C159.582 102.597 159.381 102.337 159.44 102.337C159.499 102.337 159.807 102.089 160.126 101.769C160.811 101.096 161.414 99.8897 161.674 98.6721C161.923 97.5254 161.828 94.9837 161.497 93.7424C160.811 91.118 159.298 89.5575 157.111 89.2147C156.627 89.1437 151.945 89.0964 144.438 89.0964H132.522V101.746ZM154.109 94.9246C154.936 95.362 155.338 96.0831 155.338 97.1707C155.338 98.211 154.771 98.9913 153.825 99.2632C153.411 99.3696 139.367 99.4405 139.249 99.3341C139.225 99.3104 139.213 98.2701 139.237 97.0288L139.272 94.7709L145.68 94.7472C153.541 94.7 153.695 94.7118 154.109 94.9246Z" fill="#353535"/>
<path d="M164.937 99.3459C164.985 109.56 164.985 109.607 165.245 110.376C165.859 112.232 167.302 113.485 169.548 114.123C170.233 114.324 171.014 114.336 179.809 114.336C188.534 114.336 189.385 114.324 190.082 114.123C191.832 113.638 193.369 112.563 194.031 111.345C194.681 110.139 194.681 110.198 194.764 99.3105C194.835 90.6569 194.823 89.2383 194.669 89.1792C194.574 89.1437 193.061 89.1083 191.3 89.1083L188.084 89.0846V97.8446C188.084 107.314 188.096 107.066 187.458 107.751C186.878 108.378 187.056 108.366 179.951 108.366H173.343L172.822 108.094C172.42 107.881 172.219 107.668 171.971 107.172L171.64 106.534L171.652 97.8091V89.0965H168.283H164.902L164.937 99.3459Z" fill="#353535"/>
<path d="M197.483 110.836C196.714 111.155 196.23 112.172 196.466 112.976C196.868 114.335 198.346 114.808 199.374 113.898C200.344 113.059 200.154 111.451 199.031 110.919C198.606 110.718 197.873 110.682 197.483 110.836ZM198.854 111.143C199.859 111.664 199.942 113.248 199.008 113.862C197.79 114.655 196.253 113.212 196.892 111.876C197.27 111.084 198.109 110.765 198.854 111.143Z" fill="#353535"/>
<path d="M197.542 112.575C197.542 113.331 197.577 113.58 197.695 113.532C197.766 113.509 197.849 113.391 197.849 113.261C197.861 113.142 197.873 112.965 197.885 112.882C197.896 112.788 198.003 112.74 198.168 112.764C198.346 112.788 198.464 112.918 198.547 113.178C198.606 113.391 198.724 113.568 198.818 113.568C198.937 113.568 198.96 113.473 198.901 113.178C198.854 112.977 198.759 112.729 198.7 112.646C198.617 112.551 198.617 112.504 198.7 112.504C198.901 112.504 198.984 112.067 198.842 111.795C198.736 111.605 198.594 111.558 198.133 111.558H197.542V112.575ZM198.57 111.996C198.653 112.208 198.393 112.504 198.121 112.504C197.861 112.504 197.707 112.078 197.896 111.866C198.05 111.676 198.476 111.759 198.57 111.996Z" fill="#353535"/>
</svg>
