<svg width="145" height="145" viewBox="0 0 145 145" fill="none" xmlns="http://www.w3.org/2000/svg">
<path d="M22.1955 46.7183C22.1955 49.746 22.1955 141.241 22.1955 145H32.0626C32.0626 142.456 32.0626 49.541 32.0626 46.7183H22.1955Z" fill="#353535"/>
<path d="M0.744812 64.2176V127.501C0.744812 135.178 5.71588 141.711 12.6065 144.063C12.6065 141.473 12.6065 50.2455 12.6065 47.6553C5.71617 50.0073 0.744812 56.5408 0.744812 64.2176Z" fill="#353535"/>
<path d="M141.115 10.8644L108.863 0.241726C106.356 -0.584945 103.639 0.776131 102.809 3.29579L99.2487 14.1071C98.4203 16.6219 99.7876 19.3322 102.303 20.1608L105.223 21.1229L101.017 33.8937H99.8493C97.2014 33.8937 95.055 36.0403 95.055 38.688C95.055 40.6738 96.2626 42.3779 97.983 43.1057L95.0167 52.1119H92.9774C90.3295 52.1119 88.1831 54.2585 88.1831 56.9062C88.1831 59.1832 89.7718 61.0852 91.8998 61.5748L89.9233 67.5759L87.0027 66.6139C84.4867 65.7846 81.777 67.1528 80.9489 69.6679L77.3882 80.4789C77.0067 81.6375 77.0956 82.8349 77.5434 83.8731H53.991V64.2171C53.991 56.3633 48.7897 49.7021 41.6513 47.4951C41.6513 50.9026 41.6513 140.381 41.6513 144.223C48.7897 142.016 53.991 135.355 53.991 127.501V107.845H79.828C83.3037 112.085 88.5793 114.797 94.4775 114.797C104.428 114.797 112.605 107.081 113.353 97.3191C115.729 97.743 118.01 96.3471 118.749 94.1016L122.31 83.2903C123.138 80.7755 121.771 78.0649 119.256 77.2365L116.335 76.2748L121.135 61.7011H122.489C125.137 61.7011 127.284 59.5544 127.284 56.9068C127.284 54.8581 125.996 53.1147 124.189 52.4279L127.135 43.4829H128.58C131.228 43.4829 133.374 41.3363 133.374 38.6886C133.374 36.6096 132.048 34.8447 130.199 34.1803L131.634 29.822L134.555 30.7841C137.062 31.6108 139.778 30.2519 140.609 27.73L144.169 16.9187C144.998 14.4033 143.631 11.6928 141.115 10.8644ZM94.4778 105.208C89.3229 105.208 85.1293 101.015 85.1293 95.8594C85.1293 90.7048 89.3229 86.5112 94.4778 86.5112C99.6324 86.5112 103.826 90.7046 103.826 95.8594C103.826 101.014 99.6324 105.208 94.4778 105.208Z" fill="#353535"/>
</svg>
