<svg width="140" height="118" viewBox="0 0 140 118" fill="none" xmlns="http://www.w3.org/2000/svg">
<path d="M81.5833 63.2806C81.4722 63.3084 81.0278 63.3084 80.8333 63.3084H66.5V66.6433H81.0833C81.1944 66.6433 82.0556 66.6433 82.2222 66.6155C85.1944 66.3376 86.5556 63.8642 86.5556 61.6965C86.5556 59.4732 85.1389 57.0831 82.4444 56.833C81.9167 56.7774 81.4722 56.7774 81.2778 56.7774H71.75C71.3333 56.7774 70.8611 56.7496 70.6945 56.6941C69.9445 56.4995 69.6667 55.8325 69.6667 55.2767C69.6667 54.7765 69.9445 54.1095 70.7222 53.8871C70.9445 53.8316 71.1945 53.8038 71.7222 53.8038H85.4722V50.5244H71.5C70.9167 50.5244 70.4722 50.5522 70.1111 50.6078C67.7222 50.9413 66.0556 52.8589 66.0556 55.3045C66.0556 57.3055 67.3056 59.6399 70.0556 60.029C70.5556 60.0846 71.25 60.0846 71.5556 60.0846H80.8333C81 60.0846 81.4167 60.0846 81.5 60.1124C82.5556 60.2513 82.9167 61.0295 82.9167 61.7243C82.9167 62.3912 82.5 63.1138 81.5833 63.2806Z" fill="#2B2A29"/>
<path d="M54.4167 63.2806C54.3056 63.3084 53.8611 63.3084 53.6944 63.3084H39.3333V66.6433H53.9167C54.0278 66.6433 54.8889 66.6433 55.0556 66.6155C58.0278 66.3376 59.3889 63.8642 59.3889 61.6965C59.3889 59.4732 57.9722 57.0831 55.2778 56.833C54.75 56.7774 54.3056 56.7774 54.1111 56.7774H44.5833C44.1667 56.7774 43.6944 56.7496 43.5278 56.6941C42.7778 56.4995 42.5 55.8325 42.5 55.2767C42.5 54.7765 42.7778 54.1095 43.5556 53.8871C43.7778 53.8316 44.0278 53.8038 44.5556 53.8038H58.3056V50.5244H44.3333C43.75 50.5244 43.3056 50.5522 42.9444 50.6078C40.5556 50.9413 38.8889 52.8589 38.8889 55.3045C38.8889 57.3055 40.1389 59.6399 42.8889 60.029C43.3889 60.0846 44.0833 60.0846 44.3889 60.0846H53.6667C53.8333 60.0846 54.25 60.0846 54.3333 60.1124C55.3889 60.2513 55.75 61.0295 55.75 61.7243C55.75 62.3912 55.3611 63.1138 54.4167 63.2806Z" fill="#2B2A29"/>
<path d="M31.8611 50.4136H28.25V66.727H31.8611V50.4136Z" fill="#2B2A29"/>
<path d="M20.2778 66.727V50.4136H16.6667V62.5861L4.63889 50.4136H0V66.727H3.61111V54.4989L15.7222 66.727H20.2778Z" fill="#2B2A29"/>
<path d="M136.417 50.4136V62.5861L124.389 50.4136H119.75V66.727H123.361V54.4989L135.444 66.727H140V50.4136H136.417Z" fill="#2B2A29"/>
<path d="M100.944 50.4136L90.7778 66.727H95.1667L96.9722 63.8089H108.833L110.639 66.727H115L104.833 50.4136H100.944ZM106.972 60.7241H98.8333L102.917 54.1654L106.972 60.7241Z" fill="#2B2A29"/>
<path d="M20.0833 41.1587C27.3611 19.8985 47.4167 5.61382 70.0278 5.61382C92.6389 5.61382 112.722 19.8985 119.972 41.1587L120.028 41.3255H135.944V39.4079L129.333 38.6297C125.25 38.1573 124.389 36.3508 123.278 34.072L123 33.5161C113.444 13.173 92.6389 0 70.0278 0C47.3889 0 26.6111 13.173 17.0556 33.5717L16.7778 34.1276C15.6667 36.4064 14.8056 38.2129 10.7222 38.6853L4.11111 39.4635V41.381H20L20.0833 41.1587Z" fill="#2B2A29"/>
<path d="M120.028 75.8413L119.972 76.008C112.694 97.2683 92.6389 111.525 70.0278 111.525C47.4167 111.525 27.3333 97.2405 20.0833 75.9802L20.0278 75.8135H4.1389V77.7311L10.75 78.5092C14.8333 78.9817 15.6945 80.7881 16.8056 83.067L17.0833 83.6228C26.6389 104.022 47.4445 117.195 70.0556 117.195C92.6667 117.195 113.472 104.022 123.028 83.6506L123.306 83.0948C124.417 80.8159 125.278 79.0095 129.361 78.537L135.972 77.7589V75.8413H120.028Z" fill="#2B2A29"/>
</svg>
