<svg width="40" height="29" viewBox="0 0 40 29" fill="none" xmlns="http://www.w3.org/2000/svg">
<path d="M7 0H11.5789C12.0063 0 12.3879 0.167895 12.6626 0.442632L15.8374 3.63263L17.0584 2.42684C17.6842 1.83158 18.4474 1.52632 19.2105 1.52632H28.3684C29.1316 1.52632 29.8947 1.83158 30.5205 2.42684L32.0468 3.95316C32.6421 4.57895 32.9474 5.34211 32.9474 6.10526V25.9474C32.9474 26.757 32.6258 27.5334 32.0533 28.1059C31.4808 28.6784 30.7043 29 29.8947 29H14.6316C13.822 29 13.0455 28.6784 12.473 28.1059C11.9006 27.5334 11.5789 26.757 11.5789 25.9474V9.15789C11.5789 8.39474 11.8842 7.63158 12.4795 7.00579L13.6853 5.78474L10.9532 3.05263H7V0ZM19.2105 4.57895V7.63158H28.3684V4.57895H19.2105ZM19.8363 13.7368L16.7837 10.6842H14.6316V12.8363L17.6842 15.8889V20.7426L14.6316 23.7953V25.9474H16.7837L19.8363 22.8947H24.69L27.7426 25.9474H29.8947V23.7953L26.8421 20.7426V15.8889L29.8947 12.8363V10.6842H27.7426L24.69 13.7368H19.8363ZM20.7368 16.7895H23.7895V19.8421H20.7368V16.7895Z" fill="#353535"/>
</svg>
