<svg width="116" height="145" viewBox="0 0 116 145" fill="none" xmlns="http://www.w3.org/2000/svg">
<path fill-rule="evenodd" clip-rule="evenodd" d="M58 0C54.1544 0 50.4662 1.52767 47.747 4.24695C45.0277 6.96623 43.5 10.6544 43.5 14.5V21.75H36.25C32.8734 21.75 29.5432 22.5362 26.5231 24.0462C23.503 25.5563 20.8759 27.7487 18.85 30.45L4.35 49.7857C1.52637 53.5506 0 58.1297 0 62.8358V123.25C0 129.018 2.29151 134.551 6.37043 138.63C10.4493 142.708 15.9815 145 21.75 145H94.25C100.018 145 105.551 142.708 109.63 138.63C113.708 134.551 116 129.018 116 123.25V43.5C116 37.7315 113.708 32.1993 109.63 28.1204C105.551 24.0415 100.018 21.75 94.25 21.75V14.5C94.25 10.6544 92.7223 6.96623 90.003 4.24695C87.2838 1.52767 83.5956 0 79.75 0H58ZM79.75 21.75V14.5H58V21.75H79.75ZM43.5 72.5C43.5 70.5772 42.7362 68.7331 41.3765 67.3735C40.0169 66.0138 38.1728 65.25 36.25 65.25C34.3272 65.25 32.4831 66.0138 31.1235 67.3735C29.7638 68.7331 29 70.5772 29 72.5V108.75C29 110.673 29.7638 112.517 31.1235 113.877C32.4831 115.236 34.3272 116 36.25 116C38.1728 116 40.0169 115.236 41.3765 113.877C42.7362 112.517 43.5 110.673 43.5 108.75V72.5Z" fill="#353535"/>
</svg>
