<svg width="140" height="74" viewBox="0 0 140 74" fill="none" xmlns="http://www.w3.org/2000/svg">
<path d="M64.4958 0.991538C52.5081 1.54214 41.6771 3.46113 32.019 6.72424C14.6036 12.627 3.20639 22.0438 0.561332 32.7319C0.197333 34.1975 0.0679105 35.1772 0.0112884 36.8209C-0.150489 41.6548 1.42684 46.3106 4.7271 50.7316C16.0111 65.8568 45.1391 75.2899 76.1842 73.8567C97.4741 72.8851 116.734 66.8933 128.479 57.5979C131.278 55.3874 133.866 52.7316 135.654 50.2539C138.056 46.9017 139.544 43.1528 139.933 39.4686C140.07 38.1164 139.989 35.4606 139.763 34.1975C139.383 32.0517 138.816 30.3352 137.781 28.238C136.365 25.3717 134.683 23.0883 132.046 20.4649C123.083 11.5258 107.359 4.9024 88.7624 2.21419C85.2195 1.70408 81.6927 1.3559 77.1953 1.06441C75.4481 0.95915 66.4209 0.90247 64.4958 0.991538ZM74.1215 7.46916C81.806 7.71207 88.5278 8.48129 95.4762 9.89827C98.9382 10.6108 104.236 12.0035 105.531 12.5379C106.04 12.7565 106.437 13.1128 106.437 13.3719C106.437 13.6715 105.927 14.2626 105.045 14.967C98.9786 19.8495 89.9757 24.4324 77.6725 28.8696C72.3096 30.8048 67.1975 32.1894 64.3016 32.4971C63.1692 32.6104 60.7425 32.5457 60.0065 32.3756C58.0489 31.9222 56.8194 31.0558 56.14 29.655C55.6546 28.6591 55.5252 27.898 55.5818 26.3838C55.6546 24.2786 56.1885 22.3029 57.6202 18.8212C59.4726 14.295 60.5565 12.3841 62.328 10.546C63.6303 9.19383 64.8921 8.37603 66.3967 7.9226C67.0519 7.72827 68.1762 7.50965 68.8638 7.44487C69.5351 7.38009 71.703 7.39629 74.1215 7.46916ZM47.0885 9.91446C47.4606 10.1088 47.226 10.5136 45.5597 12.5784C37.8591 22.141 30.1666 35.6549 22.9028 52.3672C22.3042 53.7437 21.7299 55.0311 21.6167 55.2173C21.0504 56.1971 20.5247 56.1404 18.5995 54.8692C12.9858 51.1607 9.21642 47.0151 7.51776 42.6589C7.11332 41.6224 6.83021 40.5293 6.65225 39.3553C6.45812 38.0355 6.53092 35.8897 6.81403 34.5456C7.56629 30.991 9.60469 27.5903 12.9049 24.392C19.3194 18.1734 30.0695 13.1776 43.3029 10.2626C45.5921 9.76062 46.6032 9.66346 47.0885 9.91446ZM120.163 19.1289C120.697 19.3637 122.533 20.5944 123.868 21.5985C129.288 25.6794 132.483 30.2218 133.34 35.0395C133.405 35.4363 133.486 36.3108 133.51 36.9828C133.737 43.4281 129.587 49.6466 121.522 54.942C115.666 58.78 107.998 61.9055 98.9948 64.0998C94.3275 65.2415 93.1061 65.3629 93.0252 64.7071C92.9929 64.4399 93.276 64.0188 94.4974 62.529C98.2911 57.8975 102.788 51.1283 106.663 44.2297C110.052 38.1812 113.789 30.6429 116.685 23.9871C118.23 20.4406 118.376 20.1167 118.667 19.639C119.063 18.975 119.5 18.8212 120.163 19.1289ZM79.8485 42.4159C82.3641 42.8289 83.9172 44.092 84.4915 46.1811C84.6047 46.594 84.6371 46.9989 84.629 48.1567C84.629 49.9057 84.4429 50.9259 83.7554 53.0069C83.3105 54.3591 82.1619 57.2335 81.3853 58.9258C79.4117 63.2415 76.9607 65.8973 74.0406 66.8447C72.5846 67.3224 71.9052 67.3953 68.9204 67.3872C58.1217 67.371 46.6679 65.8245 37.1392 63.0958C36.3789 62.8771 35.5942 62.6342 35.4001 62.5695C35.2141 62.4966 34.8986 62.3832 34.7045 62.3103C34.5103 62.2456 34.2272 62.0674 34.0735 61.9136C33.8147 61.6788 33.7904 61.614 33.839 61.3792C33.9279 60.9824 34.0654 60.8124 34.8339 60.1565C37.9238 57.5169 43.1331 54.3348 48.7791 51.6304C55.1369 48.5859 64.4392 45.0799 70.3521 43.5009C74.7606 42.3107 77.4056 42.0111 79.8485 42.4159Z" fill="#353535"/>
</svg>
