<svg width="40" height="29" viewBox="0 0 40 29" fill="none" xmlns="http://www.w3.org/2000/svg">
<path fill-rule="evenodd" clip-rule="evenodd" d="M5.52077 7.58984L18.2989 13.7601C18.6316 13.9187 19.0757 14.0016 19.5152 14.0016C19.9547 14.0016 20.3988 13.9187 20.7309 13.7601L33.509 7.58984C34.1809 7.26618 34.1809 6.73667 33.509 6.41172L20.7309 0.241451C20.3988 0.0828571 19.9541 0 19.5152 0C19.0763 0 18.6316 0.0828571 18.2989 0.241451L5.52077 6.41172C4.84885 6.73667 4.84885 7.26489 5.52077 7.58984ZM33.509 13.9109C33.509 13.9109 31.1754 12.7859 30.866 12.6344C30.5566 12.4829 30.4731 12.4914 30.1481 12.6422C29.8232 12.793 20.7231 17.1883 20.7231 17.1883C20.3395 17.354 19.9252 17.4365 19.5074 17.4304C19.0692 17.4304 18.6239 17.3469 18.2918 17.1883C18.2918 17.1883 9.43318 12.916 9.0176 12.7102C8.56771 12.4933 8.43825 12.4933 8.02849 12.6875L5.50394 13.9032C4.83202 14.2268 4.83202 14.757 5.50394 15.0813L18.284 21.2516C18.6161 21.4102 19.0608 21.493 19.4997 21.493C19.9386 21.493 20.3833 21.4102 20.716 21.2516L33.4941 15.0826C34.1809 14.7641 34.1809 14.2359 33.509 13.9109ZM30.866 20.1317C31.1754 20.2851 33.509 21.4102 33.509 21.4102C34.1809 21.7351 34.1809 22.2633 33.5012 22.5915L20.7205 28.7585C20.3885 28.9171 19.9437 29 19.5049 29C19.066 29 18.6213 28.9243 18.2892 28.7585L5.51106 22.5883C4.8385 22.2633 4.8385 21.7338 5.51106 21.4102L8.03562 20.1945C8.44278 19.9977 8.57225 19.9977 9.02537 20.2171C9.4403 20.423 18.2989 24.6953 18.2989 24.6953C18.6316 24.8539 19.077 24.9368 19.5152 24.9368C19.9329 24.9429 20.3472 24.8607 20.7309 24.6953C20.7309 24.6953 29.8232 20.2903 30.1481 20.1395C30.4731 19.9886 30.5566 19.9783 30.866 20.1317Z" fill="#353535"/>
</svg>
