<svg width="40" height="29" viewBox="0 0 40 29" fill="none" xmlns="http://www.w3.org/2000/svg">
<path d="M10.8543 2.10111C10.8543 1.47319 11.2769 0.966026 12.1222 0.579615C12.9675 0.193205 14.0542 0 15.3825 0C18.0149 0 20.2426 0.911928 22.0655 2.73578C23.8884 4.55964 24.8003 6.78729 24.8013 9.41875C24.8013 10.0467 24.7409 10.6688 24.6201 11.2851C24.4994 11.9014 24.3183 12.4868 24.0768 13.0413L34.0389 23.0035C34.5944 23.5589 34.8784 24.2414 34.8909 25.051C34.9035 25.8605 34.6315 26.5425 34.0751 27.097L33.097 28.1113C32.5416 28.691 31.8591 28.987 31.0495 28.9996C30.24 29.0122 29.5459 28.7281 28.9673 28.1476L18.9689 18.1492C18.4134 18.3907 17.8338 18.566 17.23 18.6752C16.6263 18.7844 16.0225 18.8385 15.4187 18.8375C12.7863 18.8375 10.5587 17.9261 8.73578 16.1032C6.91289 14.2803 6.00097 12.0521 6 9.41875C6 8.09046 6.18741 7.00368 6.56223 6.15841C6.93704 5.31314 7.43793 4.8905 8.06488 4.8905C8.30639 4.8905 8.53002 4.93301 8.73578 5.01802C8.94155 5.10303 9.12847 5.22958 9.29656 5.39767L13.3176 9.41875L15.3825 7.3901L11.3614 3.36901C11.1924 3.19996 11.0654 3.00675 10.9803 2.7894C10.8953 2.57204 10.8533 2.34261 10.8543 2.10111Z" fill="#353535"/>
</svg>
