<svg width="23" height="29" viewBox="0 0 23 29" fill="none" xmlns="http://www.w3.org/2000/svg">
<path d="M5.52381 5.52381H20.7143C21.0805 5.52381 21.4318 5.6693 21.6908 5.92828C21.9497 6.18726 22.0952 6.53851 22.0952 6.90476V27.619C22.0952 27.9853 21.9497 28.3365 21.6908 28.5955C21.4318 28.8545 21.0805 29 20.7143 29H1.38095C1.0147 29 0.663451 28.8545 0.404472 28.5955C0.145493 28.3365 0 27.9853 0 27.619V13.8095L5.52381 5.52381ZM12.4286 0H19.3333C19.6996 0 20.0508 0.145493 20.3098 0.404472C20.5688 0.66345 20.7143 1.0147 20.7143 1.38095V4.14286H11.0476V1.38095C11.0476 1.0147 11.1931 0.66345 11.4521 0.404472C11.7111 0.145493 12.0623 0 12.4286 0ZM2.7619 15.1905V24.8571H5.52381V15.1905H2.7619Z" fill="#FBFBFB"/>
</svg>
