<svg width="28" height="29" viewBox="0 0 28 29" fill="none" xmlns="http://www.w3.org/2000/svg">
<path d="M13.7368 2.14312e-07C12.7235 -0.000323443 11.7443 0.365958 10.9799 1.03123C10.2155 1.6965 9.7176 2.61583 9.5781 3.61952C9.43859 4.62321 9.6669 5.64349 10.2209 6.492C10.7749 7.34051 11.6171 7.95996 12.5921 8.236V14.1184C12.5921 14.422 12.7127 14.7132 12.9274 14.9279C13.1421 15.1426 13.4332 15.2632 13.7368 15.2632C14.0404 15.2632 14.3316 15.1426 14.5463 14.9279C14.761 14.7132 14.8816 14.422 14.8816 14.1184V8.236C15.8544 7.95784 16.6941 7.33774 17.2462 6.48978C17.7982 5.64182 18.0255 4.62303 17.8862 3.62083C17.7469 2.61863 17.2504 1.70044 16.488 1.03517C15.7256 0.369904 14.7487 0.00230487 13.7368 2.14312e-07ZM3.81579 3.05263C2.80378 3.05263 1.83322 3.45465 1.11762 4.17025C0.40202 4.88585 0 5.85641 0 6.86842V25.1842C0 26.1962 0.40202 27.1668 1.11762 27.8824C1.83322 28.598 2.80378 29 3.81579 29C4.8278 29 5.79836 28.598 6.51396 27.8824C7.22956 27.1668 7.63158 26.1962 7.63158 25.1842V19.8421H9.92105V25.1842C9.92105 26.1962 10.3231 27.1668 11.0387 27.8824C11.7543 28.598 12.7248 29 13.7368 29C14.7489 29 15.7194 28.598 16.435 27.8824C17.1506 27.1668 17.5526 26.1962 17.5526 25.1842V19.8421H24.4211C25.2307 19.8421 26.0071 19.5205 26.5796 18.948C27.1521 18.3755 27.4737 17.5991 27.4737 16.7895V6.86842C27.4737 5.85641 27.0717 4.88585 26.3561 4.17025C25.6405 3.45465 24.6699 3.05263 23.6579 3.05263C22.6459 3.05263 21.6753 3.45465 20.9597 4.17025C20.2441 4.88585 19.8421 5.85641 19.8421 6.86842V12.2105H16.4079V14.5H22.1316V6.86842C22.1316 6.46362 22.2924 6.07539 22.5786 5.78915C22.8649 5.50291 23.2531 5.34211 23.6579 5.34211C24.0627 5.34211 24.4509 5.50291 24.7372 5.78915C25.0234 6.07539 25.1842 6.46362 25.1842 6.86842V16.7895C25.1842 16.9919 25.1038 17.186 24.9607 17.3291C24.8176 17.4722 24.6235 17.5526 24.4211 17.5526H15.2632V25.1842C15.2632 25.589 15.1024 25.9772 14.8161 26.2635C14.5299 26.5497 14.1416 26.7105 13.7368 26.7105C13.332 26.7105 12.9438 26.5497 12.6576 26.2635C12.3713 25.9772 12.2105 25.589 12.2105 25.1842V17.5526H5.34211V25.1842C5.34211 25.589 5.1813 25.9772 4.89506 26.2635C4.60882 26.5497 4.22059 26.7105 3.81579 26.7105C3.41099 26.7105 3.02276 26.5497 2.73652 26.2635C2.45028 25.9772 2.28947 25.589 2.28947 25.1842V6.86842C2.28947 6.46362 2.45028 6.07539 2.73652 5.78915C3.02276 5.50291 3.41099 5.34211 3.81579 5.34211C4.22059 5.34211 4.60882 5.50291 4.89506 5.78915C5.1813 6.07539 5.34211 6.46362 5.34211 6.86842V14.5H11.0658V12.2105H7.63158V6.86842C7.63158 5.85641 7.22956 4.88585 6.51396 4.17025C5.79836 3.45465 4.8278 3.05263 3.81579 3.05263Z" fill="#FBFBFB"/>
</svg>
