<svg width="40" height="29" viewBox="0 0 40 29" fill="none" xmlns="http://www.w3.org/2000/svg">
<path d="M8.89839 13.05C9.26797 13.0504 9.62344 13.1919 9.89218 13.4456C10.1609 13.6993 10.3226 14.0461 10.3443 14.415C10.366 14.784 10.2459 15.1473 10.0087 15.4307C9.7715 15.7141 9.43503 15.8962 9.06804 15.9399L8.89839 15.95H7.44839C7.07882 15.9496 6.72335 15.8081 6.45461 15.5544C6.18587 15.3007 6.02415 14.9539 6.00249 14.585C5.98084 14.216 6.10087 13.8528 6.33808 13.5693C6.57528 13.2859 6.91175 13.1038 7.27874 13.0602L7.44839 13.05H8.89839ZM20.4984 0C20.8535 4.68503e-05 21.1963 0.130436 21.4617 0.366437C21.7271 0.602438 21.8967 0.927636 21.9382 1.28035L21.9484 1.45V2.9C21.948 3.26958 21.8065 3.62505 21.5528 3.89378C21.2991 4.16252 20.9523 4.32424 20.5834 4.3459C20.2144 4.36756 19.8511 4.24752 19.5677 4.01032C19.2843 3.77311 19.1022 3.43664 19.0585 3.06965L19.0484 2.9V1.45C19.0484 1.06544 19.2012 0.696623 19.4731 0.424695C19.745 0.152767 20.1138 0 20.4984 0ZM33.5484 13.05C33.918 13.0504 34.2734 13.1919 34.5422 13.4456C34.8109 13.6993 34.9726 14.0461 34.9943 14.415C35.016 14.784 34.8959 15.1473 34.6587 15.4307C34.4215 15.7141 34.085 15.8962 33.718 15.9399L33.5484 15.95H32.0984C31.7288 15.9496 31.3733 15.8081 31.1046 15.5544C30.8359 15.3007 30.6742 14.9539 30.6525 14.585C30.6308 14.216 30.7509 13.8528 30.9881 13.5693C31.2253 13.2859 31.5618 13.1038 31.9287 13.0602L32.0984 13.05H33.5484ZM10.1932 4.19485C10.4429 3.94519 10.7751 3.79522 11.1275 3.77306C11.4799 3.7509 11.8283 3.85809 12.1072 4.0745L12.2435 4.19485L13.2585 5.20985C13.5186 5.47079 13.6696 5.82093 13.6808 6.18916C13.6921 6.55738 13.5627 6.91608 13.3191 7.1924C13.0754 7.46872 12.7357 7.64194 12.369 7.67688C12.0023 7.71181 11.636 7.60585 11.3445 7.3805L11.2082 7.26015L10.1932 6.24515C9.92141 5.97324 9.7687 5.60449 9.7687 5.22C9.7687 4.83551 9.92141 4.46677 10.1932 4.19485ZM28.7532 4.19485C29.0142 3.9348 29.3643 3.78381 29.7325 3.77257C30.1008 3.76133 30.4595 3.89066 30.7358 4.13431C31.0121 4.37796 31.1853 4.71765 31.2203 5.08439C31.2552 5.45113 31.1492 5.81741 30.9239 6.10885L30.8035 6.24515L29.7885 7.26015C29.5276 7.5202 29.1775 7.67119 28.8092 7.68243C28.441 7.69368 28.0823 7.56434 27.806 7.32069C27.5297 7.07704 27.3565 6.73735 27.3215 6.37061C27.2866 6.00387 27.3925 5.63759 27.6179 5.34615L27.7382 5.20985L28.7532 4.19485ZM23.3984 23.2C23.783 23.2 24.1518 23.3528 24.4237 23.6247C24.6956 23.8966 24.8484 24.2654 24.8484 24.65C24.8484 25.8037 24.3901 26.9101 23.5743 27.7259C22.7585 28.5417 21.6521 29 20.4984 29C19.3447 29 18.2383 28.5417 17.4225 27.7259C16.6067 26.9101 16.1484 25.8037 16.1484 24.65C16.1484 24.2948 16.2788 23.9521 16.5148 23.6867C16.7508 23.4213 17.076 23.2517 17.4287 23.2102L17.5984 23.2H23.3984ZM20.4984 5.8C22.3244 5.8 24.1041 6.37453 25.5854 7.44219C27.0667 8.50986 28.1745 10.0165 28.7519 11.7488C29.3294 13.4811 29.3471 15.3511 28.8027 17.0941C28.2582 18.837 27.1792 20.3644 25.7184 21.46C25.5185 21.6101 25.2833 21.706 25.0354 21.7384L24.8484 21.75H16.1484C15.8347 21.75 15.5294 21.6482 15.2784 21.46C13.8176 20.3644 12.7386 18.837 12.1941 17.0941C11.6497 15.3511 11.6674 13.4811 12.2448 11.7488C12.8223 10.0165 13.9301 8.50986 15.4114 7.44219C16.8927 6.37453 18.6724 5.8 20.4984 5.8Z" fill="#353535"/>
</svg>
