<svg width="40" height="29" viewBox="0 0 40 29" fill="none" xmlns="http://www.w3.org/2000/svg">
<path d="M7.07143 1.03571C7.07143 0.761026 6.96231 0.497588 6.76807 0.303354C6.57384 0.10912 6.3104 0 6.03571 0C5.76103 0 5.49759 0.10912 5.30335 0.303354C5.10912 0.497588 5 0.761026 5 1.03571V27.9643C5 28.239 5.10912 28.5024 5.30335 28.6966C5.49759 28.8909 5.76103 29 6.03571 29C6.3104 29 6.57384 28.8909 6.76807 28.6966C6.96231 28.5024 7.07143 28.239 7.07143 27.9643V1.03571ZM34 1.03571C34 0.761026 33.8909 0.497588 33.6966 0.303354C33.5024 0.10912 33.239 0 32.9643 0C32.6896 0 32.4262 0.10912 32.2319 0.303354C32.0377 0.497588 31.9286 0.761026 31.9286 1.03571V27.9643C31.9286 28.239 32.0377 28.5024 32.2319 28.6966C32.4262 28.8909 32.6896 29 32.9643 29C33.239 29 33.5024 28.8909 33.6966 28.6966C33.8909 28.5024 34 28.239 34 27.9643V1.03571ZM17.4286 0C16.3298 0 15.2761 0.436478 14.4991 1.21341C13.7222 1.99035 13.2857 3.0441 13.2857 4.14286V8.28571H25.7143V4.14286C25.7143 3.0441 25.2778 1.99035 24.5009 1.21341C23.7239 0.436478 22.6702 0 21.5714 0H17.4286ZM13.2857 18.6429V10.3571H25.7143V18.6429H13.2857ZM13.2857 20.7143H25.7143V24.8571C25.7143 25.9559 25.2778 27.0096 24.5009 27.7866C23.7239 28.5635 22.6702 29 21.5714 29H17.4286C16.3298 29 15.2761 28.5635 14.4991 27.7866C13.7222 27.0096 13.2857 25.9559 13.2857 24.8571V20.7143Z" fill="#353535"/>
</svg>
