<svg width="40" height="29" viewBox="0 0 40 29" fill="none" xmlns="http://www.w3.org/2000/svg">
<path d="M18.8 0C18.568 0 18.3505 0.0434999 18.1475 0.145L15.2475 1.595C13.812 2.407 14.45 4.35 15.9 4.35C16.132 4.35 16.364 4.2775 16.5525 4.205L19.4525 2.755C20.8735 1.972 20.25 0 18.8 0ZM24.6 2.9C24.374 2.89462 24.15 2.94439 23.9475 3.045L15.2475 7.395C13.812 8.236 14.45 10.15 15.9 10.15C16.161 10.15 16.364 10.0775 16.5525 10.005L25.2525 5.655C26.6445 4.9735 26.05 2.9 24.6 2.9ZM24.6 8.7C24.368 8.7 24.1505 8.7435 23.9475 8.845L15.465 13.0935C14.74 13.4125 14.45 13.92 14.45 14.5V17.4H13V21.75C13 22.5475 13.638 23.2 14.45 23.2H26.05C26.8475 23.2 27.5 22.5475 27.5 21.75V17.4H26.05V15.95C26.05 15.138 25.3975 14.5 24.6 14.5C23.8025 14.5 23.15 15.1525 23.15 15.95V17.4H17.35V15.399L25.2525 11.455C26.659 10.643 26.05 8.7 24.6 8.7ZM15.9 26.1V27.55C15.9 28.3765 16.567 29 17.35 29H23.15C23.962 29 24.6 28.3475 24.6 27.55V26.1" fill="#353535"/>
</svg>
