<svg width="40" height="29" viewBox="0 0 40 29" fill="none" xmlns="http://www.w3.org/2000/svg">
<path fill-rule="evenodd" clip-rule="evenodd" d="M12.0714 0C12.6208 0 13.1477 0.21824 13.5361 0.606708C13.9246 0.995176 14.1429 1.52205 14.1429 2.07143V18.6429C14.1429 20.291 14.7976 21.8716 15.963 23.037C17.1284 24.2024 18.709 24.8571 20.3571 24.8571C22.0053 24.8571 23.5859 24.2024 24.7513 23.037C25.9167 21.8716 26.5714 20.291 26.5714 18.6429V2.07143C26.5714 1.52205 26.7897 0.995176 27.1781 0.606708C27.5666 0.21824 28.0935 0 28.6429 0C29.1922 0 29.7191 0.21824 30.1076 0.606708C30.496 0.995176 30.7143 1.52205 30.7143 2.07143V18.6429C30.7143 24.3631 26.0774 29 20.3571 29C14.6369 29 10 24.3631 10 18.6429V2.07143C10 1.52205 10.2182 0.995176 10.6067 0.606708C10.9952 0.21824 11.5221 0 12.0714 0Z" fill="#353535"/>
</svg>
