<svg width="40" height="29" viewBox="0 0 40 29" fill="none" xmlns="http://www.w3.org/2000/svg">
<path d="M16.4444 29C14.6722 29 13.1551 28.369 11.8931 27.1069C10.631 25.8449 10 24.3278 10 22.5556C10 20.7833 10.631 19.2662 11.8931 18.0042C13.1551 16.7421 14.6722 16.1111 16.4444 16.1111C17.062 16.1111 17.6329 16.1852 18.1571 16.3334C18.6812 16.4817 19.1844 16.7029 19.6667 16.9972V3.22222C19.6667 2.33611 19.9824 1.57728 20.614 0.945725C21.2456 0.314169 22.0039 -0.00107134 22.8889 2.73533e-06H26.1111C26.9972 2.73533e-06 27.7561 0.315781 28.3876 0.947336C29.0192 1.57889 29.3344 2.33719 29.3333 3.22222C29.3333 4.10834 29.0176 4.86717 28.386 5.49872C27.7544 6.13028 26.9961 6.44552 26.1111 6.44445H22.8889V22.5556C22.8889 24.3278 22.2579 25.8449 20.9958 27.1069C19.7338 28.369 18.2167 29 16.4444 29Z" fill="#353535"/>
</svg>
