<svg width="40" height="29" viewBox="0 0 40 29" fill="none" xmlns="http://www.w3.org/2000/svg">
<path d="M33.7059 5.11765H6.41176C4.53018 5.11765 3 6.64782 3 8.52941V25.5882C3 27.4698 4.53018 29 6.41176 29H33.7059C35.5875 29 37.1176 27.4698 37.1176 25.5882V8.52941C37.1176 6.64782 35.5875 5.11765 33.7059 5.11765ZM14.9412 18.7647H6.41176V15.3529H14.9412V18.7647ZM33.7059 18.7647H30.2941V22.1765H26.8824V18.7647H23.4706V15.3529H26.8824V11.9412H30.2941V15.3529H33.7059V18.7647ZM6.41176 0H13.2353V3.41176H6.41176V0ZM26.8824 0H33.7059V3.41176H26.8824V0Z" fill="#353535"/>
</svg>
