<svg width="40" height="29" viewBox="0 0 40 29" fill="none" xmlns="http://www.w3.org/2000/svg">
<path fill-rule="evenodd" clip-rule="evenodd" d="M27.1554 14.1092C28.2674 14.1095 29.3639 13.8469 30.3551 13.3428C31.3464 12.8387 32.2044 12.1073 32.8591 11.2083C33.5138 10.3094 33.9467 9.2684 34.1224 8.17029C34.2981 7.07217 34.2116 5.94807 33.8701 4.88972C33.7055 4.38189 33.0707 4.27687 32.6914 4.65461L28.472 8.87406C28.3747 8.9761 28.2494 9.04696 28.1118 9.07765C27.9742 9.10835 27.8306 9.09749 27.6993 9.04647C26.5536 8.56866 25.6424 7.6586 25.1632 6.51355C25.112 6.38192 25.1011 6.23807 25.1318 6.10022C25.1625 5.96237 25.2334 5.83674 25.3356 5.73926L29.5582 1.51981C29.9344 1.14207 29.8309 0.505704 29.3231 0.341127C28.228 -0.0124211 27.063 -0.0926515 25.9297 0.107434C24.7965 0.307519 23.7294 0.781842 22.8216 1.48903C21.9138 2.19622 21.1928 3.11479 20.7215 4.16462C20.2502 5.21445 20.0429 6.36365 20.1177 7.51199C20.2039 8.88033 19.9171 10.3458 18.8638 11.2236L7.5315 20.6656C7.07669 21.0457 6.70601 21.5164 6.44306 22.0477C6.18012 22.5789 6.03068 23.1591 6.00425 23.7513C5.97782 24.3434 6.07498 24.9346 6.28955 25.4872C6.50412 26.0397 6.83139 26.5416 7.25054 26.9607C7.66968 27.3798 8.17151 27.7071 8.72406 27.9217C9.27662 28.1363 9.86781 28.2334 10.46 28.207C11.0521 28.1806 11.6323 28.0311 12.1636 27.7682C12.6948 27.5052 13.1655 27.1345 13.5456 26.6797L22.9876 15.3474C23.8654 14.2941 25.3309 14.0073 26.6992 14.0935C26.8497 14.1045 27.0018 14.1092 27.1554 14.1092ZM12.2651 23.5136C12.2651 23.9293 12.0999 24.328 11.806 24.6219C11.512 24.9158 11.1134 25.081 10.6977 25.081C10.282 25.081 9.88328 24.9158 9.58933 24.6219C9.29539 24.328 9.13025 23.9293 9.13025 23.5136C9.13025 23.0979 9.29539 22.6992 9.58933 22.4053C9.88328 22.1113 10.282 21.9462 10.6977 21.9462C11.1134 21.9462 11.512 22.1113 11.806 22.4053C12.0999 22.6992 12.2651 23.0979 12.2651 23.5136Z" fill="#353535"/>
<path d="M27.156 16.4603C27.4271 16.4603 27.6967 16.4493 27.9616 16.4258L33.8456 22.3099C34.5806 23.0448 34.9935 24.0416 34.9935 25.081C34.9935 26.1204 34.5806 27.1172 33.8456 27.8522C33.1107 28.5871 32.1139 29 31.0745 29C30.0351 29 29.0383 28.5871 28.3033 27.8522L21.3911 20.94L24.7955 16.8537C24.877 16.755 25.0259 16.6374 25.3315 16.5465C25.7284 16.4418 26.1404 16.4063 26.5494 16.4415C26.75 16.4541 26.9522 16.4603 27.156 16.4603ZM13.8331 5.62331L17.4851 9.27535C17.4498 9.32776 17.4076 9.3752 17.3597 9.41642L15.087 11.3098L11.6168 7.83961H9.6152C9.46978 7.83961 9.32723 7.79914 9.20349 7.72274C9.07976 7.64634 8.97972 7.53702 8.91457 7.40701L6.24999 2.07471C6.17636 1.92773 6.15082 1.76131 6.17698 1.599C6.20314 1.4367 6.27968 1.28673 6.39576 1.17032L7.16379 0.402298C7.28001 0.285957 7.42989 0.209126 7.59221 0.182683C7.75452 0.156241 7.92103 0.181528 8.06818 0.254963L13.4005 2.91954C13.531 2.98493 13.6406 3.08546 13.717 3.2098C13.7935 3.33414 13.8337 3.47735 13.8331 3.62331V5.62331Z" fill="#353535"/>
</svg>
