<svg width="29" height="29" viewBox="0 0 29 29" fill="none" xmlns="http://www.w3.org/2000/svg">
<path fill-rule="evenodd" clip-rule="evenodd" d="M21.1554 14.1092C22.2674 14.1095 23.3639 13.8469 24.3551 13.3428C25.3464 12.8387 26.2044 12.1073 26.8591 11.2083C27.5138 10.3094 27.9467 9.2684 28.1224 8.17029C28.2981 7.07217 28.2116 5.94807 27.8701 4.88972C27.7055 4.38189 27.0707 4.27687 26.6914 4.65461L22.472 8.87406C22.3747 8.9761 22.2494 9.04696 22.1118 9.07765C21.9742 9.10835 21.8306 9.0975 21.6993 9.04647C20.5536 8.56866 19.6424 7.6586 19.1632 6.51355C19.112 6.38192 19.1011 6.23807 19.1318 6.10022C19.1625 5.96237 19.2334 5.83674 19.3356 5.73925L23.5582 1.51981C23.9344 1.14207 23.8309 0.505704 23.3231 0.341127C22.228 -0.0124211 21.063 -0.0926515 19.9297 0.107434C18.7965 0.307519 17.7294 0.781842 16.8216 1.48903C15.9138 2.19622 15.1928 3.11479 14.7215 4.16462C14.2502 5.21445 14.0429 6.36365 14.1177 7.51199C14.2039 8.88033 13.9171 10.3458 12.8638 11.2236L1.5315 20.6656C1.07669 21.0457 0.706007 21.5164 0.443064 22.0477C0.180121 22.5789 0.0306767 23.1591 0.00424659 23.7513C-0.0221835 24.3434 0.0749796 24.9346 0.289549 25.4872C0.504119 26.0397 0.831394 26.5416 1.25054 26.9607C1.66968 27.3798 2.17151 27.7071 2.72406 27.9217C3.27662 28.1363 3.86781 28.2334 4.45997 28.207C5.05214 28.1806 5.63232 28.0311 6.16356 27.7682C6.69481 27.5052 7.16549 27.1345 7.54562 26.6797L16.9876 15.3474C17.8654 14.2941 19.3309 14.0073 20.6992 14.0935C20.8497 14.1045 21.0018 14.1092 21.1554 14.1092ZM6.26505 23.5136C6.26505 23.9293 6.09992 24.328 5.80597 24.6219C5.51203 24.9158 5.11335 25.081 4.69765 25.081C4.28195 25.081 3.88328 24.9158 3.58933 24.6219C3.29539 24.328 3.13025 23.9293 3.13025 23.5136C3.13025 23.0979 3.29539 22.6992 3.58933 22.4053C3.88328 22.1113 4.28195 21.9462 4.69765 21.9462C5.11335 21.9462 5.51203 22.1113 5.80597 22.4053C6.09992 22.6992 6.26505 23.0979 6.26505 23.5136Z" fill="#FBFBFB"/>
<path d="M21.156 16.4602C21.4271 16.4602 21.6967 16.4492 21.9616 16.4257L27.8456 22.3097C28.5806 23.0447 28.9935 24.0415 28.9935 25.0809C28.9935 26.1203 28.5806 27.1171 27.8456 27.8521C27.1107 28.587 26.1139 28.9999 25.0745 28.9999C24.0351 28.9999 23.0383 28.587 22.3033 27.8521L15.3911 20.9398L18.7955 16.8536C18.877 16.7549 19.0259 16.6373 19.3315 16.5464C19.7284 16.4417 20.1404 16.4062 20.5494 16.4414C20.75 16.4539 20.9522 16.4602 21.156 16.4602ZM7.83308 5.62319L11.4851 9.27523C11.4498 9.32764 11.4076 9.37508 11.3597 9.4163L9.087 11.3097L5.61677 7.83949H3.6152C3.46978 7.83949 3.32723 7.79902 3.20349 7.72262C3.07976 7.64622 2.97972 7.5369 2.91457 7.40689L0.249992 2.07459C0.176361 1.92761 0.150819 1.76119 0.176979 1.59888C0.203138 1.43658 0.279676 1.28661 0.39576 1.1702L1.16379 0.402176C1.28001 0.285835 1.42989 0.209004 1.59221 0.182561C1.75452 0.156119 1.92103 0.181406 2.06818 0.254841L7.40048 2.91942C7.53096 2.98481 7.6406 3.08533 7.71703 3.20968C7.79346 3.33402 7.83366 3.47723 7.83308 3.62318V5.62319Z" fill="#FBFBFB"/>
</svg>
