<svg width="40" height="29" viewBox="0 0 40 29" fill="none" xmlns="http://www.w3.org/2000/svg">
<path d="M32.4328 3.02985C30.511 3.02985 28.9701 4.57075 28.9701 6.49254V18.1964C27.8621 19.1833 27.2388 20.603 27.2388 22.0746C27.2388 24.9487 29.5588 27.2687 32.4328 27.2687C35.3069 27.2687 37.6269 24.9487 37.6269 22.0746C37.6269 20.603 37.0036 19.1833 35.8955 18.2137V6.49254C35.8955 4.57075 34.3546 3.02985 32.4328 3.02985ZM32.4328 4.76119C33.3851 4.76119 34.1642 5.5403 34.1642 6.49254V8.22388H30.7015V6.49254C30.7015 5.5403 31.4806 4.76119 32.4328 4.76119ZM13.3881 29C7.65731 29 3 24.3427 3 18.6119C3 11.6866 13.3881 0 13.3881 0C13.3881 0 23.7761 11.6866 23.7761 18.6119C23.7761 24.3427 19.1188 29 13.3881 29Z" fill="#353535"/>
</svg>
