<svg width="40" height="29" viewBox="0 0 40 29" fill="none" xmlns="http://www.w3.org/2000/svg">
<path d="M18.05 29V22.9825L13.3375 27.6225L11.3075 25.5925L18.05 18.85V15.95H15.15L8.4075 22.6925L6.3775 20.6625L11.0175 15.95H5V13.05H11.0175L6.3775 8.3375L8.4075 6.3075L15.15 13.05H18.05V10.15L11.3075 3.4075L13.3375 1.3775L18.05 6.0175V0H20.95V6.0175L25.6625 1.3775L27.6925 3.4075L20.95 10.15V13.05H23.85L30.5925 6.3075L32.6225 8.3375L27.9825 13.05H34V15.95H27.9825L32.6225 20.6625L30.5925 22.6925L23.85 15.95H20.95V18.85L27.6925 25.5925L25.6625 27.6225L20.95 22.9825V29H18.05Z" fill="#353535"/>
</svg>
