<svg width="40" height="29" viewBox="0 0 40 29" fill="none" xmlns="http://www.w3.org/2000/svg">
<path d="M29.417 13.2115C29.0464 12.7281 28.5953 12.3092 28.1764 11.8903C27.0969 10.9236 25.8724 10.2308 24.8413 9.21582C22.4407 6.86353 21.909 2.98064 23.4396 0C21.909 0.370566 20.5717 1.20837 19.4278 2.12673C15.2549 5.47793 13.6115 11.3909 15.5772 16.466C15.6416 16.6271 15.706 16.7883 15.706 16.9977C15.706 17.3522 15.4644 17.6744 15.1421 17.8033C14.7716 17.9644 14.3849 17.8677 14.0788 17.6099C13.9868 17.5339 13.9102 17.4409 13.8532 17.3361C12.0326 15.0321 11.7426 11.7292 12.9671 9.08693C10.2764 11.2781 8.8103 14.9838 9.01975 18.48C9.11642 19.2856 9.21309 20.0911 9.48698 20.8967C9.71255 21.8634 10.1476 22.8301 10.6309 23.684C12.371 26.4713 15.3838 28.4691 18.6222 28.8719C22.0701 29.3069 25.7597 28.6786 28.402 26.2941C31.3504 23.6196 32.3815 19.3339 30.867 15.6604L30.6576 15.2415C30.3192 14.5004 29.417 13.2115 29.417 13.2115ZM24.3257 23.3618C23.8746 23.7485 23.1335 24.1674 22.5535 24.3285C20.749 24.9729 18.9445 24.0707 17.8811 23.0073C19.7984 22.5562 20.9423 21.1384 21.2807 19.7045C21.5545 18.4155 21.039 17.3522 20.8295 16.1116C20.6362 14.9193 20.6684 13.9043 21.1034 12.7926C21.4095 13.4048 21.7318 14.0171 22.1185 14.5004C23.359 16.1116 25.3085 16.8205 25.7274 19.0117C25.7919 19.2372 25.8241 19.4628 25.8241 19.7045C25.8725 21.0256 25.2924 22.4756 24.3257 23.3618Z" fill="#353535"/>
</svg>
