<svg width="40" height="29" viewBox="0 0 40 29" fill="none" xmlns="http://www.w3.org/2000/svg">
<path d="M21.7 20.5844C22.425 20.8312 23.005 21.2376 23.4835 21.7748H24.6V27.5814H23.4545C22.9905 28.0894 22.425 28.4959 21.7 28.7427C20.0325 29.3524 18.191 28.8443 17.031 27.5814H15.9V21.7748H17.0165C17.495 21.2376 18.075 20.8312 18.8 20.5844V14.5165H21.7V20.5844ZM20.25 26.1297C20.6346 26.1297 21.0034 25.9768 21.2753 25.7045C21.5472 25.4323 21.7 25.0631 21.7 24.6781C21.7 24.2931 21.5472 23.9238 21.2753 23.6516C21.0034 23.3794 20.6346 23.2264 20.25 23.2264C19.8654 23.2264 19.4966 23.3794 19.2247 23.6516C18.9528 23.9238 18.8 24.2931 18.8 24.6781C18.8 25.0631 18.9528 25.4323 19.2247 25.7045C19.4966 25.9768 19.8654 26.1297 20.25 26.1297ZM27.5 2.9033H24.6V4.35495H27.5V13.0649H13V4.35495H15.9V2.9033H13V0H27.5V2.9033ZM20.25 10.1616C20.6346 10.1616 21.0034 10.0086 21.2753 9.73638C21.5472 9.46414 21.7 9.09491 21.7 8.7099C21.7 8.3249 21.5472 7.95567 21.2753 7.68343C21.0034 7.41119 20.6346 7.25825 20.25 7.25825C19.8654 7.25825 19.4966 7.41119 19.2247 7.68343C18.9528 7.95567 18.8 8.3249 18.8 8.7099C18.8 9.09491 18.9528 9.46414 19.2247 9.73638C19.4966 10.0086 19.8654 10.1616 20.25 10.1616Z" fill="#353535"/>
</svg>
