<svg width="40" height="29" viewBox="0 0 40 29" fill="none" xmlns="http://www.w3.org/2000/svg">
<path fill-rule="evenodd" clip-rule="evenodd" d="M19.5 0C27.5084 0 34 6.49165 34 14.5C34 22.5084 27.5084 29 19.5 29C11.4917 29 5 22.5084 5 14.5C5 6.49165 11.4917 0 19.5 0ZM8.19725 17.1245C8.70469 19.3029 9.83037 21.2885 11.439 22.8427C13.0477 24.3968 15.0709 25.4534 17.2655 25.8854C16.9857 22.0791 15.7344 19.7954 14.1538 18.5325C12.64 17.3217 10.5869 16.8534 8.19725 17.1231V17.1245ZM24.8462 18.531C23.2657 19.7969 22.0143 22.0791 21.7345 25.8854C23.9293 25.4533 25.9526 24.3965 27.5613 22.8421C29.17 21.2877 30.2956 19.3018 30.8028 17.1231C28.4132 16.8534 26.36 17.3217 24.8462 18.5325V18.531ZM19.5 2.9C16.7975 2.90036 14.1798 3.84398 12.0986 5.56806C10.0174 7.29214 8.60326 9.68855 8.1001 12.3438L8.03775 12.7034L11.2422 12.0626C12.0862 11.8944 12.888 11.4492 13.7841 10.8446L14.4758 10.3632C15.6314 9.54245 17.3439 8.7 19.5 8.7C21.5126 8.7 23.1381 9.4337 24.285 10.1993L25.2159 10.8446C25.9989 11.3738 26.7123 11.7798 27.4431 11.9872L27.7578 12.0626L30.9623 12.7034C30.5334 9.97154 29.1429 7.48264 27.0413 5.68522C24.9398 3.8878 22.2654 2.90006 19.5 2.9Z" fill="#353535"/>
</svg>
