<svg width="152" height="56" viewBox="0 0 152 56" fill="none" xmlns="http://www.w3.org/2000/svg">
<path d="M0.76 48L7.64 15.6H12L18.92 48H14.64L13.16 39.84H6.56L5 48H0.76ZM7.16 36.6H12.56L9.84 22L7.16 36.6ZM23.2475 48V24.88H29.7275C31.3008 24.88 32.5275 25.1467 33.4075 25.68C34.3142 26.1867 34.9542 26.8667 35.3275 27.72C35.7275 28.5467 35.9408 29.44 35.9675 30.4C35.9942 31.5467 35.8075 32.5733 35.4075 33.48C35.0075 34.3867 34.1808 35.0267 32.9275 35.4C33.8875 35.5867 34.6208 35.9867 35.1275 36.6C35.6608 37.1867 36.0208 37.8933 36.2075 38.72C36.4208 39.5467 36.5275 40.4 36.5275 41.28C36.5275 42.6133 36.3275 43.7867 35.9275 44.8C35.5542 45.8133 34.8875 46.6 33.9275 47.16C32.9942 47.72 31.6608 48 29.9275 48H23.2475ZM27.4475 44.76H28.9675C29.5808 44.76 30.1408 44.68 30.6475 44.52C31.1542 44.3333 31.5542 43.9733 31.8475 43.44C32.1675 42.9067 32.3275 42.1333 32.3275 41.12C32.3275 39.92 32.1808 39.0533 31.8875 38.52C31.6208 37.96 31.2475 37.6133 30.7675 37.48C30.3142 37.3467 29.7808 37.28 29.1675 37.28H27.4475V44.76ZM27.4475 34.2H29.5275C30.3542 34.2 31.0075 33.96 31.4875 33.48C31.9675 33 32.2075 32.1467 32.2075 30.92C32.2075 29.8267 31.9275 29.0667 31.3675 28.64C30.8075 28.2133 30.0475 28 29.0875 28H27.4475V34.2ZM45.4091 48.32C44.5024 48.32 43.7024 48.0667 43.0091 47.56C42.3157 47.0267 41.7691 46.36 41.3691 45.56C40.9691 44.7333 40.7691 43.8667 40.7691 42.96C40.7691 41.52 41.0091 40.3067 41.4891 39.32C41.9691 38.3333 42.6224 37.5067 43.4491 36.84C44.3024 36.1467 45.2757 35.5467 46.3691 35.04C47.4891 34.5333 48.6624 34.04 49.8891 33.56V31.92C49.8891 30.9867 49.8357 30.2133 49.7291 29.6C49.6224 28.9867 49.3957 28.5333 49.0491 28.24C48.7291 27.92 48.2357 27.76 47.5691 27.76C46.9824 27.76 46.5024 27.8933 46.1291 28.16C45.7824 28.4267 45.5291 28.8133 45.3691 29.32C45.2091 29.8 45.1291 30.3733 45.1291 31.04V32.2L40.8891 32.04C40.9424 29.48 41.5291 27.6 42.6491 26.4C43.7691 25.1733 45.5024 24.56 47.8491 24.56C50.1424 24.56 51.7691 25.1867 52.7291 26.44C53.6891 27.6933 54.1691 29.5067 54.1691 31.88V42.44C54.1691 43.16 54.1824 43.8533 54.2091 44.52C54.2624 45.1867 54.3157 45.8133 54.3691 46.4C54.4491 46.96 54.5157 47.4933 54.5691 48H50.6491C50.5691 47.5733 50.4624 47.04 50.3291 46.4C50.2224 45.7333 50.1424 45.1333 50.0891 44.6C49.8224 45.5067 49.3024 46.36 48.5291 47.16C47.7824 47.9333 46.7424 48.32 45.4091 48.32ZM47.0891 44.64C47.5157 44.64 47.9157 44.52 48.2891 44.28C48.6624 44.04 48.9957 43.7733 49.2891 43.48C49.5824 43.16 49.7824 42.9067 49.8891 42.72V36.16C49.2224 36.5333 48.5957 36.9067 48.0091 37.28C47.4224 37.6533 46.9024 38.0533 46.4491 38.48C46.0224 38.88 45.6757 39.3467 45.4091 39.88C45.1691 40.3867 45.0491 40.9733 45.0491 41.64C45.0491 42.5733 45.2224 43.3067 45.5691 43.84C45.9157 44.3733 46.4224 44.64 47.0891 44.64ZM59.6803 55.6V24.88H63.9603V26.72C64.467 26.1333 65.0803 25.6267 65.8003 25.2C66.5203 24.7733 67.3736 24.56 68.3603 24.56C69.5603 24.56 70.507 24.88 71.2003 25.52C71.9203 26.1333 72.4536 26.92 72.8003 27.88C73.147 28.8133 73.3736 29.7733 73.4803 30.76C73.587 31.72 73.6403 32.5467 73.6403 33.24V38.84C73.6403 40.4667 73.4803 42.0133 73.1603 43.48C72.8403 44.92 72.2536 46.0933 71.4003 47C70.5736 47.88 69.4003 48.32 67.8803 48.32C67.0536 48.32 66.3203 48.12 65.6803 47.72C65.0403 47.2933 64.467 46.8133 63.9603 46.28V55.6H59.6803ZM67.0403 44.96C67.787 44.96 68.3203 44.6933 68.6403 44.16C68.9603 43.6 69.1603 42.8533 69.2403 41.92C69.3203 40.9867 69.3603 39.96 69.3603 38.84V33.24C69.3603 32.28 69.307 31.4 69.2003 30.6C69.0936 29.7733 68.867 29.12 68.5203 28.64C68.1736 28.16 67.627 27.92 66.8803 27.92C66.3203 27.92 65.787 28.04 65.2803 28.28C64.7736 28.52 64.3336 28.8 63.9603 29.12V43.92C64.3603 44.2133 64.8136 44.4667 65.3203 44.68C65.827 44.8667 66.4003 44.96 67.0403 44.96ZM78.9319 48V24.88H82.5319V40.44L89.4919 24.88H92.8519V48H89.3319V32.32L82.4119 48H78.9319ZM98.6131 48V24.88H102.213V40.44L109.173 24.88H112.533V48H109.013V32.32L102.093 48H98.6131ZM118.294 48V24.88H122.574V34.64H123.774L128.134 24.88H132.534L127.694 36.08L132.614 48H128.134L123.774 37.2H122.574V48H118.294ZM140.456 48.32C139.549 48.32 138.749 48.0667 138.056 47.56C137.363 47.0267 136.816 46.36 136.416 45.56C136.016 44.7333 135.816 43.8667 135.816 42.96C135.816 41.52 136.056 40.3067 136.536 39.32C137.016 38.3333 137.669 37.5067 138.496 36.84C139.349 36.1467 140.323 35.5467 141.416 35.04C142.536 34.5333 143.709 34.04 144.936 33.56V31.92C144.936 30.9867 144.883 30.2133 144.776 29.6C144.669 28.9867 144.443 28.5333 144.096 28.24C143.776 27.92 143.283 27.76 142.616 27.76C142.029 27.76 141.549 27.8933 141.176 28.16C140.829 28.4267 140.576 28.8133 140.416 29.32C140.256 29.8 140.176 30.3733 140.176 31.04V32.2L135.936 32.04C135.989 29.48 136.576 27.6 137.696 26.4C138.816 25.1733 140.549 24.56 142.896 24.56C145.189 24.56 146.816 25.1867 147.776 26.44C148.736 27.6933 149.216 29.5067 149.216 31.88V42.44C149.216 43.16 149.229 43.8533 149.256 44.52C149.309 45.1867 149.363 45.8133 149.416 46.4C149.496 46.96 149.563 47.4933 149.616 48H145.696C145.616 47.5733 145.509 47.04 145.376 46.4C145.269 45.7333 145.189 45.1333 145.136 44.6C144.869 45.5067 144.349 46.36 143.576 47.16C142.829 47.9333 141.789 48.32 140.456 48.32ZM142.136 44.64C142.563 44.64 142.963 44.52 143.336 44.28C143.709 44.04 144.043 43.7733 144.336 43.48C144.629 43.16 144.829 42.9067 144.936 42.72V36.16C144.269 36.5333 143.643 36.9067 143.056 37.28C142.469 37.6533 141.949 38.0533 141.496 38.48C141.069 38.88 140.723 39.3467 140.456 39.88C140.216 40.3867 140.096 40.9733 140.096 41.64C140.096 42.5733 140.269 43.3067 140.616 43.84C140.963 44.3733 141.469 44.64 142.136 44.64Z" fill="#353535"/>
<rect x="98" y="17" width="15" height="2.54545" rx="1.27273" fill="#FF7A00"/>
</svg>
