<svg width="37" height="37" viewBox="0 0 37 37" fill="none" xmlns="http://www.w3.org/2000/svg">
<path d="M26.6801 37C11.969 37 0 25.031 0 10.3199C0.00556272 7.7965 0.927271 5.36099 2.59376 3.46617C4.26024 1.57135 6.55811 0.346163 9.06012 0.0183977C9.69794 -0.0523213 10.3417 0.0819648 10.898 0.401782C11.4544 0.7216 11.8944 1.21032 12.1543 1.79707L15.8784 10.4866C16.0715 10.9377 16.149 11.4298 16.1037 11.9184C16.0584 12.407 15.8918 12.8765 15.619 13.2843L12.5434 17.9904C13.9361 20.8168 16.2309 23.0986 19.0652 24.4752L23.7157 21.381C24.1231 21.1064 24.5938 20.9401 25.0833 20.898C25.5728 20.8559 26.065 20.9392 26.5134 21.1402L35.2029 24.8457C35.7897 25.1056 36.2784 25.5456 36.5982 26.102C36.918 26.6583 37.0523 27.3021 36.9816 27.9399C36.6538 30.4419 35.4286 32.7398 33.5338 34.4062C31.639 36.0727 29.2035 36.9944 26.6801 37ZM9.43068 2.96433C7.64265 3.19418 5.9997 4.06787 4.80945 5.42182C3.6192 6.77577 2.96326 8.51714 2.96446 10.3199C2.96936 16.6082 5.46955 22.6375 9.91603 27.084C14.3625 31.5305 20.3918 34.0306 26.6801 34.0355C28.4829 34.0367 30.2242 33.3808 31.5782 32.1905C32.9321 31.0003 33.8058 29.3574 34.0357 27.5693L25.3461 23.8638L20.7141 26.9579C20.2879 27.2397 19.7962 27.4065 19.2865 27.4422C18.7768 27.4779 18.2666 27.3813 17.8053 27.1617C14.3534 25.4919 11.5613 22.7128 9.87535 19.2688C9.65307 18.8091 9.55332 18.2997 9.58578 17.7901C9.61824 17.2804 9.78181 16.7878 10.0606 16.36L13.1548 11.6539L9.43068 2.96433Z" fill="#353535"/>
</svg>
