<svg width="140" height="95" viewBox="0 0 140 95" fill="none" xmlns="http://www.w3.org/2000/svg">
<path d="M70 0C30.4675 0 0 20.0402 0 47.3529C0 74.6657 30.4733 94.7059 70 94.7059C109.527 94.7059 140 74.6657 140 47.3529C140 20.0402 109.533 0 70 0ZM112.782 22.2998C112.782 28.5732 102.719 33.4119 86.6017 35.3462C85.085 20.3597 80.7392 10.4906 75.1508 6.80786C92.3475 7.87667 112.782 13.9352 112.782 22.2998ZM70 72.9172C64.4 72.9172 59.815 64.2041 59.4533 47.4226C62.8192 47.6957 66.3367 47.8409 70 47.8409C73.6633 47.8409 77.175 47.6957 80.5408 47.4226C80.185 64.2099 75.6 72.9172 70 72.9172ZM70 36.2757C66.5583 36.2757 63.2625 36.1653 60.1417 35.962C61.6642 25.9245 65.5083 17.6644 70 17.6644C74.4917 17.6644 78.33 25.9245 79.8525 35.962C76.7317 36.1595 73.4417 36.2757 70 36.2757ZM64.855 6.79624C59.2783 10.4732 54.9033 20.3481 53.3983 35.3462C37.2808 33.4119 27.2125 28.5732 27.2125 22.2998C27.2125 13.9352 47.6525 7.83601 64.855 6.79624ZM11.8825 45.4941C11.8678 38.8703 14.0131 32.4206 17.9958 27.1152C19.5708 36.1014 32.7075 43.8503 52.8325 46.6907V47.3529C52.8325 69.2636 57.96 83.3846 65.0067 87.8399C35.2158 85.9753 11.8825 67.6255 11.8825 45.4941ZM75.0167 87.8399C82.0575 83.3846 87.1908 69.2636 87.1908 47.3529V46.6849C107.298 43.8503 120.464 36.0782 122.028 27.1094C126.015 32.4147 128.163 38.8673 128.147 45.4941C128.123 67.6255 104.772 85.9753 75.0167 87.8399Z" fill="#2B2A29"/>
</svg>
