<svg width="29" height="29" viewBox="0 0 29 29" fill="none" xmlns="http://www.w3.org/2000/svg">
<path d="M6.21429 8.14762L3.27286 5.22L5.22 3.27286L8.14762 6.21429L6.21429 8.14762ZM15.881 0V4.14286H13.119V0H15.881ZM25.7271 5.22L22.7857 8.14762L20.8524 6.21429L23.78 3.27286L25.7271 5.22ZM4.14286 13.119V15.881H0V13.119H4.14286ZM24.8571 13.119H29V15.881H24.8571V13.119ZM6.21429 26.2381H22.7857C23.5182 26.2381 24.2207 26.5291 24.7387 27.047C25.2566 27.565 25.5476 28.2675 25.5476 29H3.45238C3.45238 28.2675 3.74337 27.565 4.26132 27.047C4.77928 26.5291 5.48178 26.2381 6.21429 26.2381ZM14.5 5.52381C16.6975 5.52381 18.805 6.39677 20.3589 7.95064C21.9128 9.50451 22.7857 11.612 22.7857 13.8095V24.8571H6.21429V13.8095C6.21429 11.612 7.08724 9.50451 8.64112 7.95064C10.195 6.39677 12.3025 5.52381 14.5 5.52381Z" fill="#FBFBFB"/>
</svg>
