<svg width="140" height="71" viewBox="0 0 140 71" fill="none" xmlns="http://www.w3.org/2000/svg">
<path d="M66.2634 0.0352544C45.8979 0.586527 27.5405 5.37472 14.8297 13.4469C7.06467 18.3769 2.03235 24.433 0.504534 30.686C0.071392 32.4737 -0.00736118 33.1431 0.000514136 35.1985C0.00838945 36.8681 0.0320154 37.2225 0.213148 38.2305C1.82759 47.2793 9.89191 55.32 23.4768 61.4312C33.3131 65.8571 46.0475 68.8813 58.9394 69.8421C59.8293 69.9129 60.735 69.9838 60.9476 69.9996C61.1681 70.0232 61.8926 70.0626 62.562 70.0862C63.2314 70.1177 63.9245 70.1571 64.0977 70.1728C64.271 70.1886 66.4682 70.2201 68.9804 70.2358C73.1386 70.2594 76.5171 70.1886 78.8088 70.0153C79.1632 69.9917 80.1476 69.9129 80.9903 69.8499C103.38 68.1252 122.989 60.8327 133.007 50.5082C137.661 45.7121 139.992 40.5695 140 35.1198C140 24.7007 131.069 15.0377 115.169 8.26496C104.159 3.57127 90.417 0.712532 76.0288 0.121883C73.1464 0.00375319 68.8859 -0.0356234 66.2634 0.0352544ZM75.8319 3.61065C75.9658 3.6264 76.5801 3.66578 77.2101 3.69728C79.4467 3.79178 83.4867 4.1698 86.4242 4.57144C106.231 7.25692 122.399 14.8093 129.164 24.5275C131.833 28.3706 133.054 32.6233 132.652 36.6633C132.29 40.1994 130.857 43.5621 128.274 46.8934C127.478 47.9251 124.942 50.5082 123.848 51.4059C118.973 55.4224 112.618 58.793 105.049 61.3682C96.8905 64.1482 87.4559 65.9123 77.6433 66.5029C74.5246 66.6919 73.2961 66.7234 69.256 66.6998C64.5309 66.6683 62.2785 66.5659 58.1912 66.18C42.8659 64.7388 29.1471 60.4153 19.6416 54.0363C16.011 51.6028 12.9554 48.7362 10.9236 45.8696C7.30881 40.7664 6.34014 35.2222 8.11996 29.7646C8.82874 27.5752 10.2621 25.0709 11.9946 22.9524C18.8855 14.5495 32.9981 7.94207 50.1584 5.08333C54.8442 4.30368 60.0892 3.76028 64.4521 3.61065C65.2948 3.57915 66.0035 3.53977 66.0272 3.52402C66.0744 3.46889 75.5169 3.55552 75.8319 3.61065Z" fill="#353535"/>
<path d="M65.0034 3.9728C62.4833 4.09093 61.5146 4.15393 59.0575 4.37444C43.7243 5.72112 29.9504 9.94229 20.3582 16.2347C19.0903 17.0694 17.5467 18.2035 16.3733 19.18C15.2629 20.0936 12.9554 22.4325 12.1285 23.4642C9.11227 27.2601 7.65533 31.056 7.65533 35.1197C7.65533 39.4353 9.2619 43.373 12.6562 47.413C13.4358 48.3423 15.5385 50.3899 16.5702 51.2326C22.0593 55.7057 29.3991 59.3599 38.1564 61.9666C58.3251 67.9676 83.3922 67.8022 103.238 61.5256C117.295 57.0839 127.352 49.9174 130.873 41.8294C132.574 37.9233 132.778 33.8832 131.455 29.922C131.077 28.78 130.101 26.7561 129.4 25.6535C126.777 21.5505 122.446 17.7231 116.744 14.4863C107.357 9.15475 94.6697 5.57149 80.8721 4.36656C78.2575 4.13818 78.2182 4.13818 77.0526 4.08305C76.4698 4.05943 75.8477 4.02005 75.6744 4.0043C75.068 3.93342 66.2871 3.90979 65.0034 3.9728ZM72.7291 4.44532C75.3279 4.50832 78.0292 4.6422 79.8484 4.7997C93.323 5.94163 105.002 8.9815 114.421 13.8091C124.218 18.8256 130.25 25.3543 131.558 32.3633C131.77 33.4737 131.841 35.6709 131.715 36.8129C131.006 43.0422 126.557 48.9724 118.902 53.8865C110.806 59.0921 99.4343 62.9274 86.8968 64.6836C81.006 65.5105 76.3911 65.8255 70.0042 65.8255C65.8775 65.8255 64.1056 65.7704 60.7507 65.5105C49.2528 64.6442 38.6841 62.2344 29.6826 58.4149C26.5088 57.0682 22.6736 55.0048 20.1535 53.2959C12.0813 47.8068 7.87584 41.2309 8.16723 34.529C8.33261 30.7961 9.77379 27.2522 12.5617 23.7398C13.3098 22.7869 15.57 20.5031 16.6096 19.6289C25.2252 12.4309 38.8888 7.33556 55.0411 5.31948C56.7816 5.09897 59.215 4.86271 60.672 4.76033C61.3414 4.72095 62.0501 4.66582 62.247 4.6422C62.8455 4.58707 66.5469 4.43744 67.8779 4.42169C68.5709 4.40594 69.2639 4.39806 69.4136 4.38231C69.5632 4.37444 71.0595 4.40594 72.7291 4.44532Z" fill="#353535"/>
<path d="M24.6345 17.306C24.6188 17.3611 24.6109 17.8336 24.6188 18.3534L24.6424 19.2905L25.3905 19.3378C26.1781 19.385 26.4301 19.4796 26.564 19.7788C26.627 19.9127 26.6506 24.8348 26.6506 36.2303V52.5008L26.879 52.7291L27.1074 52.9575H31.4545C34.2818 52.9575 35.849 52.926 35.9513 52.8788C36.3451 52.6661 36.3372 52.8473 36.3372 45.4051C36.3372 39.2151 36.353 38.4669 36.4632 38.3567C36.6129 38.2071 36.8176 38.1992 36.983 38.3252C37.0539 38.3803 39.3141 41.5304 42.0074 45.3185C44.7008 49.1065 47.0004 52.3039 47.1107 52.4299C47.2209 52.548 47.4572 52.7134 47.6383 52.8C47.9533 52.9496 48.1266 52.9575 53.025 52.9575C56.4902 52.9575 58.1361 52.9339 58.2385 52.8709C58.459 52.7528 58.6165 52.3511 58.5456 52.0912C58.5141 51.981 55.6947 47.9409 52.2847 43.1134C48.8747 38.2937 46.0475 34.2615 46.0081 34.167C45.9451 34.041 45.953 33.9229 46.016 33.7654C46.0632 33.6472 47.6619 31.2374 49.5678 28.4259C57.0021 17.4162 56.5217 18.1565 56.4665 17.8415C56.4429 17.6761 56.3405 17.4871 56.2224 17.3768L56.0176 17.2036H51.1979C45.7797 17.2036 46.0475 17.18 45.4647 17.8021C45.3072 17.9754 43.3463 20.7081 41.1097 23.874C36.8964 29.8356 36.857 29.8907 36.5026 29.6702C36.3923 29.5993 36.3687 28.9772 36.3372 23.6535C36.3136 20.3852 36.2663 17.6525 36.227 17.5737C36.0458 17.2036 36.0695 17.2036 30.1945 17.2036C25.7213 17.2036 24.666 17.2193 24.6345 17.306ZM35.8253 17.7549C35.9592 17.8966 35.9592 18.1959 35.912 23.1652C35.8568 28.6622 35.849 29.1347 35.7859 29.1977C35.7308 29.2528 35.7387 29.5127 35.6678 23.4251C35.6284 20.1175 35.5812 18.0699 35.5339 18.0147C35.4709 17.936 34.2818 17.9124 30.2417 17.8966C25.359 17.873 25.0361 17.8651 25.0125 17.7312C24.9889 17.6052 25.2803 17.5974 30.3362 17.5974C35.5497 17.5974 35.6836 17.5974 35.8253 17.7549ZM56.0413 17.7942C56.1358 18.0069 56.5059 17.4241 51.7256 24.504C47.4808 30.7806 46.646 32.0092 46.6066 32.0092C46.5673 32.0092 48.5912 28.9851 53.2849 22.0233C55.0647 19.3929 55.7893 18.251 55.7735 18.125L55.7499 17.9517L50.9223 17.9281C47.3469 17.9202 46.0475 17.936 45.9215 18.0069C45.7561 18.0856 45.7561 18.0856 45.8664 17.9517C46.1499 17.6052 46.2207 17.6052 51.2058 17.5974H55.9468L56.0413 17.7942Z" fill="#353535"/>
<path d="M63.0897 17.2587C63.0582 17.2823 63.0345 17.7627 63.0345 18.3219V19.3299H63.6094C63.9166 19.3299 64.3103 19.3693 64.4679 19.4165C65.0506 19.5741 65.0034 18.1329 65.0034 36.2225V52.5008L65.2318 52.7291L65.4601 52.9575H69.9648H74.4695L74.6979 52.7291L74.9263 52.5008V35.1672C74.9263 24.3307 74.8948 17.7706 74.8475 17.6446C74.6821 17.1957 74.8081 17.2036 68.7205 17.2036C65.6492 17.2036 63.1133 17.2272 63.0897 17.2587ZM74.4065 17.7234C74.5246 17.8336 74.5325 18.8101 74.5325 27.5202C74.5325 33.6787 74.501 37.2148 74.4538 37.2463C74.4065 37.2778 74.375 33.8756 74.375 27.7093C74.375 20.779 74.3514 18.0935 74.2884 18.0147C74.2175 17.9281 73.241 17.9124 68.8938 17.9124H63.5858V18.4243C63.5858 18.7156 63.5543 18.9362 63.5071 18.9362C63.4204 18.9362 63.3968 17.7391 63.4834 17.6525C63.5071 17.621 65.9563 17.5973 68.9095 17.5973C73.7056 17.5973 74.2962 17.6131 74.4065 17.7234ZM65.5389 28.7015C65.531 33.4425 65.5074 37.4825 65.4759 37.6794C65.4444 37.8763 65.4129 33.9386 65.4129 28.9378C65.405 23.0077 65.4286 19.8812 65.4759 19.9599C65.5231 20.0387 65.5468 23.2203 65.5389 28.7015Z" fill="#353535"/>
<path d="M90.3147 17.306C90.2989 17.3611 90.2911 17.8336 90.2989 18.3534L90.3226 19.2905L91.0077 19.3378C91.7716 19.3929 92.0473 19.5189 92.126 19.8497C92.1654 20.0072 91.7874 21.2436 90.5509 24.9135C83.5025 45.9249 81.4628 52.0755 81.4628 52.3039C81.4628 52.485 81.5258 52.6346 81.6597 52.7606L81.8487 52.9575H86.2431C90.4564 52.9575 90.6454 52.9496 90.8896 52.8C91.0313 52.7213 91.1967 52.5716 91.2597 52.4692C91.3227 52.3669 91.9606 50.4295 92.6852 48.1536C93.4018 45.8776 94.1342 43.5938 94.2996 43.074C94.465 42.5542 94.8194 41.4359 95.0871 40.5933C95.3549 39.7506 95.8195 38.2937 96.1109 37.3644C96.4102 36.4351 97.0638 34.3796 97.5678 32.7967C98.064 31.2216 98.5208 29.875 98.5838 29.8198C98.7334 29.6623 98.9933 29.7647 99.0957 30.0246C99.1429 30.1427 99.5367 31.3555 99.9777 32.718C100.411 34.0804 100.931 35.6948 101.127 36.3012C101.316 36.9076 101.758 38.2701 102.096 39.3332C106.412 52.8 106.262 52.3511 106.554 52.6425L106.821 52.9181L111.279 52.9418L115.728 52.9575L115.965 52.7291C116.091 52.6031 116.193 52.4141 116.193 52.3039C116.193 52.107 104.719 17.747 104.569 17.5107C104.388 17.2115 104.215 17.2036 97.1741 17.2036C91.6299 17.2036 90.3462 17.2193 90.3147 17.306ZM104.199 17.7706C104.325 17.9045 104.018 17.9124 97.623 17.9124H90.9132V18.4243C90.9132 18.8259 90.8896 18.9362 90.7951 18.9362C90.7006 18.9362 90.6769 18.8101 90.6769 18.2667V17.5973L97.371 17.6131C103.616 17.6367 104.065 17.6446 104.199 17.7706ZM92.693 19.8576C92.7718 20.0308 92.7954 20.2435 92.7639 20.401C92.7167 20.6608 90.5037 27.3155 88.4482 33.3874C86.6212 38.7741 86.5582 38.9552 86.4952 38.845C86.44 38.7662 86.4243 38.7662 86.4243 38.8528C86.4243 38.9158 86.4007 38.9473 86.377 38.9158C86.3534 38.8922 87.7395 34.6474 89.4563 29.4891C91.9449 22.0312 92.5749 20.0466 92.5434 19.8339C92.4883 19.4874 92.5434 19.4953 92.693 19.8576ZM100.214 31.765C100.513 32.7022 100.749 33.4976 100.749 33.5449C100.742 33.6472 99.4973 29.9537 99.4973 29.8435C99.5052 29.6308 99.7178 30.2057 100.214 31.765ZM100.907 34.0174C100.907 34.0568 100.875 34.041 100.836 33.978C100.797 33.915 100.765 33.8047 100.765 33.7417C100.765 33.6157 100.899 33.8678 100.907 34.0174Z" fill="#353535"/>
</svg>
