<svg width="140" height="141" viewBox="0 0 140 141" fill="none" xmlns="http://www.w3.org/2000/svg">
<path d="M64.2826 0.164816C50.0435 1.51437 36.3828 6.99519 26.4126 15.3404C23.0801 18.1496 15.6438 25.8613 13.4404 28.8083C6.3897 38.2827 2.20335 48.4181 0.495753 60.0683C0.110167 62.5746 0 65.1635 0 70.6719C0 77.4197 0.0550837 78.2735 0.743629 81.9916C2.06564 89.2351 3.93848 94.8261 7.13333 101.243C13.1925 113.279 19.8301 120.826 31.26 128.592C40.4039 134.789 49.9058 138.59 59.7658 139.94C64.2275 140.573 78.5493 140.408 82.3225 139.692C92.4304 137.764 102.841 133.302 110.828 127.408C124.985 116.942 134.569 102.786 138.646 86.3432C139.83 81.4958 140.105 77.9429 139.968 68.441C139.857 60.5641 139.802 59.8755 139.086 56.6256C137.544 49.6024 135.313 43.433 132.146 37.3463C128.648 30.6536 124.985 25.8613 118.815 19.9123C107.689 9.17099 95.1019 2.83637 80.67 0.688111C76.5112 0.0546486 68.1936 -0.193228 64.2826 0.164816ZM79.7061 7.18798C92.871 9.39133 105.21 15.6158 114.299 24.622C124.985 35.1705 132.063 49.1617 133.385 62.3818C133.771 66.0449 133.771 75.3816 133.385 78.3836C132.504 85.6271 130.08 93.0634 126.445 99.8662C124.93 102.703 121.101 108.459 119.118 110.938C111.104 120.881 96.0108 130.135 83.6996 132.613C79.2654 133.522 75.7676 133.825 70.0664 133.825C62.2721 133.825 57.2044 133.027 50.6494 130.851C39.8806 127.243 32.1413 122.395 24.347 114.298C14.845 104.438 9.47439 93.9723 7.2435 81.0001C6.41725 76.1803 6.22445 67.0915 6.85792 62.1339C7.73925 55.1659 9.72227 48.7486 12.9997 42.3038C16.773 34.9226 19.4721 31.1494 24.8703 25.7512C30.7918 19.8572 35.5565 16.3319 41.9737 13.0819C48.5838 9.72183 54.4227 8.01424 63.8695 6.66469C65.7974 6.38927 77.1997 6.74731 79.7061 7.18798Z" fill="#353535"/>
<path d="M66.0729 20.5731C63.3187 20.7935 57.4247 21.8401 56.8463 22.1981C56.5158 22.4184 56.5158 22.6112 56.8188 23.4926C57.2319 24.6493 69.5156 52.8246 69.6808 53.0174C69.9838 53.3479 70.8376 51.8882 73.0685 47.0684C76.9243 38.8609 83.8373 23.1345 83.8373 22.6112C83.8373 22.446 81.2484 21.7024 79.2103 21.2341C78.0811 21.0138 75.9879 20.7384 74.5282 20.6558C73.0409 20.6007 71.113 20.4905 70.2041 20.463C69.2952 20.4079 67.4499 20.463 66.0729 20.5731Z" fill="#353535"/>
<path d="M95.5426 31.0671C90.8605 41.0648 86.5089 50.5667 84.1403 55.9924C82.6531 59.4627 80.7251 63.7317 79.8713 65.5219L78.3565 68.7443L70.0389 68.6892L61.7213 68.6066L59.0497 62.8228C57.59 59.628 53.5138 50.6218 49.9609 42.7724C45.1135 32.0311 43.406 28.5332 43.0479 28.5332C42.8 28.5332 41.8085 29.1116 40.8446 29.8277C38.5586 31.5078 30.1308 39.8529 30.1308 40.4589C30.1308 41.3953 52.1643 91.1083 52.6325 91.246C52.8253 91.3286 53.4036 90.4748 53.9545 89.4007C54.9184 87.5003 60.0688 75.9603 61.1429 73.3713L61.6662 72.0493H69.9287H78.2188L80.2294 76.3734C81.3311 78.7695 83.3141 83.1211 84.581 86.013C85.8755 88.9325 87.0598 91.3286 87.1975 91.3286C87.5555 91.3286 89.869 86.4537 98.3794 67.6426C106.064 50.7044 109.644 42.4419 109.919 41.2025C110.167 39.8805 103.833 33.1052 98.8477 29.332C98.0765 28.7536 97.3053 28.2578 97.1401 28.2578C96.9748 28.2578 96.2587 29.5248 95.5426 31.0671Z" fill="#353535"/>
<path d="M21.758 58.2234C21.4275 58.7742 20.739 63.4288 20.4636 67.0092C19.5271 79.1276 23.3555 91.4663 31.0121 101.078C34.923 105.981 41.5882 111.765 45.747 113.885C47.069 114.546 47.4821 114.601 47.4821 114.133C47.4821 113.638 29.938 74.3078 24.6224 62.8779C22.4741 58.306 22.0885 57.6725 21.758 58.2234Z" fill="#353535"/>
<path d="M115.979 62.9602C113.638 67.8351 96.0659 105.953 93.835 110.993C92.6783 113.692 92.4579 114.463 92.8711 114.463C93.2567 114.463 98.0765 111.599 99.8667 110.332C100.831 109.644 102.979 107.743 104.631 106.063C111.462 99.2327 116.392 90.9702 118.623 82.5699L119.476 79.3475V71.2227C119.504 63.4284 119.229 59.8204 118.513 58.5535C118.375 58.2505 117.631 59.5174 115.979 62.9602Z" fill="#353535"/>
<path d="M69.4054 88.7668C69.0198 89.5655 58.5264 113.389 57.3145 116.254C56.9289 117.162 56.6811 117.989 56.7362 118.099C56.9014 118.374 58.4988 118.787 61.3907 119.338C63.1534 119.641 65.5771 119.779 69.791 119.806C74.8862 119.834 76.2082 119.751 79.3205 119.173C81.331 118.815 83.1212 118.429 83.314 118.319C83.7271 118.044 83.1488 116.612 77.6404 104.108C72.9583 93.5591 70.3418 88.0232 70.0389 88.0232C69.9012 88.0232 69.6257 88.3537 69.4054 88.7668Z" fill="#353535"/>
</svg>
