<svg width="23" height="29" viewBox="0 0 23 29" fill="none" xmlns="http://www.w3.org/2000/svg">
<path d="M20.417 13.2115C20.0464 12.7281 19.5953 12.3092 19.1764 11.8903C18.0969 10.9236 16.8724 10.2308 15.8413 9.21582C13.4407 6.86353 12.909 2.98064 14.4396 0C12.909 0.370566 11.5717 1.20837 10.4278 2.12673C6.25493 5.47793 4.61154 11.3909 6.57716 16.466C6.6416 16.6271 6.70605 16.7883 6.70605 16.9977C6.70605 17.3522 6.46438 17.6744 6.14214 17.8033C5.77158 17.9644 5.3849 17.8677 5.07878 17.6099C4.98679 17.5339 4.91022 17.4409 4.85322 17.3361C3.03261 15.0321 2.7426 11.7292 3.96708 9.08693C1.27645 11.2781 -0.189703 14.9838 0.0197475 18.48C0.116417 19.2856 0.213086 20.0911 0.486983 20.8967C0.712545 21.8634 1.14756 22.8301 1.6309 23.684C3.37095 26.4713 6.38382 28.4691 9.62224 28.8719C13.0701 29.3069 16.7597 28.6786 19.402 26.2941C22.3504 23.6196 23.3815 19.3339 21.867 15.6604L21.6576 15.2415C21.3192 14.5004 20.417 13.2115 20.417 13.2115ZM15.3257 23.3618C14.8746 23.7485 14.1335 24.1674 13.5535 24.3285C11.749 24.9729 9.94448 24.0707 8.88111 23.0073C10.7984 22.5562 11.9423 21.1384 12.2807 19.7045C12.5545 18.4155 12.039 17.3522 11.8295 16.1116C11.6362 14.9193 11.6684 13.9043 12.1034 12.7926C12.4095 13.4048 12.7318 14.0171 13.1185 14.5004C14.359 16.1116 16.3085 16.8205 16.7274 19.0117C16.7919 19.2372 16.8241 19.4628 16.8241 19.7045C16.8724 21.0256 16.2924 22.4756 15.3257 23.3618Z" fill="#FBFBFB"/>
</svg>
