<svg width="26" height="29" viewBox="0 0 26 29" fill="none" xmlns="http://www.w3.org/2000/svg">
<path d="M0 0H4.57895C5.00632 0 5.38789 0.167895 5.66263 0.442632L8.83737 3.63263L10.0584 2.42684C10.6842 1.83158 11.4474 1.52632 12.2105 1.52632H21.3684C22.1316 1.52632 22.8947 1.83158 23.5205 2.42684L25.0468 3.95316C25.6421 4.57895 25.9474 5.34211 25.9474 6.10526V25.9474C25.9474 26.757 25.6258 27.5334 25.0533 28.1059C24.4808 28.6784 23.7043 29 22.8947 29H7.63158C6.82197 29 6.04552 28.6784 5.47304 28.1059C4.90056 27.5334 4.57895 26.757 4.57895 25.9474V9.1579C4.57895 8.39474 4.88421 7.63158 5.47947 7.00579L6.68526 5.78474L3.95316 3.05263H0V0ZM12.2105 4.57895V7.63158H21.3684V4.57895H12.2105ZM12.8363 13.7368L9.78368 10.6842H7.63158V12.8363L10.6842 15.8889V20.7426L7.63158 23.7953V25.9474H9.78368L12.8363 22.8947H17.69L20.7426 25.9474H22.8947V23.7953L19.8421 20.7426V15.8889L22.8947 12.8363V10.6842H20.7426L17.69 13.7368H12.8363ZM13.7368 16.7895H16.7895V19.8421H13.7368V16.7895Z" fill="#FBFBFB"/>
</svg>
