<svg width="35" height="29" viewBox="0 0 35 29" fill="none" xmlns="http://www.w3.org/2000/svg">
<path d="M29.4328 3.02985C27.511 3.02985 25.9701 4.57075 25.9701 6.49254V18.1964C24.8621 19.1833 24.2388 20.603 24.2388 22.0746C24.2388 24.9487 26.5588 27.2687 29.4328 27.2687C32.3069 27.2687 34.6269 24.9487 34.6269 22.0746C34.6269 20.603 34.0036 19.1833 32.8955 18.2137V6.49254C32.8955 4.57075 31.3546 3.02985 29.4328 3.02985ZM29.4328 4.76119C30.3851 4.76119 31.1642 5.5403 31.1642 6.49254V8.22388H27.7015V6.49254C27.7015 5.5403 28.4806 4.76119 29.4328 4.76119ZM10.3881 29C4.65731 29 0 24.3427 0 18.6119C0 11.6866 10.3881 0 10.3881 0C10.3881 0 20.7761 11.6866 20.7761 18.6119C20.7761 24.3427 16.1188 29 10.3881 29Z" fill="#FBFBFB"/>
</svg>
