<svg width="15" height="29" viewBox="0 0 15 29" fill="none" xmlns="http://www.w3.org/2000/svg">
<path d="M8.7 20.5844C9.425 20.8312 10.005 21.2376 10.4835 21.7748H11.6V27.5814H10.4545C9.9905 28.0894 9.425 28.4959 8.7 28.7427C7.0325 29.3524 5.191 28.8443 4.031 27.5814H2.9V21.7748H4.0165C4.495 21.2376 5.075 20.8312 5.8 20.5844V14.5165H8.7V20.5844ZM7.25 26.1297C7.63456 26.1297 8.00338 25.9768 8.2753 25.7045C8.54723 25.4323 8.7 25.0631 8.7 24.6781C8.7 24.2931 8.54723 23.9238 8.2753 23.6516C8.00338 23.3794 7.63456 23.2264 7.25 23.2264C6.86544 23.2264 6.49662 23.3794 6.2247 23.6516C5.95277 23.9238 5.8 24.2931 5.8 24.6781C5.8 25.0631 5.95277 25.4323 6.2247 25.7045C6.49662 25.9768 6.86544 26.1297 7.25 26.1297ZM14.5 2.9033H11.6V4.35495H14.5V13.0649H0V4.35495H2.9V2.9033H0V0H14.5V2.9033ZM7.25 10.1616C7.63456 10.1616 8.00338 10.0086 8.2753 9.73638C8.54723 9.46414 8.7 9.09491 8.7 8.7099C8.7 8.3249 8.54723 7.95567 8.2753 7.68343C8.00338 7.41119 7.63456 7.25825 7.25 7.25825C6.86544 7.25825 6.49662 7.41119 6.2247 7.68343C5.95277 7.95567 5.8 8.3249 5.8 8.7099C5.8 9.09491 5.95277 9.46414 6.2247 9.73638C6.49662 10.0086 6.86544 10.1616 7.25 10.1616Z" fill="#FBFBFB"/>
</svg>
