<svg width="29" height="29" viewBox="0 0 29 29" fill="none" xmlns="http://www.w3.org/2000/svg">
<path d="M13.05 29V22.9825L8.3375 27.6225L6.3075 25.5925L13.05 18.85V15.95H10.15L3.4075 22.6925L1.3775 20.6625L6.0175 15.95H0V13.05H6.0175L1.3775 8.3375L3.4075 6.3075L10.15 13.05H13.05V10.15L6.3075 3.4075L8.3375 1.3775L13.05 6.0175V0H15.95V6.0175L20.6625 1.3775L22.6925 3.4075L15.95 10.15V13.05H18.85L25.5925 6.3075L27.6225 8.3375L22.9825 13.05H29V15.95H22.9825L27.6225 20.6625L25.5925 22.6925L18.85 15.95H15.95V18.85L22.6925 25.5925L20.6625 27.6225L15.95 22.9825V29H13.05Z" fill="#FBFBFB"/>
</svg>
