<svg width="29" height="29" viewBox="0 0 29 29" fill="none" xmlns="http://www.w3.org/2000/svg">
<path fill-rule="evenodd" clip-rule="evenodd" d="M14.5 0C22.5084 0 29 6.49165 29 14.5C29 22.5084 22.5084 29 14.5 29C6.49165 29 0 22.5084 0 14.5C0 6.49165 6.49165 0 14.5 0ZM3.19725 17.1245C3.70469 19.3029 4.83037 21.2885 6.43903 22.8427C8.0477 24.3968 10.0709 25.4534 12.2655 25.8854C11.9857 22.0791 10.7344 19.7954 9.15385 18.5325C7.64005 17.3217 5.58685 16.8533 3.19725 17.1231V17.1245ZM19.8462 18.531C18.2657 19.7969 17.0143 22.0791 16.7345 25.8854C18.9293 25.4533 20.9526 24.3965 22.5613 22.8421C24.17 21.2877 25.2956 19.3018 25.8028 17.1231C23.4132 16.8533 21.36 17.3217 19.8462 18.5325V18.531ZM14.5 2.9C11.7975 2.90036 9.17978 3.84398 7.0986 5.56806C5.01742 7.29214 3.60326 9.68855 3.1001 12.3439L3.03775 12.7035L6.24225 12.0626C7.08615 11.8944 7.888 11.4492 8.7841 10.8446L9.47575 10.3632C10.6314 9.54245 12.3439 8.7 14.5 8.7C16.5126 8.7 18.1381 9.4337 19.285 10.1993L20.2159 10.8446C20.9989 11.3738 21.7123 11.7798 22.4431 11.9872L22.7577 12.0626L25.9623 12.7035C25.5334 9.97154 24.1429 7.48264 22.0413 5.68522C19.9398 3.8878 17.2654 2.90006 14.5 2.9Z" fill="#FBFBFB"/>
</svg>
