<svg width="40" height="29" viewBox="0 0 40 29" fill="none" xmlns="http://www.w3.org/2000/svg">
<path d="M14.5238 5.52381H29.7143C30.0805 5.52381 30.4318 5.6693 30.6908 5.92828C30.9497 6.18726 31.0952 6.53851 31.0952 6.90476V27.619C31.0952 27.9853 30.9497 28.3365 30.6908 28.5955C30.4318 28.8545 30.0805 29 29.7143 29H10.381C10.0147 29 9.66345 28.8545 9.40447 28.5955C9.14549 28.3365 9 27.9853 9 27.619V13.8095L14.5238 5.52381ZM21.4286 0H28.3333C28.6996 0 29.0508 0.145493 29.3098 0.404472C29.5688 0.66345 29.7143 1.0147 29.7143 1.38095V4.14286H20.0476V1.38095C20.0476 1.0147 20.1931 0.66345 20.4521 0.404472C20.7111 0.145493 21.0623 0 21.4286 0ZM11.7619 15.1905V24.8571H14.5238V15.1905H11.7619Z" fill="#353535"/>
</svg>
