<svg width="30" height="29" viewBox="0 0 30 29" fill="none" xmlns="http://www.w3.org/2000/svg">
<path fill-rule="evenodd" clip-rule="evenodd" d="M0.520771 7.58984L13.2989 13.7601C13.6316 13.9187 14.0757 14.0016 14.5152 14.0016C14.9547 14.0016 15.3988 13.9187 15.7309 13.7601L28.509 7.58984C29.1809 7.26618 29.1809 6.73667 28.509 6.41172L15.7309 0.241451C15.3988 0.0828571 14.9541 0 14.5152 0C14.0763 0 13.6316 0.0828571 13.2989 0.241451L0.520771 6.41172C-0.151149 6.73667 -0.151149 7.26489 0.520771 7.58984ZM28.509 13.9109C28.509 13.9109 26.1754 12.7859 25.866 12.6344C25.5566 12.4829 25.4731 12.4914 25.1481 12.6422C24.8232 12.793 15.7231 17.1883 15.7231 17.1883C15.3395 17.354 14.9252 17.4365 14.5074 17.4304C14.0692 17.4304 13.6239 17.3469 13.2918 17.1883C13.2918 17.1883 4.43318 12.916 4.0176 12.7102C3.56771 12.4933 3.43825 12.4933 3.02849 12.6875L0.50394 13.9032C-0.16798 14.2268 -0.16798 14.757 0.50394 15.0813L13.284 21.2516C13.6161 21.4102 14.0608 21.493 14.4997 21.493C14.9386 21.493 15.3833 21.4102 15.716 21.2516L28.4941 15.0826C29.1809 14.7641 29.1809 14.2359 28.509 13.9109ZM25.866 20.1317C26.1754 20.2851 28.509 21.4102 28.509 21.4102C29.1809 21.7351 29.1809 22.2633 28.5012 22.5915L15.7205 28.7585C15.3885 28.9171 14.9437 29 14.5049 29C14.066 29 13.6213 28.9243 13.2892 28.7585L0.511063 22.5883C-0.161504 22.2633 -0.161504 21.7338 0.511063 21.4102L3.03562 20.1945C3.44278 19.9977 3.57225 19.9977 4.02537 20.2171C4.4403 20.423 13.2989 24.6953 13.2989 24.6953C13.6316 24.8539 14.077 24.9368 14.5152 24.9368C14.9329 24.9429 15.3472 24.8607 15.7309 24.6953C15.7309 24.6953 24.8232 20.2903 25.1481 20.1395C25.4731 19.9886 25.5566 19.9783 25.866 20.1317Z" fill="#FBFBFB"/>
</svg>
