<svg width="33" height="33" viewBox="0 0 33 33" fill="none" xmlns="http://www.w3.org/2000/svg">
<mask id="mask0_39_291" style="mask-type:luminance" maskUnits="userSpaceOnUse" x="0" y="0" width="33" height="33">
<path d="M14.8889 30.9999C22.0076 30.9999 27.7778 25.2298 27.7778 18.1111C27.7778 10.9924 22.0076 5.22217 14.8889 5.22217C7.77019 5.22217 2 10.9924 2 18.1111C2 25.2298 7.77019 30.9999 14.8889 30.9999Z" stroke="white" stroke-width="4" stroke-linecap="round" stroke-linejoin="round"/>
<path d="M14.889 21.3333C15.7436 21.3333 16.5631 20.9939 17.1674 20.3896C17.7717 19.7853 18.1112 18.9657 18.1112 18.1111C18.1112 17.2565 17.7717 16.4369 17.1674 15.8327C16.5631 15.2284 15.7436 14.8889 14.889 14.8889C14.0344 14.8889 13.2148 15.2284 12.6105 15.8327C12.0062 16.4369 11.6667 17.2565 11.6667 18.1111C11.6667 18.9657 12.0062 19.7853 12.6105 20.3896C13.2148 20.9939 14.0344 21.3333 14.889 21.3333ZM14.889 2C17.0047 2 19.0997 2.41673 21.0544 3.22639C23.0091 4.03604 24.7852 5.22278 26.2812 6.71884C27.7773 8.21489 28.964 9.99097 29.7737 11.9457C30.5834 13.9003 31.0001 15.9954 31.0001 18.1111H24.5605C24.5605 15.5461 23.5415 13.0861 21.7278 11.2723C19.914 9.45857 17.454 8.43961 14.889 8.43961V2Z" fill="white" stroke="white" stroke-width="4" stroke-linecap="round" stroke-linejoin="round"/>
</mask>
<g mask="url(#mask0_39_291)">
<path d="M0 0H33V33H0V0Z" fill="#FBFBFB"/>
</g>
</svg>
