<svg width="15" height="29" viewBox="0 0 15 29" fill="none" xmlns="http://www.w3.org/2000/svg">
<path d="M5.8 0C5.568 0 5.3505 0.0434999 5.1475 0.145L2.2475 1.595C0.812 2.407 1.45 4.35 2.9 4.35C3.132 4.35 3.364 4.2775 3.5525 4.205L6.4525 2.755C7.8735 1.972 7.25 0 5.8 0ZM11.6 2.9C11.374 2.89462 11.15 2.94439 10.9475 3.045L2.2475 7.395C0.812 8.236 1.45 10.15 2.9 10.15C3.161 10.15 3.364 10.0775 3.5525 10.005L12.2525 5.655C13.6445 4.9735 13.05 2.9 11.6 2.9ZM11.6 8.7C11.368 8.7 11.1505 8.7435 10.9475 8.845L2.465 13.0935C1.74 13.4125 1.45 13.92 1.45 14.5V17.4H0V21.75C0 22.5475 0.638 23.2 1.45 23.2H13.05C13.8475 23.2 14.5 22.5475 14.5 21.75V17.4H13.05V15.95C13.05 15.138 12.3975 14.5 11.6 14.5C10.8025 14.5 10.15 15.1525 10.15 15.95V17.4H4.35V15.399L12.2525 11.455C13.659 10.643 13.05 8.7 11.6 8.7ZM2.9 26.1V27.55C2.9 28.3765 3.567 29 4.35 29H10.15C10.962 29 11.6 28.3475 11.6 27.55V26.1" fill="#FBFBFB"/>
</svg>
