<svg width="29" height="29" viewBox="0 0 29 29" fill="none" xmlns="http://www.w3.org/2000/svg">
<path d="M2.07143 1.03571C2.07143 0.761026 1.96231 0.497588 1.76807 0.303354C1.57384 0.10912 1.3104 0 1.03571 0C0.761026 0 0.497588 0.10912 0.303354 0.303354C0.10912 0.497588 0 0.761026 0 1.03571V27.9643C0 28.239 0.10912 28.5024 0.303354 28.6966C0.497588 28.8909 0.761026 29 1.03571 29C1.3104 29 1.57384 28.8909 1.76807 28.6966C1.96231 28.5024 2.07143 28.239 2.07143 27.9643V1.03571ZM29 1.03571C29 0.761026 28.8909 0.497588 28.6966 0.303354C28.5024 0.10912 28.239 0 27.9643 0C27.6896 0 27.4262 0.10912 27.2319 0.303354C27.0377 0.497588 26.9286 0.761026 26.9286 1.03571V27.9643C26.9286 28.239 27.0377 28.5024 27.2319 28.6966C27.4262 28.8909 27.6896 29 27.9643 29C28.239 29 28.5024 28.8909 28.6966 28.6966C28.8909 28.5024 29 28.239 29 27.9643V1.03571ZM12.4286 0C11.3298 0 10.2761 0.436478 9.49913 1.21341C8.72219 1.99035 8.28571 3.0441 8.28571 4.14286V8.28571H20.7143V4.14286C20.7143 3.0441 20.2778 1.99035 19.5009 1.21341C18.7239 0.436478 17.6702 0 16.5714 0H12.4286ZM8.28571 18.6429V10.3571H20.7143V18.6429H8.28571ZM8.28571 20.7143H20.7143V24.8571C20.7143 25.9559 20.2778 27.0096 19.5009 27.7866C18.7239 28.5635 17.6702 29 16.5714 29H12.4286C11.3298 29 10.2761 28.5635 9.49913 27.7866C8.72219 27.0096 8.28571 25.9559 8.28571 24.8571V20.7143Z" fill="#FBFBFB"/>
</svg>
