<svg width="21" height="29" viewBox="0 0 21 29" fill="none" xmlns="http://www.w3.org/2000/svg">
<path fill-rule="evenodd" clip-rule="evenodd" d="M2.07143 0C2.62081 0 3.14768 0.21824 3.53615 0.606708C3.92462 0.995176 4.14286 1.52205 4.14286 2.07143V18.6429C4.14286 20.291 4.79757 21.8716 5.96298 23.037C7.12838 24.2024 8.70901 24.8571 10.3571 24.8571C12.0053 24.8571 13.5859 24.2024 14.7513 23.037C15.9167 21.8716 16.5714 20.291 16.5714 18.6429V2.07143C16.5714 1.52205 16.7897 0.995176 17.1781 0.606708C17.5666 0.21824 18.0935 0 18.6429 0C19.1922 0 19.7191 0.21824 20.1076 0.606708C20.496 0.995176 20.7143 1.52205 20.7143 2.07143V18.6429C20.7143 24.3631 16.0774 29 10.3571 29C4.63689 29 0 24.3631 0 18.6429V2.07143C0 1.52205 0.21824 0.995176 0.606708 0.606708C0.995176 0.21824 1.52205 0 2.07143 0Z" fill="#FBFBFB"/>
</svg>
