<svg width="29" height="29" viewBox="0 0 29 29" fill="none" xmlns="http://www.w3.org/2000/svg">
<path d="M4.85428 2.10111C4.85428 1.47319 5.27691 0.966026 6.12219 0.579615C6.96746 0.193205 8.05424 0 9.38252 0C12.0149 0 14.2426 0.911928 16.0655 2.73578C17.8884 4.55964 18.8003 6.78729 18.8013 9.41875C18.8013 10.0467 18.7409 10.6688 18.6201 11.2851C18.4994 11.9014 18.3183 12.4868 18.0768 13.0413L28.0389 23.0035C28.5944 23.5589 28.8784 24.2414 28.8909 25.051C28.9035 25.8605 28.6315 26.5425 28.0751 27.097L27.097 28.1113C26.5416 28.691 25.8591 28.987 25.0495 28.9996C24.24 29.0122 23.5459 28.7281 22.9673 28.1476L12.9689 18.1492C12.4134 18.3907 11.8338 18.566 11.23 18.6752C10.6263 18.7844 10.0225 18.8385 9.41875 18.8375C6.78633 18.8375 4.55867 17.9261 2.73578 16.1032C0.912894 14.2803 0.000966026 12.0521 0 9.41875C0 8.09046 0.187409 7.00368 0.562227 6.15841C0.937045 5.31314 1.43793 4.8905 2.06488 4.8905C2.30639 4.8905 2.53002 4.93301 2.73578 5.01802C2.94155 5.10303 3.12847 5.22958 3.29656 5.39767L7.31764 9.41875L9.38252 7.3901L5.36144 3.36901C5.19239 3.19996 5.06535 3.00675 4.98034 2.7894C4.89533 2.57204 4.85331 2.34261 4.85428 2.10111Z" fill="#FBFBFB"/>
</svg>
