<svg width="40" height="29" viewBox="0 0 40 29" fill="none" xmlns="http://www.w3.org/2000/svg">
<path d="M17.1121 26.797C14.2711 26.4359 11.8755 25.1839 9.92528 23.0411C7.97509 20.8983 7 18.3703 7 15.457C7 13.868 7.29469 12.3936 7.88408 11.0337C8.47347 9.67389 9.31037 8.47585 10.3948 7.4396L17.5455 0.433375C17.6899 0.288917 17.8464 0.180573 18.0149 0.108344C18.1835 0.0361146 18.3641 0 18.5567 0C18.7493 0 18.9298 0.0361146 19.0984 0.108344C19.2669 0.180573 19.4234 0.288917 19.5679 0.433375L26.7186 7.4396C27.5853 8.28227 28.3018 9.24533 28.8681 10.3288C29.4344 11.4122 29.8133 12.5799 30.005 13.8319H20.0012C19.2067 13.8319 18.5263 14.115 17.96 14.6813C17.3938 15.2476 17.1111 15.9275 17.1121 16.721V26.797ZM26.3213 19.6463C25.8879 19.4537 25.4483 19.2852 25.0024 19.1407C24.5565 18.9963 24.0933 18.924 23.6127 18.924C23.2275 18.924 22.8543 18.9664 22.4932 19.0512C22.132 19.1359 21.7829 19.25 21.4458 19.3935C21.181 19.5139 20.9041 19.5259 20.6152 19.4296C20.3263 19.3333 20.1216 19.1528 20.0012 18.8879C19.8809 18.599 19.8809 18.3101 20.0012 18.0212C20.1216 17.7323 20.3263 17.5276 20.6152 17.4072C21.0967 17.2146 21.5903 17.0581 22.0959 16.9377C22.6015 16.8174 23.1071 16.7572 23.6127 16.7572C24.1665 16.7572 24.714 16.8236 25.2552 16.9565C25.7964 17.0894 26.3203 17.2517 26.8269 17.4433C27.2603 17.6359 27.6999 17.8045 28.1458 17.9489C28.5917 18.0934 29.0549 18.1656 29.5355 18.1656C29.9207 18.1656 30.2939 18.1237 30.655 18.0399C31.0162 17.9562 31.3653 17.8416 31.7024 17.6961C31.9672 17.5758 32.2441 17.5575 32.533 17.6412C32.8219 17.725 33.0266 17.8998 33.1469 18.1656C33.2673 18.4545 33.2673 18.7497 33.1469 19.0512C33.0266 19.3526 32.8219 19.563 32.533 19.6824C32.0515 19.8751 31.5579 20.0315 31.0523 20.1519C30.5467 20.2723 30.0411 20.3325 29.5355 20.3325C28.9817 20.3325 28.4342 20.2661 27.893 20.1331C27.3518 20.0002 26.8279 19.838 26.3213 19.6463ZM26.3213 23.9801C25.8879 23.7875 25.4483 23.6189 25.0024 23.4745C24.5565 23.33 24.0933 23.2578 23.6127 23.2578C23.2275 23.2578 22.8543 23.3002 22.4932 23.3849C22.132 23.4697 21.7829 23.5838 21.4458 23.7273C21.181 23.8477 20.9041 23.8597 20.6152 23.7634C20.3263 23.6671 20.1216 23.4865 20.0012 23.2217C19.8809 22.9328 19.8809 22.6438 20.0012 22.3549C20.1216 22.066 20.3263 21.8614 20.6152 21.741C21.0967 21.5484 21.5903 21.3919 22.0959 21.2715C22.6015 21.1511 23.1071 21.0909 23.6127 21.0909C24.1665 21.0909 24.714 21.1574 25.2552 21.2903C25.7964 21.4232 26.3203 21.5854 26.8269 21.7771C27.2603 21.9697 27.6999 22.1382 28.1458 22.2827C28.5917 22.4271 29.0549 22.4994 29.5355 22.4994C29.9207 22.4994 30.2939 22.457 30.655 22.3723C31.0162 22.2875 31.3653 22.1734 31.7024 22.0299C31.9672 21.9095 32.2441 21.8917 32.533 21.9764C32.8219 22.0612 33.0266 22.2355 33.1469 22.4994C33.2673 22.7883 33.2673 23.0835 33.1469 23.3849C33.0266 23.6863 32.8219 23.8968 32.533 24.0162C32.0515 24.2088 31.5579 24.3653 31.0523 24.4857C30.5467 24.6061 30.0411 24.6663 29.5355 24.6663C28.9817 24.6663 28.4342 24.5998 27.893 24.4669C27.3518 24.334 26.8279 24.1717 26.3213 23.9801ZM26.3213 28.3138C25.8879 28.1212 25.4483 27.9527 25.0024 27.8082C24.5565 27.6638 24.0933 27.5915 23.6127 27.5915C23.2275 27.5915 22.8543 27.6339 22.4932 27.7187C22.132 27.8034 21.7829 27.9175 21.4458 28.061C21.181 28.1814 20.9041 28.1934 20.6152 28.0971C20.3263 28.0008 20.1216 27.8203 20.0012 27.5554C19.8809 27.2665 19.8809 26.9776 20.0012 26.6887C20.1216 26.3997 20.3263 26.1951 20.6152 26.0747C21.0967 25.8821 21.5903 25.7256 22.0959 25.6052C22.6015 25.4848 23.1071 25.4247 23.6127 25.4247C24.1665 25.4247 24.714 25.4911 25.2552 25.624C25.7964 25.7569 26.3203 25.9192 26.8269 26.1108C27.2603 26.3034 27.6999 26.472 28.1458 26.6164C28.5917 26.7609 29.0549 26.8331 29.5355 26.8331C29.9207 26.8331 30.2939 26.7907 30.655 26.706C31.0162 26.6213 31.3653 26.5071 31.7024 26.3636C31.9672 26.2433 32.2441 26.2254 32.533 26.3102C32.8219 26.3949 33.0266 26.5692 33.1469 26.8331C33.2673 27.122 33.2673 27.4172 33.1469 27.7187C33.0266 28.0201 32.8219 28.2305 32.533 28.3499C32.0515 28.5425 31.5579 28.699 31.0523 28.8194C30.5467 28.9398 30.0411 29 29.5355 29C28.9817 29 28.4342 28.9335 27.893 28.8006C27.3518 28.6677 26.8279 28.5055 26.3213 28.3138Z" fill="#353535"/>
</svg>
