<svg width="40" height="29" viewBox="0 0 40 29" fill="none" xmlns="http://www.w3.org/2000/svg">
<path d="M19.7368 2.14312e-07C18.7235 -0.000323443 17.7443 0.365958 16.9799 1.03123C16.2155 1.6965 15.7176 2.61583 15.5781 3.61952C15.4386 4.62321 15.6669 5.64349 16.2209 6.492C16.7749 7.34051 17.6171 7.95996 18.5921 8.236V14.1184C18.5921 14.422 18.7127 14.7132 18.9274 14.9279C19.1421 15.1426 19.4332 15.2632 19.7368 15.2632C20.0404 15.2632 20.3316 15.1426 20.5463 14.9279C20.761 14.7132 20.8816 14.422 20.8816 14.1184V8.236C21.8544 7.95784 22.6941 7.33774 23.2462 6.48978C23.7982 5.64182 24.0255 4.62303 23.8862 3.62083C23.7469 2.61863 23.2504 1.70044 22.488 1.03517C21.7256 0.369904 20.7487 0.00230487 19.7368 2.14312e-07ZM9.81579 3.05263C8.80378 3.05263 7.83322 3.45465 7.11762 4.17025C6.40202 4.88585 6 5.85641 6 6.86842V25.1842C6 26.1962 6.40202 27.1668 7.11762 27.8824C7.83322 28.598 8.80378 29 9.81579 29C10.8278 29 11.7984 28.598 12.514 27.8824C13.2296 27.1668 13.6316 26.1962 13.6316 25.1842V19.8421H15.9211V25.1842C15.9211 26.1962 16.3231 27.1668 17.0387 27.8824C17.7543 28.598 18.7248 29 19.7368 29C20.7489 29 21.7194 28.598 22.435 27.8824C23.1506 27.1668 23.5526 26.1962 23.5526 25.1842V19.8421H30.4211C31.2307 19.8421 32.0071 19.5205 32.5796 18.948C33.1521 18.3755 33.4737 17.5991 33.4737 16.7895V6.86842C33.4737 5.85641 33.0717 4.88585 32.3561 4.17025C31.6405 3.45465 30.6699 3.05263 29.6579 3.05263C28.6459 3.05263 27.6753 3.45465 26.9597 4.17025C26.2441 4.88585 25.8421 5.85641 25.8421 6.86842V12.2105H22.4079V14.5H28.1316V6.86842C28.1316 6.46362 28.2924 6.07539 28.5786 5.78915C28.8649 5.50291 29.2531 5.34211 29.6579 5.34211C30.0627 5.34211 30.4509 5.50291 30.7372 5.78915C31.0234 6.07539 31.1842 6.46362 31.1842 6.86842V16.7895C31.1842 16.9919 31.1038 17.186 30.9607 17.3291C30.8176 17.4722 30.6235 17.5526 30.4211 17.5526H21.2632V25.1842C21.2632 25.589 21.1024 25.9772 20.8161 26.2635C20.5299 26.5497 20.1416 26.7105 19.7368 26.7105C19.332 26.7105 18.9438 26.5497 18.6576 26.2635C18.3713 25.9772 18.2105 25.589 18.2105 25.1842V17.5526H11.3421V25.1842C11.3421 25.589 11.1813 25.9772 10.8951 26.2635C10.6088 26.5497 10.2206 26.7105 9.81579 26.7105C9.41099 26.7105 9.02276 26.5497 8.73652 26.2635C8.45028 25.9772 8.28947 25.589 8.28947 25.1842V6.86842C8.28947 6.46362 8.45028 6.07539 8.73652 5.78915C9.02276 5.50291 9.41099 5.34211 9.81579 5.34211C10.2206 5.34211 10.6088 5.50291 10.8951 5.78915C11.1813 6.07539 11.3421 6.46362 11.3421 6.86842V14.5H17.0658V12.2105H13.6316V6.86842C13.6316 5.85641 13.2296 4.88585 12.514 4.17025C11.7984 3.45465 10.8278 3.05263 9.81579 3.05263Z" fill="#353535"/>
</svg>
