<svg width="40" height="29" viewBox="0 0 40 29" fill="none" xmlns="http://www.w3.org/2000/svg">
<path d="M20.4039 21.4675C20.8307 21.4675 21.1888 21.3294 21.478 21.0532C21.7673 20.7771 21.9114 20.4255 21.9104 19.9987V16.9481H24.9234C25.3502 16.9481 25.7083 16.8039 25.9975 16.5157C26.2868 16.2274 26.4309 15.8694 26.4299 15.4416C26.4299 15.0147 26.2918 14.6567 26.0156 14.3674C25.7394 14.0782 25.3879 13.9341 24.961 13.9351H21.9104V10.9221C21.9104 10.4952 21.7658 10.1372 21.4765 9.84795C21.1873 9.5587 20.8297 9.41458 20.4039 9.41558C19.9771 9.41558 19.619 9.55368 19.3298 9.82987C19.0405 10.1061 18.8964 10.4576 18.8974 10.8844V13.9351H15.8844C15.4576 13.9351 15.0995 14.0797 14.8103 14.3689C14.521 14.6582 14.3769 15.0157 14.3779 15.4416C14.3779 15.8684 14.516 16.2264 14.7922 16.5157C15.0684 16.8049 15.4199 16.9491 15.8468 16.9481H18.8974V19.961C18.8974 20.3879 19.042 20.7459 19.3313 21.0352C19.6205 21.3244 19.9781 21.4685 20.4039 21.4675ZM20.4039 29C18.5208 29 16.7567 28.642 15.1116 27.9259C13.4665 27.2098 12.0353 26.2436 10.8181 25.0274C9.60083 23.8091 8.63467 22.378 7.91958 20.7339C7.2045 19.0898 6.84646 17.3257 6.84545 15.4416C6.84545 13.5584 7.2035 11.7943 7.91958 10.1492C8.63567 8.50416 9.60183 7.07299 10.8181 5.85574C12.0363 4.63849 13.4675 3.67233 15.1116 2.95725C16.7557 2.24216 18.5198 1.88412 20.4039 1.88312C22.287 1.88312 24.0511 2.24116 25.6962 2.95725C27.3413 3.67333 28.7725 4.64 29.9897 5.85725C31.207 7.07449 32.1736 8.50566 32.8897 10.1508C33.6058 11.7958 33.9633 13.5594 33.9623 15.4416C33.9623 17.3247 33.6043 19.0888 32.8882 20.7339C32.1721 22.379 31.206 23.8101 29.9897 25.0274C28.7715 26.2446 27.3403 27.2113 25.6962 27.9274C24.0521 28.6435 22.288 29.001 20.4039 29ZM7.48571 6.89221C7.20952 7.1684 6.87056 7.30649 6.46883 7.30649C6.0671 7.30649 5.71558 7.15584 5.41429 6.85455C5.1381 6.57836 5 6.22684 5 5.8C5 5.37316 5.1381 5.02165 5.41429 4.74545L9.74545 0.414286C10.0216 0.138095 10.3606 0 10.7623 0C11.1641 0 11.5156 0.150649 11.8169 0.451948C12.0931 0.728138 12.2312 1.07965 12.2312 1.50649C12.2312 1.93333 12.0931 2.28485 11.8169 2.56104L7.48571 6.89221ZM33.2844 6.85455L28.9532 2.52338C28.6771 2.24719 28.539 1.90823 28.539 1.50649C28.539 1.10476 28.6896 0.753247 28.9909 0.451948C29.2671 0.175757 29.6186 0.0376625 30.0455 0.0376625C30.4723 0.0376625 30.8238 0.175757 31.1 0.451948L35.4312 4.78312C35.7074 5.05931 35.8455 5.39827 35.8455 5.8C35.8455 6.20173 35.6948 6.55325 35.3935 6.85455C35.1173 7.13074 34.7658 7.26883 34.339 7.26883C33.9121 7.26883 33.5606 7.13074 33.2844 6.85455Z" fill="#353535"/>
</svg>
