<svg width="40" height="29" viewBox="0 0 40 29" fill="none" xmlns="http://www.w3.org/2000/svg">
<path d="M15.7 29V25.375C13.1383 24.4808 11.0479 22.9163 9.42875 20.6814C7.80958 18.4464 7 15.9026 7 13.05C7 11.2375 7.34462 9.54003 8.03385 7.9576C8.72308 6.37517 9.65302 4.99767 10.8236 3.8251C11.9962 2.65253 13.3737 1.72212 14.9562 1.03385C16.5386 0.345583 18.2245 0.000966667 20.0137 0C21.8021 0 23.4937 0.344617 25.0887 1.03385C26.6837 1.72308 28.0733 2.6535 29.2575 3.8251C30.4417 4.9967 31.3784 6.3742 32.0676 7.9576C32.7568 9.541 33.101 11.2385 33.1 13.05C33.1 15.9017 32.2841 18.4334 30.6524 20.6451C29.0207 22.8568 26.9365 24.4214 24.4 25.3387V29H21.5V26.0275C21.2583 26.0758 21.0167 26.1 20.775 26.1H20.0137C19.7721 26.1 19.5362 26.0942 19.3062 26.0826C19.0761 26.071 18.8407 26.0526 18.6 26.0275V29H15.7ZM14.25 10.2225H25.85V7.3225H14.25V10.2225ZM18.9625 21.8225L23.3125 17.4725L21.5 15.66L23.3125 13.8475L21.1375 11.6725L16.7875 16.0225L18.6 17.835L16.7875 19.6475L18.9625 21.8225Z" fill="#353535"/>
</svg>
